<svg width="442" height="327" viewBox="0 0 442 327" fill="none" xmlns="http://www.w3.org/2000/svg">
<path d="M427 97.52C426.621 105.107 422.914 114.115 420.563 121.43C418.875 126.682 416.179 131.725 414.125 136.859C410.386 146.208 405.56 154.825 403.09 164.703C401.878 169.55 399.791 174.712 397.981 179.365C396.025 184.396 395.743 189.792 393.894 194.794C391.959 200.029 389.652 205.556 387.457 210.632C385.553 215.036 385.004 219.961 383.267 224.426C379.858 233.192 374.779 242.855 372.743 252.015C371.087 259.465 366.204 265.829 364.262 273.166C362.748 278.887 360.634 284.921 359.817 290.638C359.484 292.97 358.584 295.27 358.08 297.535C357.362 300.766 359.026 304.317 357.11 307.191" stroke="#1E1E1E" stroke-width="29.4275" stroke-linecap="round" stroke-linejoin="round"/>
<path d="M351.592 307.191C339.314 307.191 327.198 305.352 314.808 305.352C301.273 305.352 287.416 308.111 273.885 308.111C258.743 308.111 243.544 309.95 228.364 309.95C212.356 309.95 196.348 309.95 180.34 309.95C146.574 309.95 113.189 311.789 79.4384 311.789C59.1275 311.789 38.8396 308.111 18.693 308.111" stroke="#1E1E1E" stroke-width="29.4275" stroke-linecap="round" stroke-linejoin="round"/>
<path d="M84.905 88.324C80.2068 100.208 76.8562 111.935 73.4098 124.189C71.6002 130.623 69.812 137.05 67.8922 143.45C66.2765 148.835 62.4203 153.436 61.1994 158.93C56.2609 181.153 41.8173 200.688 35.7058 222.689C33.0602 232.213 30.491 241.828 27.6848 251.299C26.762 254.414 25.9786 257.454 24.9259 260.495C24.4854 261.768 23.6287 263.14 23.3421 264.429C23.0342 265.815 24.4675 266.722 24.1596 268.108C21.8895 278.323 20.5322 289.133 20.5322 299.834" stroke="#1E1E1E" stroke-width="29.4275" stroke-linecap="round" stroke-linejoin="round"/>
<path d="M415.045 93.8418C403.703 93.8418 392.361 93.8418 381.019 93.8418C378.533 93.8418 376.047 93.8418 373.56 93.8418C368.215 93.8418 363.276 92.0998 358.029 92.0026C338.357 91.6383 318.646 92.0026 298.97 92.0026C291.64 92.0026 283.957 93.1548 276.644 93.7907C268.57 94.4928 260.18 93.8418 252.07 93.8418C245.683 93.8418 239.297 93.8418 232.911 93.8418C225.699 93.8418 217.038 95.1357 210.023 93.382C204.343 91.962 196.542 92.0026 190.66 92.0026C183.899 92.0026 177.138 92.0026 170.378 92.0026C163.038 92.0026 155.698 92.0026 148.358 92.0026C143.621 92.0026 135.731 93.513 131.396 91.5428C127.913 89.9594 122.757 91.2956 118.931 91.083C115.804 90.9093 112.634 90.1634 109.275 90.1634C106.136 90.1634 91.326 88.3566 90.4226 90.1634" stroke="#1E1E1E" stroke-width="29.4275" stroke-linecap="round" stroke-linejoin="round"/>
<path d="M363.547 84.6454C368.242 74.5045 370.021 57.1265 358.029 51.1307C352.285 48.2588 345.067 47.8609 338.717 47.8609C326.53 47.8609 314.52 46.9413 302.393 46.9413C290.772 46.9413 278.814 47.8609 267.039 47.8609C245.554 47.8609 223.831 48.7805 202.206 48.7805C190.61 48.7805 179.257 46.3436 167.67 46.0217C158.091 45.7556 148.639 42.622 139.162 42.3433C131.303 42.1121 124.597 38.7664 117.091 37.6941C113.724 37.2131 110.413 34.4707 107.435 33.1472C104.819 31.9845 99.8877 30.4231 97.7794 28.5491C92.5593 23.909 85.7384 20.2419 79.3872 17.9736C71.773 15.2542 61.665 16.5942 53.6381 16.5942C46.3814 16.5942 23.2968 10.8264 20.4811 20.6813C19.9353 22.5915 17.4364 26.2129 16.3939 28.0893C14.7842 30.9868 15.0145 33.5876 15.0145 36.8256C15.0145 40.3144 17.2096 43.381 16.8026 47.0435C16.0822 53.5271 15.8347 58.7099 16.8537 65.3335" stroke="#1E1E1E" stroke-width="29.4275" stroke-linecap="round" stroke-linejoin="round"/>
<path d="M15.934 43.2632C13.2487 58.3682 19.6125 74.0107 19.6125 89.1926C19.6125 98.2169 18.6928 107.042 18.6928 115.963C18.6928 131.108 17.7732 145.611 17.7732 160.513C17.7732 165.292 16.8536 170.625 16.8536 175.687C16.8536 181.157 18.4903 186.26 18.6928 191.525C18.937 197.872 18.6928 204.281 18.6928 210.632C18.6928 222.617 23.0841 234.254 21.4517 246.497" stroke="#1E1E1E" stroke-width="29.4275" stroke-linecap="round" stroke-linejoin="round"/>
</svg>
