<svg width="299" height="234" viewBox="0 0 299 234" fill="none" xmlns="http://www.w3.org/2000/svg">
<rect width="299" height="234" rx="36" fill="#3693BC"/>
<path d="M102.747 100.373C98.3937 72.6214 143.212 45.5632 166.384 61.0116C180.575 70.4724 189.572 84.4159 197.154 99.4738C204.603 114.269 213.247 135.01 200.151 149.325C188.763 161.772 174.311 171.816 157.093 172.252C141.109 172.657 123.674 169.199 113.137 156.118C106.183 147.486 102.511 136.595 99.6998 125.998C96.5582 114.156 96.0395 96.7738 101.848 85.987" stroke="#FFCD29" stroke-width="3.95696" stroke-linecap="round" stroke-linejoin="round"/>
<path d="M99.1505 165.109C105.175 166.138 104.057 165.294 98.7509 168.006C89.9806 172.489 82.0138 178.22 73.0762 182.192" stroke="#FFCD29" stroke-width="3.95696" stroke-linecap="round" stroke-linejoin="round"/>
<path d="M91.0582 141.732C80.2255 147.477 68.1548 149.627 56.8918 154.32" stroke="#FFCD29" stroke-width="3.95696" stroke-linecap="round" stroke-linejoin="round"/>
<path d="M81.168 117.456C69.4741 115.47 57.804 116.221 46.1025 114.759" stroke="#FFCD29" stroke-width="3.95696" stroke-linecap="round" stroke-linejoin="round"/>
<path d="M81.1681 88.6843C69.0123 85.8573 60.9393 69.8051 55.0938 59.9126" stroke="#FFCD29" stroke-width="3.95696" stroke-linecap="round" stroke-linejoin="round"/>
<path d="M183.667 53.6187C197.354 53.4518 205.528 48.8414 215.136 39.2329" stroke="#FFCD29" stroke-width="3.95696" stroke-linecap="round" stroke-linejoin="round"/>
<path d="M215.136 84.1887C225.977 81.8744 234.895 78.8621 243.908 72.5002" stroke="#FFCD29" stroke-width="3.95696" stroke-linecap="round" stroke-linejoin="round"/>
<path d="M209.742 115.658C217.606 116.475 226.077 116.456 233.718 118.755C239.842 120.597 245.737 122.431 252 123.75" stroke="#FFCD29" stroke-width="3.95696" stroke-linecap="round" stroke-linejoin="round"/>
<path d="M212.439 148.026C224.98 154.387 234.724 165.434 244.807 174.999" stroke="#FFCD29" stroke-width="3.95696" stroke-linecap="round" stroke-linejoin="round"/>
<path d="M195.356 179.495C199.416 186.87 202.173 194.187 205.246 201.973" stroke="#FFCD29" stroke-width="3.95696" stroke-linecap="round" stroke-linejoin="round"/>
<path d="M163.887 187.587C168.954 196.827 169.153 206.979 170.181 217.258" stroke="#FFCD29" stroke-width="3.95696" stroke-linecap="round" stroke-linejoin="round"/>
<path d="M137.812 181.293C141.358 190.822 137.712 202.914 136.913 212.762" stroke="#FFCD29" stroke-width="3.95696" stroke-linecap="round" stroke-linejoin="round"/>
<path d="M102.747 69.803C95.8663 60.5659 88.4776 51.728 81.1682 42.8296" stroke="#FFCD29" stroke-width="3.95696" stroke-linecap="round" stroke-linejoin="round"/>
<path d="M124.326 52.7194C121.314 41.1753 112.738 29.9431 107.242 19.4521" stroke="#FFCD29" stroke-width="3.95696" stroke-linecap="round" stroke-linejoin="round"/>
<path d="M157.593 45.5265C159.441 37.2077 159.621 28.7169 161.189 20.3513" stroke="#FFCD29" stroke-width="3.95696" stroke-linecap="round" stroke-linejoin="round"/>
<path d="M174.676 42.8295C182.074 34.8628 187.332 26.1547 192.658 16.7551" stroke="#FFCD29" stroke-width="3.95696" stroke-linecap="round" stroke-linejoin="round"/>
<path d="M120.729 180.394C113.003 185.662 110.247 194.71 106.343 202.872" stroke="#FFCD29" stroke-width="3.95696" stroke-linecap="round" stroke-linejoin="round"/>
<path d="M157.331 68.2209C154.921 64.8472 148.007 63.2652 144.476 65.8006C143.332 66.6215 142.354 67.8462 141.143 68.5383C139.951 69.2191 143.554 67.2105 144.833 66.7132C147.171 65.8039 149.499 64.8371 151.578 63.42C151.923 63.1843 153.819 62.0715 153.958 61.7932C154.516 60.6777 146.138 60.7219 145.745 60.7219C144.177 60.7219 143.027 61.7271 141.539 61.7932C140.079 61.8581 139.055 62.1279 137.691 62.6859C134.586 63.956 132.233 65.0599 129.478 67.0703C126.67 69.1189 123.46 71.3133 121.185 73.9344C119.811 75.5175 118.31 76.9502 116.979 78.5766C115.432 80.468 114.56 82.9969 113.408 85.1432C112.738 86.3924 110.926 90.105 111.067 88.6943C111.252 86.8463 114.206 83.9864 115.194 82.5046C117.069 79.6915 119.066 76.9432 121.264 74.3708C121.663 73.9042 123.323 72.6025 121.78 72.8829C120.276 73.1564 118.625 75.983 117.773 77.0689C115.966 79.3712 114.576 81.7523 113.428 84.4488C112.023 87.7512 110.016 91.014 108.052 94.011C106.204 96.832 105.043 100.217 104.402 103.494C104.208 104.485 102.61 110.582 103.588 107.104C104.126 105.193 104.515 103.191 105.275 101.351C105.854 99.9474 105.855 98.285 106.445 96.9868C107.361 94.9714 105.793 101.386 105.116 103.494C104.687 104.828 104.241 106.255 104.144 107.66C104.137 107.763 103.785 110.575 103.489 110.279C103.018 109.807 103.767 106.918 103.767 106.251C103.767 104.377 103.571 102.375 103.846 100.518C103.971 99.6791 104.841 96.7042 103.41 96.7884C102.677 96.8315 102.696 100.918 102.696 101.629C102.696 104.755 103.043 108.046 103.945 111.052C104.658 113.429 104.685 115.929 105.473 118.293C106.749 122.122 107.211 126.284 108.409 130.177C109.161 132.62 109.793 134.92 110.71 137.338C111.892 140.452 112.799 144.428 114.817 147.119C116.114 148.848 117.482 150.207 118.943 151.781C119.922 152.835 121.484 154.402 122.693 155.074C124.44 156.045 124.928 158.937 126.264 160.351C128.597 162.822 130.311 164.07 133.743 164.299C135.342 164.406 136.196 165.708 137.691 165.985C139.504 166.321 141.401 166.115 143.206 166.62C143.681 166.753 145.405 167.508 145.19 167.414C143.717 166.769 142.299 166.014 140.825 165.35C138.694 164.392 136.519 163.564 134.16 164.101C132.835 164.402 131.781 163.634 130.549 163.208C128.65 162.55 127.119 161.45 125.47 160.351C122.906 158.642 119.468 156.23 117.535 153.745C117.462 153.651 116.788 152.727 117.059 153.209C117.81 154.545 119.682 155.332 120.987 155.887C125.505 157.812 131.655 157.619 135.826 160.351C138.615 162.179 141.472 162.698 144.476 164.2C146.634 165.279 149.952 166.065 152.351 166.065C154.377 166.065 156.825 166.464 158.799 166.025C160.009 165.756 161.081 165.001 162.33 164.716C163.503 164.447 164.552 164.559 165.723 164.101C170.118 162.381 174.101 159.827 178.4 157.851C180.946 156.681 183.455 156.441 185.462 154.36C186.551 153.23 187.054 152.601 188.557 151.94C189.031 151.731 191.716 149.8 190.699 151.463C189.431 153.539 187.528 155.317 185.541 156.701C183.166 158.356 180.322 158.996 178.082 160.887C176.555 162.175 175.981 162.609 174.114 163.208C172.843 163.616 171.733 164.152 170.543 164.716C170.047 164.951 168.48 165.45 169.016 165.331C170.695 164.957 172.576 163.967 174.114 163.208C178.367 161.111 182.069 158.749 185.462 155.431C186.691 154.229 187.7 152.99 188.755 151.642C189.469 150.73 190.587 150.116 191.255 149.202C192.65 147.292 195.063 146.796 196.433 144.818C197.462 143.33 197.45 141.639 198.238 140.175C199.105 138.565 200.075 136.514 200.182 134.64C200.265 133.2 201.367 130.658 200.817 129.284C200.036 127.331 200.414 125.561 200.162 123.551C199.905 121.491 199.677 118.901 198.932 116.964C198.384 115.538 198.397 113.974 198.04 112.501C197.673 110.991 196.82 110.191 196.254 108.85C195.49 107.041 194.877 105.179 194.112 103.375C193.199 101.223 193.263 98.7853 191.969 96.7884C190.789 94.9676 189.609 93.6169 188.954 91.4717C188.327 89.4202 187.128 88.6016 185.938 86.9485C184.052 84.3292 183.521 80.9195 181.474 78.4179C179.917 76.5142 177.861 74.6228 176.535 72.5854C175.717 71.3297 174.568 70.9172 173.38 70.1452C171.889 69.1758 171.347 67.0381 169.829 66.237C168.957 65.7765 167.866 66.3267 166.973 65.8799C165.918 65.3528 165.099 65.4381 163.937 65.1856C162.612 64.8975 162.147 64.165 161.18 63.3009C160.398 62.6027 159.123 62.7931 158.224 62.309C156.306 61.2762 154.836 62.0946 152.689 61.6345C152.136 61.5161 148.435 63.0075 147.868 63.4001C146.929 64.0504 145.948 64.3223 144.912 64.7293C142.989 65.4848 141.631 68.5 140.27 69.927C138.692 71.5815 137.541 73.1374 137.354 75.4818C137.343 75.6104 137.186 76.3983 137.433 76.1761C138.759 74.9827 140.348 73.8793 141.857 72.9425C147.286 69.5715 153.765 68.3115 157.033 75.0255C162.115 85.4655 158.211 100.823 150.11 108.592C147.832 110.777 137.087 120.223 135.707 113.016C133.934 103.76 137.394 92.4091 141.619 84.2703C143.442 80.7589 148.83 72.4577 151.379 80.4018C152.917 85.1954 151.486 90.4694 149.594 94.9236C147.451 99.9682 144.083 107.06 139 109.842C131.017 114.212 130.306 98.3165 131.144 94.4276C132.177 89.6374 134.642 85.2728 137.334 81.235C138.177 79.9703 142.499 72.5928 144.952 73.6567C146.875 74.491 146.445 79.7944 146.38 81.1953C146.017 89.0597 143.236 96.7832 139.556 103.672C137.422 107.667 134.455 113.081 130.212 115.278C126.901 116.992 126.018 112.445 125.946 110.16C125.619 99.709 131.523 89.66 136.441 80.8779C137.208 79.5082 138.571 75.9054 139.417 77.2276C140.862 79.4855 138.536 84.2724 137.73 86.274C136.852 88.4564 125.953 110.909 122.812 104.922C121.208 101.865 122.146 97.1312 123.01 94.011C124.307 89.3288 126.916 85.0362 128.882 80.62C129.984 78.1456 130.894 75.4726 132.255 73.121C132.364 72.9321 132.732 72.5337 132.791 72.7441C133.065 73.7304 132.255 75.4676 131.938 76.2753C130.332 80.3582 128.27 84.3302 126.105 88.1388C124.348 91.2298 121.833 96.8314 118.15 98.1771C113.275 99.9583 118.403 88.0751 119.003 87.0675C121.35 83.1261 124.431 79.6468 127.335 76.1166C127.456 75.9701 130.232 72.1047 129.954 74.4899C129.565 77.8264 127.872 81.2564 126.581 84.2901C123.666 91.1439 120.352 97.8757 116.662 104.347C116.01 105.49 114.485 108.515 114.023 107.283C113.196 105.077 115.177 101.207 115.987 99.2881C118.18 94.0972 126.763 79.4978 123.863 84.3298C122.473 86.6473 121.706 89.6603 120.828 92.1859C118.891 97.7571 117.258 103.463 116.186 109.267C115.674 112.039 115.077 115.12 115.432 117.956C115.768 120.642 116.928 117.099 117.138 116.468C118.784 111.529 118.893 106.048 120.868 101.252C123.713 94.3412 108.116 128.253 111.861 121.785C112.77 120.215 113.14 118.231 113.607 116.508C114.577 112.927 115.774 109.413 116.741 105.835C117.988 101.225 115.443 103.414 114.123 106.013C113.077 108.072 112.467 110.307 111.603 112.441C111 113.931 109.331 118.273 109.282 116.667C109.132 111.702 114.163 106.825 118.606 105.874C133.617 102.664 120.511 132.78 116.86 137.735C113.005 142.968 122.467 125.439 127.613 121.468C128.733 120.603 132.073 118.163 132.533 121.031C133.026 124.108 130.878 127.492 129.597 130.097C127.945 133.455 126.268 136.8 124.22 139.937C123.566 140.94 121.568 143.755 121.78 142.576C123.016 135.703 124.417 128.581 126.442 121.904C126.93 120.295 128.488 117.455 128.267 115.695C128.221 115.322 127.741 116.242 127.553 116.567C126.366 118.628 125.329 120.784 124.24 122.896C121.649 127.922 119.172 133.007 116.583 138.033C116.113 138.945 114.337 142.248 114.559 139.164C115.087 131.833 117.771 124.044 120.312 117.202C120.725 116.091 121.974 112.826 121.879 114.008C121.66 116.752 120.04 119.755 118.963 122.221C117.756 124.987 116.491 127.719 115.353 130.514C115.262 130.736 114.48 132.642 114.48 132.577C114.48 128.65 116.168 123.818 118.011 120.436C120.087 116.627 125.866 111.247 129.061 116.885C132.95 123.747 129.349 132.658 126.343 139.045C125.122 141.64 123.909 144.341 122.455 146.821C121.04 149.234 125.239 141.969 126.661 139.56C129.282 135.119 131.88 130.589 135.548 126.903C137.264 125.18 141.141 121.399 143.94 121.666C147.931 122.046 137.184 139.844 136.342 141.108C134.585 143.743 132.768 146.745 130.509 149.003C128.889 150.623 129.877 146.72 129.974 146.385C132.915 136.213 139.705 126.24 145.944 117.857C146.302 117.375 150.997 110.385 152.232 112.917C153.613 115.748 152.019 120.651 151.141 123.332C149.15 129.414 145.923 135.065 142.69 140.552C141.555 142.479 138.877 146.846 137.532 148.805C136.912 149.708 134.792 153.453 133.009 153.15C130.857 152.783 131.639 147.567 131.799 146.424C132.652 140.323 135.336 134.376 137.929 128.847C143.196 117.617 149.721 106.341 158.025 97.0661C159.566 95.3448 161.022 93.6725 161.18 96.9868C161.412 101.864 160.308 106.823 159.017 111.489C157.788 115.934 156.407 120.713 154.137 124.761C152.096 128.4 150.343 126.758 150.427 123.293C150.698 112.193 154.776 100.417 159.315 90.4202C161.051 86.5966 162.866 82.6944 165.266 79.2313C166.365 77.6469 168.202 75.6381 168.599 78.775C169.486 85.773 168.026 96.6011 162.469 101.51C158.141 105.333 158.739 92.5944 158.918 91.3526C159.678 86.076 161.195 80.4695 164.79 76.3745C167.637 73.1326 168.284 78.3497 168.242 80.4414C168.166 84.2092 164.061 91.0414 159.91 86.6311C156.897 83.4298 158.173 78.5153 159.87 75.0255C160.586 73.5541 164.753 65.7609 166.814 69.7683C169.049 74.1137 168.979 81.4201 167.945 86.0756C167.439 88.3516 166.229 91.9585 163.679 92.7413C160.954 93.5779 159.395 89.988 158.62 88.0991C156.373 82.6178 155.532 76.3154 160.267 71.9505C165.965 66.6985 169.159 72.7034 171.595 77.8426C175.192 85.4326 177.989 94.0818 175.94 102.542C175.269 105.307 173.513 108.57 170.186 108.315C166.759 108.051 165.49 104.289 164.989 101.431C164.114 96.4408 165.015 89.2345 169.512 86.0557C175.355 81.9252 178.514 92.8859 179.391 96.5107C180.172 99.7321 180.765 103.107 180.82 106.43C180.877 109.885 180.363 115.35 177.527 117.797C176.014 119.103 174.22 117.22 173.46 116.032C171.41 112.83 170.955 108.431 171.218 104.724C171.403 102.114 171.937 98.5291 174.392 96.9868C177.172 95.2406 180.613 96.5165 182.982 98.2763C188.509 102.382 188.661 109.249 186.732 115.357C185.89 118.023 181.491 128.933 177.606 122.856C174.412 117.861 176.389 107.741 181.098 104.268C186.963 99.9409 190.318 107.749 190.104 112.58C189.87 117.891 188.478 123.458 186.176 128.252C185.028 130.643 182.824 134.973 179.53 134.601C173.651 133.937 176.873 124.012 178.915 121.388C181.179 118.481 190.056 114.72 192.366 119.682C194.8 124.911 189.699 132.3 185.898 135.414C182.425 138.261 177.419 138.282 178.717 132.498C179.866 127.377 184.217 125.396 189.053 125.396C196.609 125.396 189.697 136.182 187.644 138.886C185.782 141.339 183.633 144.393 180.8 145.809C178.325 147.047 173.668 146.946 173.876 143.131C174.214 136.948 181.304 132.544 186.513 130.851C193.764 128.495 187.875 138.566 186.097 140.632C183.087 144.127 174.89 151.329 169.77 148.031C164.612 144.709 168.614 136.884 172.964 135.037C179.657 132.195 175.799 143.883 174.491 146.186C171.818 150.896 163.518 157.463 158.244 152.376C155.194 149.435 154.207 144.99 156.597 141.385C157.878 139.454 161.336 136.549 163.878 138.251C166.383 139.929 164.71 144.914 163.957 146.98C162.634 150.607 160.024 153.509 156.28 154.657C150.051 156.568 146.501 150.458 147.729 144.877C148.696 140.481 155.023 136.031 159.454 138.886C161.703 140.335 159.393 144.225 158.442 145.71C156.469 148.79 153.409 152.049 149.892 153.328C143.225 155.752 141.519 146.091 145.19 142.258C148.189 139.127 152.471 137.411 156.696 136.862C159.33 136.52 164.593 135.638 165.128 139.382C165.728 143.588 162.883 148.055 160.545 151.245C157.612 155.247 153.628 159.145 148.285 158.883C139.01 158.428 140.924 145.065 146.221 140.909C149.741 138.148 163.965 134.502 164.235 141.842C164.547 150.342 157.737 159.076 149.554 161.026C140.485 163.187 136.082 154.582 137.949 146.722C139.33 140.906 143.001 135.785 147.134 131.585C150.392 128.275 154.583 124.253 159.037 122.618C164.093 120.762 158.699 135.297 155.585 136.862C152.198 138.565 151.571 134.497 151.935 132.26C152.73 127.373 154.858 122.29 157.43 118.095C159.284 115.072 161.682 111.406 164.81 109.545C168.653 107.259 166.333 115.233 166.02 116.389C164.433 122.253 161.988 128.312 158.283 133.172C157.45 134.265 153.429 138.787 152.292 135.315C151.562 133.086 152.562 130.102 153.363 128.054C155.071 123.691 157.919 119.782 161.477 116.746C162.486 115.885 166.618 112.13 168.322 113.235C170.34 114.544 167.893 122.508 167.449 124.126C166.551 127.396 165.176 130.709 162.767 133.172C161.108 134.869 158.219 136.246 157.371 133.014C156.44 129.47 158.982 126.023 161.219 123.57C163.343 121.243 167.24 117.198 170.682 117.083C172.96 117.007 172.362 120.737 172.15 121.964C171.37 126.492 169.077 130.988 165.822 134.244C164.226 135.84 161.553 137.873 159.077 137.259C155.999 136.496 156.572 131.488 157.351 129.383C158.327 126.744 160.528 124.218 162.826 122.638C164.755 121.312 170.078 118.952 169.869 123.332C169.631 128.324 166.387 133.034 162.291 135.672C160.586 136.77 158.999 137.536 156.954 137.457C154.988 137.382 154.385 136.069 153.046 134.997" stroke="#FFCD29" stroke-width="10.5519" stroke-linecap="round" stroke-linejoin="round"/>
<path d="M104.481 112.501C104.423 114.945 103.052 116.979 103.052 119.286C103.052 121.743 104.124 123.968 104.124 126.427" stroke="#FFCD29" stroke-width="10.5519" stroke-linecap="round" stroke-linejoin="round"/>
<path d="M104.481 118.571C105.594 121.419 106.013 124.165 106.624 127.141" stroke="#FFCD29" stroke-width="10.5519" stroke-linecap="round" stroke-linejoin="round"/>
</svg>
