<svg width="299" height="234" viewBox="0 0 299 234" fill="none" xmlns="http://www.w3.org/2000/svg">
<rect width="299" height="234" rx="36" fill="#3693BC"/>
<path d="M76.3316 129.617C75.9175 132.827 75.8269 135.975 75.8269 139.206" stroke="#BDE3FF" stroke-width="3" stroke-linecap="round" stroke-linejoin="round"/>
<path d="M200.986 129.113C201.977 133.407 201.468 137.395 200.986 141.73" stroke="#BDE3FF" stroke-width="3" stroke-linecap="round" stroke-linejoin="round"/>
<path d="M170.706 138.197C173.128 142.46 172.782 144.931 172.22 149.804" stroke="#BDE3FF" stroke-width="3" stroke-linecap="round" stroke-linejoin="round"/>
<path d="M180.295 172.01C182.204 175.889 182.209 178.916 181.809 183.113" stroke="#BDE3FF" stroke-width="3" stroke-linecap="round" stroke-linejoin="round"/>
<path d="M129.323 134.664C130.819 140.532 131.153 146.305 131.341 152.328" stroke="#BDE3FF" stroke-width="3" stroke-linecap="round" stroke-linejoin="round"/>
<path d="M99.042 141.225C100.149 144.936 100.389 148.483 100.556 152.328" stroke="#BDE3FF" stroke-width="3" stroke-linecap="round" stroke-linejoin="round"/>
<path d="M93.9954 173.524C95.3804 177.8 94.9315 180.825 93.9954 185.132" stroke="#BDE3FF" stroke-width="3" stroke-linecap="round" stroke-linejoin="round"/>
<path d="M115.192 171.505C116.359 174.635 115.812 176.844 115.696 180.085" stroke="#BDE3FF" stroke-width="3" stroke-linecap="round" stroke-linejoin="round"/>
<path d="M153.547 157.375V168.982" stroke="#BDE3FF" stroke-width="3" stroke-linecap="round" stroke-linejoin="round"/>
<path d="M69.7708 177.562C70.3384 181.616 69.6991 185.633 69.2661 189.674" stroke="#BDE3FF" stroke-width="3" stroke-linecap="round" stroke-linejoin="round"/>
<path d="M137.902 194.216C137.866 197.438 137.627 200.596 137.397 203.805" stroke="#BDE3FF" stroke-width="3" stroke-linecap="round" stroke-linejoin="round"/>
<path d="M167.173 198.253C170.647 201.814 169.267 205.872 168.687 210.366" stroke="#BDE3FF" stroke-width="3" stroke-linecap="round" stroke-linejoin="round"/>
<path d="M217.641 160.403C217.233 167.802 217.011 175.209 216.632 182.608" stroke="#BDE3FF" stroke-width="3" stroke-linecap="round" stroke-linejoin="round"/>
<path d="M195.435 192.702C195.841 195.238 195.837 197.712 195.94 200.272" stroke="#BDE3FF" stroke-width="3" stroke-linecap="round" stroke-linejoin="round"/>
<path d="M108.631 198.758V206.833" stroke="#BDE3FF" stroke-width="3" stroke-linecap="round" stroke-linejoin="round"/>
<path d="M79.3599 200.777C79.9927 206.577 78.9781 211.679 78.3506 217.431" stroke="#BDE3FF" stroke-width="3" stroke-linecap="round" stroke-linejoin="round"/>
<path d="M136.388 171.505C136.592 173.955 136.522 176.153 136.388 178.571" stroke="#BDE3FF" stroke-width="3" stroke-linecap="round" stroke-linejoin="round"/>
<path d="M152.538 132.141C152.942 135.683 152.941 139.18 153.042 142.739" stroke="#BDE3FF" stroke-width="3" stroke-linecap="round" stroke-linejoin="round"/>
<path d="M143.817 30.3344C144.511 31.0803 145.437 31.5378 146.456 31.6577C146.69 31.6853 147.041 31.7667 147.028 31.4347C146.972 29.9039 144.903 30.9935 144.345 31.4049C143.941 31.7023 142.572 32.2079 143.073 32.2079C144.646 32.2079 146.469 31.287 147.943 30.8325C148.517 30.6554 149.182 30.517 149.735 30.26C149.989 30.1415 149.169 30.3073 148.902 30.3938C148.14 30.6403 147.437 30.9823 146.761 31.4049" stroke="#BBBBBB" stroke-width="3" stroke-linecap="round"/>
<path d="M130.033 31.2714C128.529 30.8804 127.058 30.6023 125.498 30.6023C124.871 30.6023 124.299 30.5956 123.907 31.1376C123.437 31.7884 124.681 31.8768 125.052 31.9405C126.406 32.1728 128.178 32.5689 129.513 32.0446C129.943 31.8754 132.001 29.6814 130.925 29.6656C130.16 29.6543 128.561 29.9966 128.561 31.0038" stroke="#BBBBBB" stroke-width="3" stroke-linecap="round"/>
<path d="M223.697 109.935C216.181 110.08 208.792 112.963 201.295 112.963C197.855 112.963 194.323 113.565 190.893 113.861C186.7 114.221 182.469 113.72 178.276 114.085C158.067 115.842 137.492 116.84 117.21 117.001C106.455 117.086 95.6952 117.001 84.9393 117.001C76.9924 117.001 68.9979 117.083 61.1915 115.487C53.1337 113.839 47.2915 108.571 45.3503 100.374C44.1149 95.1583 46.3438 89.0588 48.9671 84.5893C50.3523 82.2294 51.8216 80.9064 53.8737 79.122C56.6538 76.7045 58.8393 73.6811 61.7242 71.3276C65.5577 68.2003 69.8321 66.0838 74.0888 63.6173C78.1176 61.2828 81.9277 59.4814 86.6496 59.0752C90.7778 58.7201 95.1703 59.3823 96.715 63.6733C97.6937 66.392 96.063 62.1131 95.7337 61.5145C94.5877 59.4308 92.3728 58.2503 91.6963 55.8228C90.9879 53.2807 91.4891 51.4676 92.986 49.4864C94.7637 47.1336 94.7143 44.1244 96.0421 41.5517C97.2452 39.2208 98.3845 37.2774 100.08 35.2433C105.319 28.956 112.627 24.1739 120.351 21.3367C127.782 18.6069 138.098 20.62 141.379 28.4582C142.435 30.9806 143.444 35.8181 142.837 38.5517C142.415 40.448 141.934 35.1005 141.94 34.7386C142.013 29.5169 146.173 26.2458 150.295 23.6077C153.059 21.8385 155.359 19.271 158.201 17.6918C161.973 15.5962 166.548 16.0189 170.706 16.0656C177.725 16.1445 184.604 22.6868 186.099 29.4956C187.74 36.9746 189.824 47.3368 185.342 54.3088C184.711 55.2892 184.354 54.882 185.622 54.421C187.371 53.785 189.103 52.8719 190.669 51.8695C194.185 49.6189 197.485 49.8789 201.491 49.8789C207.857 49.8789 215.016 53.3584 220.136 56.9724C222.772 58.8333 225.107 62.3003 225.996 65.4117C226.884 68.52 225.063 71.4473 223.697 74.1033C222.581 76.2741 221.258 77.4066 219.435 78.8977C218.047 80.0339 219.643 78.7815 220.417 78.365C224.597 76.1143 227.968 72.5826 232.781 71.9725C239.996 71.0579 248.189 76.4469 252.94 81.6734C256.502 85.5915 254.496 90.1549 251.847 93.7856C249.014 97.6671 247.367 101.252 243.379 104.131C242.061 105.084 241.1 106.552 239.734 107.412C238.286 108.324 236.03 108.804 234.407 109.431C232.856 110.03 231.322 109.752 229.753 110.188C228.354 110.576 226.903 111.449 225.463 111.449C223.983 111.449 219.66 110.577 219.66 112.459" stroke="#BBBBBB" stroke-width="3" stroke-linecap="round" stroke-linejoin="round"/>
<path d="M120.743 57.4491C121.29 56.1735 123.631 52.7668 122.65 53.7481C121.794 54.6033 121.102 55.4006 120.126 56.1593C118.964 57.0635 117.439 58.4089 115.921 57.3369C114.773 56.5266 116.04 53.9863 116.313 53.0191C116.473 52.4537 117.266 48.7095 118.107 48.5892C119.481 48.3931 116.51 50.8652 115.584 51.8976C114.982 52.5684 111.841 56.0098 112.78 53.0752C113.59 50.5457 115.057 48.3749 116.089 45.9537C117.251 43.2269 115.446 45.7532 114.855 46.6827C112.929 49.7133 111.386 53.0382 109.36 55.9911C106.233 60.5472 113.417 45.7099 115.584 40.6265C116.607 38.2256 113.653 42.7362 113.453 43.0378C111.588 45.8492 109.976 48.8551 107.958 51.5612C106.212 53.9028 107.394 49.4139 107.621 48.7574C108.619 45.8818 110.002 43.1282 110.93 40.234C111.476 38.5326 108.775 42.6683 108.631 42.9256C107.726 44.5446 106.868 47.0798 105.21 48.1406C104.707 48.4626 107.994 40.4498 107.902 39.6172C107.772 38.4445 106.437 41.4744 105.603 42.3088C105.029 42.8827 104.342 43.3985 103.584 43.7107C102.66 44.0913 103.329 41.7736 102.967 41.4116C101.16 39.6048 98.5519 45.4302 98.1448 46.3462C97.4282 47.9584 95.4103 49.9456 95.0326 51.6453C94.8413 52.5061 96.6937 49.5577 97.2756 48.8415C98.6714 47.1237 99.9567 44.9358 101.79 43.6266C102.98 42.776 100.433 46.2409 99.5186 47.3836C99.0642 47.9516 95.2873 53.4564 96.799 53.8883C98.2006 54.2888 100.367 52.1843 101.79 51.9257C103.651 51.5873 100.706 54.8096 100.304 55.15C97.9216 57.1656 97.4973 55.4354 99.827 53.9444C101.868 52.6384 106.849 51.9778 103.864 55.5425C103.354 56.1525 98.3466 59.3444 99.5466 56.9444C100.014 56.0101 103.198 53.3963 102.967 53.9163C102.406 55.1792 99.8086 58.1932 98.1448 57.6173C96.1297 56.9198 99.5466 53.4846 99.5466 53.9163C99.5466 55.1241 98.1306 55.3225 97.4158 55.8229C95.6962 57.0266 98.313 52.5286 98.313 53.5238C98.313 54.3473 95.9957 54.4388 97.1354 54.0285C100.236 52.9121 103.329 52.5068 106.612 52.15C109.316 51.8561 114.361 52.384 111.603 56.2154C110.209 58.1513 108.233 59.6966 106.192 60.8977C105.548 61.2761 103.043 62.1975 104.986 60.9537C106.29 60.1191 118.214 56.1145 117.322 59.2995C115.918 64.3151 107.755 67.1118 103.5 68.7482C99.1791 70.4101 111.146 63.5233 115.051 61.0379C117.986 59.1701 116.371 60.3479 114.743 61.907C111.249 65.252 107.447 69.0659 102.995 71.1033C99.9984 72.4748 99.3828 71.0194 101.201 68.7201C103.604 65.6806 106.569 63.0436 109.304 60.3089C109.48 60.1328 113.351 56.4863 111.322 56.7762C109.697 57.0084 107.885 57.9612 106.444 58.7107C102.794 60.6087 107.005 58.7709 107.005 57.3089C107.005 56.7735 106.262 58.0799 105.883 58.4584C105.044 59.2975 104.155 60.0723 103.388 60.9818C103.096 61.3273 101.182 63.8706 101.369 63.4211C101.667 62.706 103.956 58.0843 102.547 60.7855C102.254 61.347 99.7315 66.3484 101.313 64.7669C102.413 63.6672 102.675 62.5533 101.005 64.0379C100.123 64.8216 97.0949 69.0134 98.7896 66.0005C99.8655 64.0877 102.115 61.1429 99.827 64.7388C99.4266 65.3681 99.5363 67.6901 99.5466 67.4304C99.5979 66.1494 100.12 65.0769 100.556 63.8977C100.927 62.8934 100.796 59.9684 101.453 60.8136C102.259 61.8498 100.257 67.1124 99.3223 68.0472C96.3716 70.998 92.5695 73.9661 88.3316 74.4959C87.0316 74.6584 74.9071 76.4589 76.0512 74.1033C76.9855 72.1797 80.3418 71.867 82.1073 71.58C85.7238 70.9919 89.3541 70.3533 92.7616 68.9444C93.3395 68.7055 97.1481 66.3668 94.6681 67.7669C91.7657 69.4053 88.916 71.1198 85.9204 72.5893C85.7635 72.6663 80.9769 74.5008 81.2101 73.879C81.52 73.0526 83.4578 72.4092 84.126 72.0846C86.4768 70.9428 88.8361 70.1127 90.9672 68.5519C93.3525 66.8049 94.3004 65.374 90.6027 67.122C89.0223 67.8691 79.9029 71.3544 85.3877 67.3463C86.6252 66.442 91.0951 65.1308 89.6214 65.5519C86.4953 66.4451 83.2267 66.1541 80.2288 67.4865C79.1013 67.9876 82.6959 67.5426 83.9297 67.5426C86.0608 67.5426 88.3839 67.6831 90.3784 66.7856C92.2601 65.9388 90.926 65.2624 89.7055 64.9912C87.0168 64.3937 86.1395 63.7601 83.397 65.1313C81.6815 65.9891 86.5837 65.5403 87.3223 65.5239C88.6834 65.4936 92.3843 64.0105 91.3597 64.907C89.6498 66.4032 85.5882 64.3765 84.0139 65.636C83.3946 66.1314 76.833 68.9452 80.8736 67.9351C82.4613 67.5382 89.5804 66.1733 89.4531 64.0098C89.3545 62.3336 79.2345 66.5337 78.2381 67.4304C76.0953 69.3589 73.3892 70.4849 71.2848 72.5893C70.0137 73.8605 68.8175 75.3619 67.2474 76.2342C65.5788 77.1612 61.7461 81.2889 63.5184 80.58C65.8704 79.6392 67.9861 75.7386 69.9951 74.1314C72.484 72.1403 75.4095 70.6955 77.7895 68.58C78.3262 68.1029 81.8095 65.5351 79.8643 66.7856C77.6646 68.1996 75.2571 69.2785 73.1073 70.7669C70.2369 72.7541 67.5362 74.3192 64.9764 76.8791C64.3628 77.4927 62.3361 79.1314 63.0137 78.5893C65.38 76.6964 67.2505 74.1603 69.8829 72.5893C73.293 70.5543 77.0653 68.9391 79.7521 65.9164C82.1536 63.2148 73.5717 69.7041 70.2755 71.1874C64.8536 73.6273 61.9259 78.9202 57.9109 82.9352C55.7485 85.0976 54.2754 88.0781 52.3875 90.5053C50.6886 92.6896 53.1074 89.6405 53.6492 88.9632C56.5163 85.3794 58.9309 81.4208 61.8922 77.9445C63.3857 76.1913 64.7432 75.4646 66.7147 74.3557C69.0755 73.0277 66.2652 73.8019 65.2287 74.608C61.896 77.2001 58.8515 79.9759 55.8922 82.9352C54.0489 84.7785 52.6166 86.2048 51.6025 88.4866C50.8521 90.1748 48.1552 93.0348 48.6025 95.0474C49.0294 96.9687 49.5838 98.6163 49.5838 100.599C49.5838 103.52 51.1198 104.057 52.4997 106.403C54.6046 109.981 60.6379 110.25 64.2194 111.842C65.7617 112.527 69.4726 112.459 71.1727 112.459C74.0582 112.459 76.7057 111.954 79.612 111.954C83.0606 111.954 86.5092 111.954 89.9578 111.954C95.0035 111.954 99.8356 109.935 104.874 109.935C108.633 109.935 111.987 109.193 115.752 109.403C118.35 109.547 120.775 109.119 123.266 108.421C124.786 107.996 127.447 106.848 129.014 107.692C130.699 108.6 134.913 101.433 136.388 104.384" stroke="#BBBBBB" stroke-width="8" stroke-linecap="round" stroke-linejoin="round"/>
<path d="M219.66 84.1966C221.891 82.9289 225.273 81.1686 227.987 81.1686C230.479 81.1686 224.448 82.5761 223.473 82.8789C222.817 83.0823 217.492 83.8658 220.276 82.7947C221.902 82.1696 223.392 81.3012 225.099 80.776C227.696 79.9769 229.608 78.1899 232.501 77.6639C234.381 77.3221 239.222 76.1477 240.576 77.8882C242.84 80.8001 228.288 78.6641 233.79 75.7293C234.862 75.1575 231.473 76.6265 230.258 76.6265C228.734 76.6265 233.276 76.1218 234.8 76.1218C239.045 76.1218 243.245 76.2017 246.127 79.9069C247.812 82.0732 247.222 87.4383 245.622 89.4957C244.898 90.4263 242.297 93.9729 242.37 91.2621C242.446 88.4299 243.384 85.7084 245.903 84.5892C250.013 82.7623 250.061 89.2714 249.183 91.5144C248.557 93.1146 247.528 96.1905 245.398 96.3088C242.815 96.4523 244.849 94.8309 245.286 93.2808C245.832 91.3435 250.219 83.7471 247.417 82.0658C247.174 81.9199 249.56 82.0342 249.912 83.9723C250.042 84.6885 250.357 88.3403 249.66 88.7387C245.7 91.0013 243.778 96.6203 239.09 98.0472C237.026 98.6752 235.208 99.0181 233.174 99.8416C228.811 101.607 233.728 100.275 235.417 99.2247C236.754 98.3926 241.526 94.6799 243.267 96.421C244.409 97.5629 241.088 101.146 240.463 101.748C237.759 104.355 231.22 106.526 227.51 106.879C225.793 107.043 224.293 106.402 222.575 106.402C219.959 106.402 217.342 106.402 214.725 106.402C202.795 106.402 190.981 109.116 179.314 111.449C176.084 112.095 173.061 112.963 169.697 112.963C166.576 112.963 172.819 112.979 173.846 112.851C179.83 112.103 185.287 109.935 191.398 109.935C196.708 109.935 201.449 107.516 206.65 107.412C208.299 107.379 209.852 107.516 211.473 107.804C211.646 107.835 213.637 107.904 213.267 108.169C209.386 110.941 201.939 109.688 197.538 109.963C189.572 110.461 181.466 111.449 173.482 111.449C167.601 111.449 161.844 112.963 155.958 112.963C150.396 112.963 144.992 113.972 139.472 113.972C134.589 113.972 129.635 114.847 124.781 114.982C121.151 115.083 117.049 114.527 113.566 115.599C111.312 116.292 108.958 115.889 106.612 116.019C102.764 116.233 99.1368 117.001 95.229 117.001C90.5691 117.001 86.0525 116.496 81.3785 116.496C78.6869 116.496 75.9953 116.496 73.3037 116.496C71.6469 116.496 67.1048 114.477 68.7616 114.477" stroke="#BBBBBB" stroke-width="8" stroke-linecap="round" stroke-linejoin="round"/>
<path d="M177.267 112.458C184.837 111.016 192.72 111.782 200.258 110.412C206.496 109.278 212.758 109.43 219.155 109.43C221.498 109.43 223.882 109.56 226.22 109.43C227.388 109.366 228.585 108.486 229.753 108.421C230.957 108.354 232.537 108.415 233.538 107.636C237.525 104.535 240.856 101.166 240.856 95.8042" stroke="#BBBBBB" stroke-width="8" stroke-linecap="round" stroke-linejoin="round"/>
<path d="M240.351 90.7574C235.955 93.3953 231.565 95.9205 226.557 97.234C222.957 98.1783 219.262 98.0407 222.604 93.7294C224.099 91.8004 231.771 83.915 234.688 86.8321C238.216 90.36 227.245 96.6797 225.519 97.7107C223.521 98.9048 215.295 101.959 218.09 95.9163C219.375 93.1375 223.329 91.1708 225.828 89.7761C228.977 88.0184 232.935 85.9845 236.65 85.9349C240.594 85.8824 229.594 96.0774 228.632 96.7013C226.705 97.9508 223.058 100.398 220.557 99.449C218.515 98.6747 219.773 95.515 220.501 94.2901C223.825 88.6968 231.133 85.3244 237.351 84.5331C243.826 83.709 231.996 94.5082 230.706 95.4677C228.376 97.2014 216.618 103.842 220.585 95.4677C222.216 92.0253 225.198 89.123 228.351 87.0564C230.01 85.9694 233.944 83.384 236.146 84.0845C239.54 85.1644 231.959 94.3902 231.155 95.1873C228.706 97.6152 220.458 102.472 219.772 95.692C219.125 89.3043 230.021 89.3393 233.847 90.8695C240.713 93.6161 227.259 99.2029 225.211 99.7294C223.809 100.09 211.681 102.403 214.809 97.7107C216.735 94.822 220.149 93.2052 223.417 92.3836C225.482 91.8643 231.141 90.5844 232.753 92.8602C233.991 94.6071 230.149 97.5593 229.136 98.3275C226.032 100.683 222.396 102.042 218.538 102.505C211.519 103.347 212.044 98.6793 216.239 94.7948C222.716 88.7974 232.153 88.6373 238.22 82.7947C238.671 82.3605 240.551 81.6611 239.342 81.0564C238.041 80.4061 236.327 80.6317 234.912 80.6639C230.759 80.7583 227.109 84.4753 223.389 85.991C221.459 86.7772 219.213 88.7387 217.108 88.7387C216.357 88.7387 211.695 89.8631 212.875 88.0097C214.067 86.1364 204.878 88.7191 203.51 88.7387C197.293 88.8275 192.222 89.1574 186.351 91.7667" stroke="#BBBBBB" stroke-width="8" stroke-linecap="round" stroke-linejoin="round"/>
<path d="M213.099 78.6452C214.351 77.831 215.622 77.2251 215.622 75.6171C215.622 74.858 215.61 74.2063 216.127 73.5984C217.364 72.1424 218.762 70.5703 217.248 73.5984C216.562 74.9715 213.398 78.5254 215.734 76.0097C217.387 74.2298 218.09 71.8675 219.379 69.8414C219.643 69.4271 220.422 67.0937 220.921 67.0937C221.683 67.0937 219.583 71.6761 219.407 72.0283C218.885 73.0731 218.217 74.48 217.388 75.3087C216.474 76.2233 218.919 73.2151 219.547 72.0844C220.245 70.829 222.185 67.9266 221.566 66.533C220.543 64.2321 219.386 62.6844 217.865 60.7292C216.802 59.3623 212.343 57.6694 210.688 57.0563C207.879 56.0161 205.237 55.4301 202.276 55.4301C200.235 55.4301 197.014 54.8375 195.155 55.6825C194.286 56.0773 192.188 56.8881 191.229 56.8881C188.372 56.8881 196.652 54.9944 199.473 54.5329C200.251 54.4055 204.191 54.8557 203.005 54.9254C201.462 55.0162 199.982 55.3457 198.463 55.4301C196.358 55.5471 192.025 56.1469 190.136 57.1965C189.457 57.5737 187.401 58.4021 186.659 58.4021C184.147 58.4021 191.008 55.8355 193.36 54.9535C196.166 53.9013 195.704 54.3954 193.388 55.2058C191.498 55.8674 189.604 56.3707 187.753 57.0563C184.368 58.3101 180.677 59.5616 177.519 61.2619C173.265 63.5526 167.827 64.5805 164.65 68.5517" stroke="#BBBBBB" stroke-width="8" stroke-linecap="round" stroke-linejoin="round"/>
<path d="M177.267 56.4397C180.011 54.2778 180.102 52.6371 180.771 49.6266C181.158 47.8855 180.715 45.0856 181.557 43.5705C182.944 41.0732 181.809 46.5713 181.809 47.8602C181.809 49.7781 181.73 52.0958 180.183 53.2995C179.097 54.1437 181.393 50.8287 182.061 49.6266C182.874 48.1628 183.323 45.6967 183.323 44.0751C183.323 42.3196 183.42 40.5294 183.323 38.7761C183.261 37.6621 182.981 34.7076 182.201 33.8414C180.01 31.4064 179.611 27.2502 178.024 24.3928C177.848 24.076 176.817 23.2933 176.874 23.2433C177.39 22.7917 179.029 24.3253 179.173 24.7573C180.373 28.3559 180.514 31.5252 180.295 35.2433C180.186 37.0982 180.8 31.55 180.8 29.6919C180.8 26.8098 179.301 27.314 177.771 25.4022C177.349 24.8742 176.681 24.3188 176.005 24.1685C175.17 23.9829 178.666 25.0856 179.229 25.4302C181.717 26.9505 181.304 30.5311 181.304 32.9723C181.304 33.4116 180.38 28.9222 179.79 27.6732C178.667 25.2955 176.823 25.0683 174.743 24.0283C173.424 23.3684 171.17 23.4534 169.697 23.6638C168.692 23.8073 167.436 24.5891 166.472 24.5891C165.028 24.5891 169.109 23.4051 170.454 22.8788C172.596 22.0406 176.364 21.6171 172.22 21.6171C170.37 21.6171 168.519 21.6171 166.669 21.6171C164.981 21.6171 162.849 22.0566 161.37 22.8788C159.964 23.6595 160.603 22.86 161.65 22.4021C163.211 21.7191 165.023 21.3171 166.669 20.8601C167.359 20.6683 169.622 20.5248 170.089 19.9909C170.57 19.4413 167.264 20.0979 167.173 20.1031C165.924 20.1744 162.248 20.9144 161.229 21.7292C160 22.7124 158.174 22.8685 156.827 23.9162C155.424 25.0079 154.049 26.2184 152.818 27.4489C151.377 28.8904 155.737 23.7856 156.575 23.2433C157.585 22.5898 153.424 25.7779 152.65 26.5517C148.436 30.7658 146.397 34.489 144.463 40.2901" stroke="#BBBBBB" stroke-width="8" stroke-linecap="round" stroke-linejoin="round"/>
<path d="M204.015 54.9256C201.341 54.4502 198.627 54.3001 195.94 53.9163" stroke="#BBBBBB" stroke-width="8" stroke-linecap="round" stroke-linejoin="round"/>
<path d="M206.538 54.4207C204.187 54.0429 201.832 53.733 199.473 53.4114" stroke="#BBBBBB" stroke-width="8" stroke-linecap="round" stroke-linejoin="round"/>
<path d="M134.369 30.1964C140.491 30.0434 131.126 26.7248 129.687 25.9628C129.341 25.7796 127.778 25.6927 128.594 26.159C130.494 27.2448 132.508 27.946 134.369 29.1871C135.257 29.7786 136.893 30.6954 136.893 31.9908C136.893 32.1759 136.614 31.7444 136.5 31.5983C136.201 31.2141 136.964 31.1936 137.145 31.2338C139.311 31.7152 139.68 34.5637 137.902 31.2058C135.041 25.8006 127.361 24.3342 122.257 27.0562C120.078 28.2182 127.27 26.7931 129.575 25.9067C131.748 25.071 132.139 24.645 129.435 24.645C126.348 24.645 122.503 25.3913 119.734 26.7759C116.069 28.6083 113.102 31.3323 109.64 33.3367C107.67 34.4776 106.09 37.016 104.341 38.4956C103.345 39.3385 98.4909 44.3274 98.5374 44.3274" stroke="#BBBBBB" stroke-width="8" stroke-linecap="round" stroke-linejoin="round"/>
<path d="M121.753 35.748C119.374 38.0012 116.894 39.9614 114.183 41.8041C113.682 42.1447 108.308 45.3246 108.379 45.1126C109.041 43.1273 111.673 40.9731 113.005 39.477C115.796 36.3422 118.762 33.5237 122.426 31.4303C128.086 28.1957 120.967 33.7879 119.678 34.7948C116.967 36.9126 114.252 39.6003 110.986 40.8509C108.276 41.889 109.375 40.1068 110.566 38.9163C114.048 35.4344 118.711 31.2418 123.547 29.8041C124.276 29.5873 122.462 30.8743 121.865 31.3461C118.908 33.684 116.013 36.1753 113.285 38.7761C111.795 40.1976 109.388 42.1995 108.968 44.3836C108.692 45.8166 113.898 42.8284 114.099 42.7294C118.375 40.619 122.58 38.3536 126.968 36.477C127.212 36.3725 132.895 33.8409 132.379 35.1593C130.369 40.296 122.211 44.8724 117.547 47.0191C113.742 48.7709 115.856 46.3825 117.631 45.0285C121.106 42.3786 124.927 40.1309 128.93 38.3836C129.389 38.1834 135.064 35.4501 135.603 36.1966C136.119 36.9107 129.605 42.0194 129.211 42.3369C125.309 45.477 121.11 48.362 116.482 50.3276C115.35 50.808 111.922 51.9269 114.659 49.9911C121.21 45.3574 127.932 42.1558 135.884 40.6266C139.603 39.9114 136.056 42.5 134.958 43.4303C131.386 46.4574 127.6 49.1165 123.379 51.1687C123.25 51.2312 117.147 53.8827 117.099 53.4678C116.925 51.9904 124.39 49.2066 125.257 48.8696C130.657 46.7728 136.295 45.2447 141.828 43.5425C146.318 42.1608 142.15 45.3073 140.706 46.4303C137.227 49.136 133.421 51.387 129.323 53.0192C127.95 53.5659 119.059 57.3632 117.659 56.1033C117.112 55.6107 118.992 55.4742 119.678 55.2061C122.588 54.0685 121.405 54.5593 124.5 53.2995C130.775 50.7458 137.086 48.2205 143.23 45.3649C145.346 44.381 150.142 40.696 152.678 40.8228C153.187 40.8483 147.618 46.4391 147.323 46.6827C141.306 51.6577 120.032 61.6987 126.351 57.1126C134.284 51.3549 144.111 48.1319 152.398 42.8135C154.991 41.1493 156.556 40.0649 158.959 38.2434C159.608 37.7506 161.685 35.5884 162.688 35.1873C163.155 35.0005 162.012 35.9326 161.678 36.3088C160.035 38.1601 158.433 40.0479 156.716 41.8322C154.13 44.5181 151.277 47.3432 147.94 49.0939C146.362 49.9217 143.841 50.0318 144.912 47.5238C148.218 39.7779 156.804 35.2773 163.585 31.1499C164.14 30.8118 165.834 30.0198 165.435 30.5331C163.459 33.0738 161.056 35.4369 158.538 37.4303C156.767 38.8326 144.823 45.2795 150.127 38.9443C153.705 34.6703 159.761 29.1827 165.155 27.4489C167.379 26.7342 161.72 30.6462 159.772 31.9349C156.716 33.9566 153.29 35.3749 149.678 36.0284C144.264 37.0081 153.969 30.5041 154.977 29.9443C158.74 27.8539 162.903 25.9185 167.005 24.5891C169.089 23.9139 169.334 24.6648 168.295 26.3274C165.813 30.2987 161.659 34.6924 160.22 39.1686C159.961 39.976 162.841 38.0124 162.912 37.963C165.011 36.5095 166.82 34.6734 169.08 33.449C175.259 30.102 173.228 36.0093 170.342 39.0004C168.318 41.098 165.92 42.8696 163.192 43.935C162.212 44.3177 157.943 45.7321 158.538 43.0939C159.709 37.8957 166.628 32.1325 171.603 31.1218C179.735 29.47 172.79 39.5901 170.538 41.7761C168.294 43.9544 165.274 46.3502 162.071 46.8229C158.977 47.2793 158.328 44.1694 159.155 41.8041C161.6 34.8099 169.899 30.8078 176.314 28.4022C177.846 27.8275 178.196 28.1587 177.323 29.6359C175.207 33.2163 172.326 36.5863 169.36 39.477C167.413 41.3749 162.809 46.2639 159.547 45.2808C156.963 44.5018 159.308 40.343 160.024 39.2247C162.346 35.6008 173.247 26.9774 176.818 33.6733C180.661 40.8789 172.338 52.0959 166.669 55.5986C164.948 56.6616 161.578 58.4802 159.547 57.0005C157.15 55.2538 159.818 51.1955 161.005 49.6547C163.557 46.3424 167.3 44.1412 171.099 42.5331C171.881 42.2021 177.361 39.6891 176.818 42.477C175.408 49.7304 166.028 56.3608 160.052 59.4117C159.594 59.6455 153.156 62.8645 153.071 60.5612C152.976 58.0063 158.147 54.6749 159.828 53.4117C161.106 52.4506 176.007 44.9927 173.51 50.3276C170.159 57.4868 160.558 65.8603 152.314 65.8603C146.314 65.8603 159.411 56.6232 160.557 56.0472C163.865 54.3846 176.958 48.6461 170.734 57.0285C166.193 63.146 155.792 70.3776 147.772 69.7295C144.406 69.4576 149.071 65.4913 149.706 64.9912C153.739 61.8137 158.39 59.9726 163.248 58.4584C165.629 57.7165 169.48 55.7535 172.052 55.879C172.615 55.9064 167.135 61.4434 166.949 61.5986C161.943 65.79 156.421 69.5973 150.071 71.4118C147.653 72.1025 140.909 73.7101 139.949 69.8697C137.983 62.0072 150.88 56.2649 156.015 53.5238C156.875 53.0647 161.374 50.14 158.286 52.907C154.041 56.7094 149.577 60.2149 144.519 62.8884C139.878 65.3416 134.731 67.49 129.491 68.2155C126.575 68.6193 123.209 67.7475 125.874 64.4304C129.13 60.3784 134.479 58.2319 139.136 56.3276C143.659 54.478 148.135 52.5591 152.622 50.636C153.481 50.2678 149.564 53.7603 149.51 53.8042C144.474 57.9 139.011 61.2095 132.743 63.0566C129.973 63.8729 121.398 66.6817 118.613 64.4024C117.036 63.1124 125.145 58.7212 125.622 58.4584C130.75 55.6299 136.238 53.5954 141.603 51.2808C146.157 49.3162 144.674 49.9014 148.781 48.0285C149.413 47.7403 150.039 47.4358 150.687 47.1873C151.788 46.7657 151.483 47.0542 150.828 47.692C142.035 56.2471 131.082 65.5375 118.837 68.3276C116.112 68.9484 115.444 68.1096 117.912 66.3931C123.334 62.6212 129.956 60.1084 136.22 58.1781C137.93 57.6512 150.895 53.1699 145.893 59.0753C141.574 64.1737 136.065 68.0186 130.837 72.0847" stroke="#BBBBBB" stroke-width="8" stroke-linecap="round" stroke-linejoin="round"/>
<path d="M171.211 64.5143C172.889 62.4369 174.128 60.7244 174.856 58.1779C175.113 57.2776 175.2 57.9805 174.631 58.5704C169.96 63.4151 163.436 65.0196 157.08 66.533" stroke="#BBBBBB" stroke-width="8" stroke-linecap="round" stroke-linejoin="round"/>
<path d="M157.584 43.3179C155.329 46.9739 146.597 56.2355 148.36 52.318C149.988 48.701 155.717 44.1422 159.463 43.2058C164.352 41.9835 156.315 50.8933 155.454 51.6731C153.064 53.836 150.238 55.433 147.239 56.5797C145.052 57.4158 149.389 55.972 149.51 55.9348" stroke="#BBBBBB" stroke-width="8" stroke-linecap="round" stroke-linejoin="round"/>
<path d="M170.201 66.5333C176.062 62.9269 183.136 64.0974 189.659 65.2716C191.467 65.5969 192.16 66.095 190.332 67.2622C186.606 69.6417 182.066 70.8195 177.743 71.4679C175.805 71.7586 167.808 73.3563 166.332 71.0753C165.597 69.9398 172.52 68.6182 172.837 68.552C181.12 66.8183 189.022 65.7304 196.669 61.9071C201.443 59.52 187.707 68.4499 182.426 69.2249C180.359 69.5281 175.071 69.8961 174.267 67.0379C173.558 64.5195 178.7 64.1641 180.014 64.0099C184.973 63.4284 189.983 63.5565 194.958 63.2248C195.344 63.1992 202.21 61.8413 200.538 63.8417C195.947 69.3325 185.971 73.5281 178.949 71.1875C177.898 70.837 177.756 70.1601 178.725 69.5613C181.239 68.007 184.929 68.057 187.753 67.795C192.391 67.3647 197.023 67.0203 201.603 66.1407C203.439 65.7884 204.587 65.4678 202.809 67.4024C200.511 69.903 197.551 71.6491 194.258 72.4772C191.79 73.0977 186.433 74.3991 184.136 72.5613C182.868 71.547 188.091 69.7121 188.482 69.5613C192.13 68.1517 195.898 67.6827 199.725 67.0099C200.116 66.9411 207.247 65.5359 207.211 65.8604C207.027 67.5137 204.029 70.0393 202.921 71.0193C200.554 73.1132 197.481 74.5019 194.258 74.2716C192.445 74.1422 190.489 73.0809 191.566 71.0473C194.288 65.9051 204.426 65.6459 209.342 64.5706C213.172 63.7328 211.313 65.7992 209.566 67.823C207.44 70.2863 204.775 72.7996 201.687 73.9913C198.502 75.2207 189.848 74.6391 191.342 69.0566C192.692 64.0091 205.529 65.1727 209.286 64.9071C213.827 64.586 205.812 71.5011 204.407 72.2529C201.136 74.0033 192.33 73.5637 193.865 67.6548C195.114 62.8479 209.338 64.3241 212.818 64.6267C219.362 65.1957 207.13 73.5244 205.641 74.3838C202.729 76.0641 193.323 78.317 194.258 71.6922C194.99 66.496 206.445 66.8189 210.015 67.1501C215.009 67.6135 206.577 73.6389 205.416 74.2997C199.204 77.8371 190.214 77.497 191.089 68.1594C191.727 61.3569 204.409 62.4288 209.005 63.309C211.475 63.7819 209.775 65.6272 208.613 66.6454C205.95 68.9787 202.352 70.7999 198.8 71.1314C194.689 71.5151 188.086 67.2076 192.996 63.309C195.822 61.0643 201.515 60.0286 205.08 60.0286C206.693 60.0286 202.347 61.7421 200.987 62.608C198.516 64.1804 195.75 65.6263 193.444 67.4305C192.247 68.3672 196.319 68.044 196.669 68.0473C199.39 68.073 202.437 68.0447 204.884 69.4211C209.591 72.069 206.986 78.6434 204.183 81.6735C201.687 84.3715 198.313 86.4143 194.846 87.5894C194.318 87.7685 190.549 88.771 192.127 86.8324C195.177 83.0845 202.573 83.3961 206.818 83.8044C213.596 84.4561 204.129 90.2845 201.996 91.6549C199.907 92.9964 192.089 95.7298 196.865 90.954C200.345 87.4739 206.692 84.0071 211.697 83.552C212.237 83.5029 209.584 86.6989 209.454 86.8324C207.705 88.6258 205.789 91.0662 203.314 91.8512C201.548 92.411 200.206 91.5469 200.818 89.6362C201.591 87.2261 203.613 85.1233 205.865 84.0567C206.983 83.5272 217.521 81.89 215.174 84.4212C212.499 87.3054 203.798 95.7007 199.416 94.3465C197.591 93.7824 199.42 89.841 199.837 88.9913C201.144 86.3293 203.415 84.1046 206.145 82.9072C214.337 79.3142 211.625 88.9806 209.342 92.7764C207.087 96.5235 198.754 102.17 195.884 95.6923C193.215 89.6681 202.448 87.3794 206.426 88.4586C213.804 90.4604 210.431 97.1886 204.912 99.0007C202.904 99.6599 187.704 99.0327 190.22 94.4026C192.374 90.4397 201.143 92.237 204.099 93.5895C206.254 94.5757 207.991 96.4398 206.202 98.7203C203.856 101.708 198.982 102.352 195.519 102.73C194.381 102.854 187.823 103.772 188.201 100.851C188.472 98.7625 191.59 97.5262 193.276 97.1783C194.769 96.8702 209.006 97.296 207.351 99.3652C203.884 103.699 195.357 105.645 190.22 105.029C188.764 104.854 183.652 103.909 185.117 101.244C186.886 98.0284 192.195 96.6416 195.463 96.225C198.777 95.8026 203.853 95.6461 206.762 97.711C208.73 99.1074 203.18 101.101 202.613 101.328C198.17 103.105 193.4 103.611 188.65 103.767C185.344 103.875 178.736 104.625 175.893 102.309C174.099 100.848 179.679 99.0122 180.043 98.8886C185.544 97.0157 191.469 96.7032 197.23 97.0381C198.346 97.103 206.609 97.0574 206.79 99.1409C206.954 101.025 202.476 102.751 201.267 103.262C197.306 104.936 192.898 105.497 188.622 105.253C187.556 105.192 178.777 104.283 179.678 101.58C180.474 99.1915 189.231 99.2675 190.977 99.1689C196.669 98.8476 202.368 99.5662 208.052 99.1129C211.762 98.817 210.15 99.0905 207.659 100.683C204.248 102.864 200.734 104.824 196.949 106.29C195.086 107.012 190.509 109.206 188.594 107.552C187.044 106.213 189.803 104.373 190.725 103.879C194.241 101.997 198.303 101.564 202.22 101.412C202.547 101.399 210.66 101.225 210.519 101.861C210.304 102.827 204.589 104.222 203.987 104.412C197.84 106.353 191.705 106.763 185.342 107.412" stroke="#BBBBBB" stroke-width="8" stroke-linecap="round" stroke-linejoin="round"/>
<path d="M210.575 74.608C211.048 77.1147 210.518 78.4528 208.557 80.1594C207.141 81.391 203.84 84.0193 201.912 82.2342C197.162 77.8367 208.483 71.3645 211.08 70.0659" stroke="#BBBBBB" stroke-width="8" stroke-linecap="round" stroke-linejoin="round"/>
<path d="M180.295 86.2156C171.823 89.3661 163.247 93.1239 153.968 91.8792C153.093 91.7618 150.457 91.279 150.911 89.6362C151.685 86.8382 157.192 86.2986 159.323 86.0474C168.143 85.0076 177.16 86.5554 185.846 84.2249C188.221 83.5878 188.78 82.9637 186.239 84.4492C181.774 87.0592 177.445 89.8123 172.725 91.9633C167.728 94.24 162.502 96.0715 157.136 97.2624C153.753 98.0131 147.152 99.7407 143.846 97.4867C140.993 95.5414 147.389 92.7285 148.164 92.3838C154.002 89.7863 160.189 87.903 166.108 85.4866C171.483 83.292 176.849 81.0366 182.089 78.5333C184.601 77.3334 191.655 72.9587 189.547 74.7763C180.656 82.441 169.608 88.9862 158.397 92.4399C154.606 93.6079 149.1 95.7677 144.967 94.6268C141.27 93.6061 143.688 89.7167 145.36 88.2343C148.387 85.5499 152.39 83.9019 156.098 82.4586C163.328 79.6445 170.822 77.4712 178.164 74.9725C180.641 74.1295 185.514 71.6178 188.426 71.8604C190.863 72.0635 185.168 75.5746 183.155 76.9632C173.024 83.9514 158.934 90.0976 146.369 89.6922C145.049 89.6497 141.866 89.3457 141.631 87.4212C141.312 84.8024 146.939 82.8574 148.528 82.1782C158.925 77.7351 170.806 75.9362 180.379 69.6454C185.932 65.9965 168.466 75.5675 162.295 78.0286C156.738 80.2444 150.956 82.0808 145.024 82.9632C141.449 83.495 139.22 82.9036 135.883 82.1782" stroke="#BBBBBB" stroke-width="8" stroke-linecap="round" stroke-linejoin="round"/>
<path d="M138.912 80.1595C147.911 75.8846 157.696 73.5406 166.444 68.7202C177.116 62.8401 145.202 81.0562 133.584 84.7296C131.147 85.5002 121.101 89.3195 118.444 86.1315C116.472 83.7644 127.988 80.4262 128.762 80.1595C136.188 77.5989 143.602 75.1935 150.687 71.7482C153.745 70.2613 157.321 68.2837 160.22 66.4211C161.043 65.8925 161.836 65.3167 162.603 64.7108C163.507 63.9975 163.872 63.5533 162.575 64.1501C151.715 69.1456 141.208 75.8488 130.837 81.7857C130.648 81.8935 121.021 87.0981 124.108 86.9165C131.997 86.4525 140.549 83.1156 147.884 80.4959C156.998 77.2407 165.873 73.362 174.744 69.5052C176.791 68.6148 185.566 63.1793 188.145 64.7669C190.683 66.3282 186.733 76.5557 185.622 78.4212C181.414 85.4847 171.863 91.0252 165.211 95.2437C161.556 97.5611 157.383 100.279 152.986 100.907C146.594 101.821 154.923 96.0793 155.79 95.524C163.633 90.5047 172.14 86.7157 180.659 83.0193C186.237 80.5993 187.789 80.0005 193.164 77.552C196.305 76.1213 199.974 73.7257 203.398 72.8697C206.136 72.1851 200.35 77.6628 198.407 79.7109C191.061 87.4571 182.969 94.5401 173.398 99.4213C167.926 102.212 162.051 104.127 155.874 104.244C154.108 104.277 149.402 103.93 150.771 102.814C153.419 100.657 158.451 99.8502 161.566 98.7484C169.897 95.8013 178.156 92.6416 186.015 88.5707C187.942 87.5725 193.444 84.0825 191.622 85.2623C186.331 88.6895 181.387 92.4636 175.669 95.2156C164.727 100.482 152.895 102.334 140.93 103.375" stroke="#BBBBBB" stroke-width="8" stroke-linecap="round" stroke-linejoin="round"/>
<path d="M141.435 102.87C154.205 100.019 167.383 100.39 180.071 96.8978C181.801 96.4216 185.482 94.1533 185.37 95.9446C185.289 97.2299 183.138 99.3384 182.314 100.234C180.618 102.076 178.329 102.858 175.921 103.375C166.155 105.47 155.812 105.624 145.865 105.842C138.168 106.01 130.461 105.898 122.762 105.898" stroke="#BBBBBB" stroke-width="8" stroke-linecap="round" stroke-linejoin="round"/>
<path d="M138.407 105.393C151.406 104.8 164.01 103.401 176.762 100.851" stroke="#BBBBBB" stroke-width="8" stroke-linecap="round" stroke-linejoin="round"/>
<path d="M180.799 100.346C181.893 101.408 185.081 103.016 182.314 103.403C175.283 104.384 168.251 105.46 161.229 106.515C147.211 108.62 132.389 110.697 118.22 108.926" stroke="#BBBBBB" stroke-width="8" stroke-linecap="round" stroke-linejoin="round"/>
<path d="M168.183 105.393C155.011 108.686 140.791 106.202 127.36 106.515C119.066 106.707 110.848 107.695 102.575 106.907" stroke="#BBBBBB" stroke-width="8" stroke-linecap="round" stroke-linejoin="round"/>
<path d="M141.435 93.7855C133.493 93.4203 125.595 95.9383 117.827 97.3182C107.9 99.082 97.9199 100.543 87.8272 100.823C81.8159 100.99 90.2377 100.851 91.5281 100.851C104.915 100.851 117.858 100.048 131.061 97.5145C134.876 96.7824 141.837 96.0487 145.472 93.7294C146.704 92.9436 142.556 94.0721 141.155 94.4864C128.038 98.3643 115.046 102.971 101.453 104.944C97.8967 105.461 94.0491 105.907 90.4627 105.309C87.272 104.777 89.3748 103.801 91.0795 103.346C100.924 100.721 111.15 99.7257 121.08 97.4864C126.56 96.2506 132.039 94.8002 137.145 92.4117C138.454 91.7996 141.854 89.7951 140.426 89.5799C138.135 89.2347 134.938 90.5245 132.855 91.1219C127.229 92.7356 121.642 94.4681 115.977 95.9444C113.957 96.4708 102.58 98.831 109.304 94.0659C117.688 88.1247 128.518 85.2173 138.098 81.9256C144.139 79.8502 161.766 72.3085 155.818 74.6359C147.18 78.0162 139.334 83.7045 130.837 87.5051C126.617 89.3927 122.287 91.1499 117.799 92.2995C115.559 92.8735 108.708 93.7879 110.902 93.0565C112.305 92.5887 115.025 93.1394 116.369 93.1687C122.761 93.3076 129.098 92.8491 135.379 91.5986C141.907 90.2988 148.298 88.3788 154.556 86.1313C156.86 85.3042 163.397 82.0565 161.398 83.4677C152.976 89.4121 142.249 93.5071 132.631 96.9257C127.376 98.7937 122.006 100.441 116.482 101.3C115.738 101.415 108.131 102.749 107.397 101.356C106.72 100.069 110.136 100.362 111.547 100.01C117.056 98.6326 122.594 97.3766 128.089 95.9444C133.962 94.4137 139.825 92.7804 145.472 90.5331C148.544 89.3109 152.826 87.7453 155.313 85.3462C156.433 84.267 152.307 86.2021 150.912 86.8883C144.153 90.2125 137.427 93.6638 130.781 97.2061C126.581 99.4445 122.442 101.748 118.668 104.664C117.3 105.722 114.22 109.38 114.435 107.664C114.582 106.484 116.412 104.943 117.154 104.272C120.722 101.044 125.015 98.6572 129.435 96.8135C134.87 94.5462 140.563 92.92 146.257 91.4584C146.597 91.3711 154.31 88.7969 155.342 90.0285C157.337 92.4125 137.001 102.788 135.379 103.43C129.859 105.617 121.578 108.249 115.472 106.795C114.74 106.621 116.793 106.04 117.519 105.842C121.387 104.787 125.32 104.003 129.211 103.038C134.507 101.724 141.994 100.24 146.285 96.5612C150.331 93.0931 136.856 101.555 131.958 103.655C126.876 105.833 118.582 108.673 113.229 105.561C109.06 103.137 121.017 98.8878 122.257 98.3276" stroke="#BBBBBB" stroke-width="8" stroke-linecap="round" stroke-linejoin="round"/>
<path d="M137.902 75.1125C129.025 81.063 118.649 86.3174 108.547 89.8042C106.871 90.3824 102.167 92.2217 100.416 90.6453C98.9786 89.3519 106.081 85.5599 106.612 85.2061" stroke="#BBBBBB" stroke-width="8" stroke-linecap="round" stroke-linejoin="round"/>
<path d="M143.453 66.533C128.864 76.5076 111.717 86.72 93.4905 86.72" stroke="#BBBBBB" stroke-width="8" stroke-linecap="round" stroke-linejoin="round"/>
<path d="M135.379 64.0098C128.349 67.9234 121.655 72.2006 114.239 75.393C105.671 79.0808 96.9687 82.4268 88.4441 86.2155" stroke="#BBBBBB" stroke-width="8" stroke-linecap="round" stroke-linejoin="round"/>
<path d="M125.285 65.019C112.318 74.0737 95.7807 81.3563 79.8645 82.6827" stroke="#BBBBBB" stroke-width="8" stroke-linecap="round" stroke-linejoin="round"/>
<path d="M113.173 67.0377C114.804 66.438 119.677 64.6083 118.108 65.3554C115.219 66.7309 112.033 67.6531 109.079 68.8882C97.8393 73.5886 86.9594 78.576 75.3223 82.1779" stroke="#BBBBBB" stroke-width="8" stroke-linecap="round" stroke-linejoin="round"/>
<path d="M106.108 70.5704C107.431 70.0764 113.508 67.9249 108.575 69.2807C100.507 71.4979 92.5832 74.5644 84.799 77.6078C79.8023 79.5614 74.7717 81.5706 70.0233 84.0845C69.9005 84.1495 69.5892 84.4241 69.7148 84.3649C72.0305 83.2726 74.3456 82.3685 76.7803 81.5611C81.6958 79.9311 86.8487 77.2722 91.9766 76.4583C95.4307 75.91 86.2019 80.4802 83.0046 81.8975C77.4329 84.3675 71.4374 86.0157 65.5653 87.6172C60.8908 88.8921 65.3651 87.3785 67.2195 86.6079C73.6668 83.9285 80.3212 81.6687 86.6775 78.7854C93.5567 75.665 85.2001 77.091 82.7803 77.6358C78.4853 78.6029 74.2053 79.7131 69.8831 80.5517C68.4578 80.8283 61.7043 82.3195 66.2102 80.2714C69.7607 78.6575 73.1715 76.682 76.556 74.748C77.369 74.2834 71.8703 76.2563 70.7803 76.6265C69.3701 77.1054 67.9495 77.565 66.5746 78.1405C66.5681 78.1433 63.8697 79.4555 64.1915 79.5985C66.192 80.4876 69.8556 79.4343 71.9578 79.262C74.7096 79.0365 70.6175 82.4084 70.1634 82.7947C66.9531 85.527 64.0409 88.1307 60.2101 89.9724C59.5808 90.2749 53.7476 92.1323 56.7895 91.178C64.0443 88.902 71.6132 87.4846 79.0233 85.8228C83.8032 84.7508 89.139 84.2326 93.715 82.4022C98.5709 80.4599 83.5882 85.0536 78.6308 86.72C72.6459 88.7317 66.817 91.4404 60.6307 92.7761C60.2612 92.8559 59.149 93.0589 59.5092 92.9443C62.1494 92.1043 64.9618 91.6706 67.6961 91.2901C76.0989 90.121 84.5121 90.7287 92.958 90.449C95.7884 90.3553 98.6554 90.2266 101.453 89.7481C102.898 89.501 98.7741 90.9366 97.4159 91.4864C88.9429 94.9159 80.0794 98.106 71.0606 99.7294C70.1559 99.8923 62.0649 100.987 67.1915 99.7294C72.8759 98.3351 78.6356 97.4624 84.4626 96.9257C88.5451 96.5496 92.6334 96.249 96.715 95.8602C99.1717 95.6263 101.269 95.3173 97.9486 96.9537C91.1703 100.294 84.3881 102.549 76.9485 103.879C74.5443 104.309 66.9705 106.785 64.6681 105.141C64.2161 104.818 65.7411 104.827 66.2943 104.776C68.4317 104.58 70.5685 104.455 72.7149 104.412C79.5902 104.273 87.1168 105.308 93.8832 103.879C97.65 103.083 86.1885 104.387 82.3878 105C76.5762 105.939 70.3563 107.476 64.4158 106.851C61.05 106.497 65.9461 105.052 66.6588 104.916C72.1367 103.873 78.7812 103.84 84.2944 104.608C88.8397 105.241 81.9032 106.348 80.9579 106.374C75.2319 106.531 69.3021 106.321 63.6587 105.281C63.4864 105.249 58.0919 104.117 60.0139 103.374C63.7388 101.935 68.793 103.694 72.5466 104.103C73.9458 104.256 82.3661 105.086 76.2756 104.86C72.2251 104.71 68.2593 103.779 64.2195 103.486C63.8171 103.457 57.0568 103.092 59.6213 102.365C62.6256 101.513 65.9828 100.669 69.1261 100.879C71.7884 101.056 68.2088 102.233 67.5279 102.365C64.3 102.989 60.7191 103.097 57.5466 102.113C55.5212 101.484 57.4425 100.463 58.4438 99.8416C61.2137 98.1223 63.9048 96.1923 66.855 94.7948C68.131 94.1904 71.4219 91.9911 72.799 91.9911C73.0807 91.9911 72.804 92.5649 72.7149 92.8322C72.2375 94.2642 70.5147 95.0228 69.2662 95.5799C65.4465 97.2841 60.4786 99.2247 56.2288 99.2247C54.608 99.2247 59.3107 96.5158 59.7896 96.3088C63.1628 94.8513 66.946 94.4698 70.584 94.3182C74.8369 94.141 68.2863 94.9841 67.3597 95.1873C64.5509 95.8033 61.6915 96.1526 58.8924 96.8135C58.714 96.8556 55.2809 97.7333 56.4531 96.5612C57.0008 96.0135 60.8545 92.6554 57.6307 94.0658C56.1751 94.7027 54.9552 95.6413 53.397 95.9163C52.9359 95.9977 48.7267 96.8318 50.8176 96.5051C53.6403 96.064 56.4195 95.5457 59.1727 94.7948" stroke="#BBBBBB" stroke-width="8" stroke-linecap="round" stroke-linejoin="round"/>
<path d="M68.7615 80.6638C66.2021 81.9696 64.1279 83.7468 61.696 85.2059" stroke="#BBBBBB" stroke-width="8" stroke-linecap="round" stroke-linejoin="round"/>
<path d="M88.444 66.533C84.0459 67.4289 80.0412 69.6115 76.3318 72.0844" stroke="#BBBBBB" stroke-width="8" stroke-linecap="round" stroke-linejoin="round"/>
<path d="M85.9207 64.0098C83.3153 64.8938 80.799 65.8136 78.3506 67.0378" stroke="#BBBBBB" stroke-width="8" stroke-linecap="round" stroke-linejoin="round"/>
<path d="M84.4063 63.5049C82.0516 64.7053 79.7711 65.996 77.3408 67.0376" stroke="#BBBBBB" stroke-width="8" stroke-linecap="round" stroke-linejoin="round"/>
<path d="M83.9019 63.5049C81.4961 65.1241 79.1559 66.8121 76.8364 68.5516" stroke="#BBBBBB" stroke-width="8" stroke-linecap="round" stroke-linejoin="round"/>
<path d="M89.4533 62.4956C86.5391 64.1077 83.7155 65.8126 80.8738 67.5424" stroke="#BBBBBB" stroke-width="8" stroke-linecap="round" stroke-linejoin="round"/>
<path d="M115.696 55.4302C113.731 56.6914 111.969 58.0346 110.145 59.4676" stroke="#BBBBBB" stroke-width="8" stroke-linecap="round" stroke-linejoin="round"/>
<path d="M117.715 47.3555C115.487 49.3411 113.976 51.571 112.164 53.9162" stroke="#BBBBBB" stroke-width="8" stroke-linecap="round" stroke-linejoin="round"/>
<path d="M102.466 95.3712C103.334 95.1331 104.193 94.8907 105.038 94.5831C105.088 94.5651 104.596 94.7805 104.503 94.8359C104.341 94.9322 103.393 95.8883 103.968 95.505C104.188 95.3584 104.985 95.0043 104.34 95.1332C103.858 95.2295 103.537 95.4218 103.537 95.9064" stroke="#BBBBBB" stroke-width="3" stroke-linecap="round"/>
<path d="M140.337 37.8284C140.786 37.5729 141.565 37.392 141.542 36.7875C141.521 36.2391 139.671 36.4584 139.311 36.5125C137.992 36.7103 138.875 39.4342 140.144 39.4342C140.872 39.4342 141.878 36.5048 140.739 36.6314C140.225 36.6885 139.861 37.3463 139.809 37.8135C139.794 37.952 139.79 38.3885 139.936 38.096" stroke="#BBBBBB" stroke-width="3" stroke-linecap="round"/>
<path d="M115.179 26.1858C113.545 26.2238 111.728 27.1717 110.733 28.4607C110.229 29.1139 109.709 29.7772 108.964 30.1707C108.583 30.3721 108.12 30.5681 107.886 30.9587C107.634 31.3783 107.622 31.7231 107.209 32.0442C105.987 32.9947 104.102 32.8204 103.031 33.9771C102.146 34.9327 101.931 36.7228 101.931 37.962" stroke="#BBBBBB" stroke-width="3" stroke-linecap="round"/>
<path d="M132.576 21.77C133.02 22.0409 133.787 23.0713 134.286 23.1082C134.877 23.152 135.158 23.5377 135.713 23.6435C136.784 23.8475 136.59 24.9432 136.59 25.7846" stroke="#BBBBBB" stroke-width="3" stroke-linecap="round"/>
</svg>
