<svg width="915" height="693" viewBox="0 0 915 693" fill="none" xmlns="http://www.w3.org/2000/svg">
<path d="M571.974 540C571.892 543.338 570.276 548.513 567.623 550.635C564.212 553.364 569.372 554.406 571.007 554.502C578.259 554.929 556.438 560.377 549.523 558.154C544.729 556.614 537.033 556.798 533.302 553.481C530.33 550.84 528.632 550.635 524.708 550.635C522.842 550.635 521.28 552.262 519.552 552.139C514.325 551.765 507.516 543.835 503.331 541.182C496.322 536.737 486.632 532.289 478.248 531.406C468.259 530.355 460.291 534.144 451.876 538.818C444.783 542.759 419.783 543.55 427.868 542.847C437.282 542.028 446.863 541.129 456.227 539.893C468.483 538.274 482.751 532.608 495.167 534.414C496.07 534.545 507.433 538.868 503.761 540.967C496.625 545.044 489.355 548.256 480.88 547.52C474.762 546.988 469.672 543.878 463.908 542.148C461.672 541.478 459.183 542.028 456.872 541.45C453.388 540.579 449.793 541.28 446.291 540.483C441.635 539.425 436.787 538.141 432.003 538.066C429.286 538.024 424.333 537.054 422.121 539.033C420.109 540.833 418.581 541.456 415.837 541.934C407.427 543.396 400.122 547.357 392.15 550.098C381.798 553.656 370.251 554.158 359.762 556.489C353.743 557.827 347.658 558.369 341.393 558.369C334.377 558.369 329.964 550.793 327.858 545.317C322.769 532.085 326.45 516.563 333.176 504.981C343.549 487.116 357.585 469.96 360.998 448.799C362.916 436.904 347.095 457.69 345.261 459.81C336.802 469.584 323.937 492.197 323.937 492.197C323.937 492.197 338.371 464.278 346.496 450.84C348.816 447.003 358.219 438.383 353.908 439.615C351.174 440.396 347.755 449.004 346.496 451.27C342.571 458.336 337.617 465.695 334.733 473.238C330.885 483.303 326.191 492.763 321.789 502.51C317.39 512.25 313.499 520.925 311.906 531.675C311.739 532.804 311.003 543.687 309.006 543.438C307.316 543.226 307.09 535.031 307.072 533.77C306.967 526.161 308.132 519.351 311.852 512.608C313.252 510.071 322.745 499.081 326.193 504.121C329.794 509.384 327.375 522.005 327.375 527.969C327.375 533.12 325.063 541.913 330.49 534.79C340.813 521.242 348.112 505.183 356.379 490.371C360.497 482.992 364.793 475.579 370.129 468.994C371.293 467.557 376.062 461.476 376.467 466.846C377.014 474.122 374.339 482.015 372.385 488.867C368.576 502.218 364.047 515.37 357.614 527.7C356.725 529.405 354.257 535.892 352.243 537.1C351.583 537.496 352.626 535.6 352.941 534.898C355.268 529.715 358.112 524.75 360.89 519.805C372.47 499.194 384.211 478.652 396.34 458.36C398.56 454.645 397.599 459.678 397.306 460.83C394.462 472.016 388.163 482.401 382.052 492.036C373.579 505.399 348.601 545.51 354.982 531.03C366.093 505.817 386.524 482.881 404.933 462.871C408.452 459.047 412.86 453.738 417.716 451.377C422.39 449.105 417.464 461.929 415.783 466.846C412.507 476.425 408.566 486.384 402.785 494.776C397.312 502.718 388.532 514.649 378.937 517.925C375.772 519.006 380.642 511.299 382.59 508.579C388.521 500.295 395.324 492.662 402.14 485.108C412.189 473.971 422.422 462.906 433.293 452.559C442.165 444.114 436.962 453.982 434.367 458.789C427.156 472.148 417.965 484.138 407.726 495.313C398.793 505.063 388.956 516.235 377.326 522.92C377.237 522.971 362.384 529.861 366.047 524.961C374.571 513.557 387.5 503.879 398.112 494.561C408.389 485.537 418.959 476.85 429.318 467.92C432.214 465.424 437.085 461.56 432.541 468.135C418.786 488.036 398.463 502.829 380.334 518.408C380.006 518.69 377.198 521.1 376.574 521.953C376.215 522.445 377.709 521.473 378.185 521.094C385.895 514.945 392.93 507.857 400.207 501.221C412.617 489.904 425.023 478.44 438.126 467.92C440.503 466.013 456.287 453.176 453.38 465.611C451.243 474.753 444.041 483.222 437.858 489.888C426.484 502.15 412.422 513.047 397.199 520.127C396.143 520.618 385.749 525.071 388.068 519.053C391.534 510.059 405.056 502.404 412.453 497.407C423.628 489.859 435.522 483.312 447.311 476.782C448.919 475.892 454.264 472.661 456.925 472.217C459.188 471.84 458.717 473.409 458.107 474.795C454.803 482.304 445.912 488.159 439.523 492.627C427.527 501.016 414.589 507.337 400.851 512.285C400.172 512.53 395.798 513.958 394.621 514.649C394.248 514.868 395.375 515.251 395.802 515.186C404.151 513.901 412.292 509.377 419.865 505.947C433.118 499.945 446.293 493.76 459.611 487.901C461.36 487.131 480.28 477.253 473.576 487.31C465.458 499.487 444.112 514.961 428.673 513.467C424.264 513.04 424.614 510.05 427.707 507.988C437.168 501.681 449.906 499.176 460.578 495.85C473.245 491.902 485.966 487.156 498.927 484.248C506.22 482.613 505.31 486.618 501.398 491.123C487.005 507.697 460.065 514.753 438.878 512.339C434.617 511.854 432.349 510.646 437.965 509.492C447.43 507.548 456.872 505.829 466.271 503.53C480.191 500.126 493.945 496.102 507.843 492.627C513.455 491.224 523.018 489.796 516.115 498.106C508.094 507.76 486.774 520.5 473.683 514.863C471.42 513.889 477.341 511.285 479.699 510.567C494.722 505.987 509.477 500.929 524.01 494.937C538.29 489.049 531.592 491.598 544.635 486.021C545.971 485.449 552.547 482.309 555.27 482.368C560.031 482.472 550.846 491.037 547.32 494.238C539.916 500.963 531.734 507.017 522.506 510.996C518.576 512.691 516.584 513.203 512.623 514.165C510.838 514.599 505.856 514.487 507.306 515.615C509.02 516.949 517.492 513.838 518.907 513.467C531.378 510.198 543.531 505.531 556.129 502.779C561.785 501.543 567.606 501.135 563.058 508.096C557.295 516.917 548.963 525.387 539.532 530.225C534.936 532.582 528.932 534.51 523.741 533.018C520.37 532.048 522 530.12 524.171 528.936C530.519 525.473 537.868 523.499 544.796 521.631C555.867 518.646 568.514 514.326 580.084 514.326C586.127 514.326 580.519 519.652 578.741 521.255C573.273 526.186 566.64 529.511 559.566 531.46C555.071 532.698 549.569 533.822 544.903 532.695C540.983 531.749 551.29 530.128 551.349 530.117C558.416 528.789 565.395 527.101 572.403 525.498C574.797 524.951 586.433 520.61 588.839 522.705C590.729 524.352 581.489 530.958 580.997 531.299C573.734 536.335 565.226 540.04 556.344 540.698C554.958 540.801 547.03 541.468 546.407 538.98C545.909 536.988 553.657 534.436 554.464 534.092C558.642 532.309 598.923 519.729 597.755 525.928C596.881 530.565 588.588 534.814 585.079 536.67C578.677 540.055 571.441 542.239 564.132 541.504C547.921 539.873 553.367 518.738 555.27 508.096C559.25 485.836 564.84 463.793 566.066 441.119C566.072 441.003 566.231 435.29 566.334 435.479C569.034 440.429 570.601 446.004 571.759 451.485C573.644 460.409 574.785 469.587 575.626 478.662C576.102 483.797 577.82 492.575 574.659 497.354C570.255 504.011 559.19 473.898 558.492 471.949C556.61 466.69 554.436 461.334 553.336 455.835C552.261 450.46 555.525 454.638 556.72 456.748C559.835 462.252 561.677 468.391 563.273 474.473C564.502 479.158 569.015 490.913 566.388 495.689C564.607 498.927 561.394 490.124 559.728 486.826C555.341 478.145 551.172 469.293 547.482 460.293C544.24 452.388 541.5 444.291 538.834 436.177C538.701 435.772 535.844 427.489 538.78 431.827C545.458 441.691 548.471 454.526 551.993 465.772C556.891 481.407 542.868 434.299 538.136 418.614C534.658 407.086 531.124 395.573 527.716 384.024C527.708 383.997 524.451 370.688 524.493 370.704C527.92 371.95 531.813 384.252 532.926 386.817C538.805 400.369 544.074 414.313 548.878 428.282C550.282 432.363 555.219 443.718 551.993 440.85C548.333 437.596 545.88 430.257 543.937 426.026C534.733 405.984 526.7 385.364 517.672 365.225C513.247 355.354 526.527 384.967 530.992 394.82C535.496 404.757 540.128 414.833 542.486 425.542C544.617 435.218 541.407 434.242 536.739 427.315C522.611 406.35 514.62 382.127 501.29 360.821C499.357 357.731 494.735 351.841 496.671 359.854C500.775 376.844 507.71 393.391 513.59 409.805C519.653 426.727 525.832 443.642 530.402 461.045C531.839 466.518 536.843 481.33 532.335 477.91C525.802 472.954 521.806 459.827 518.639 452.881C510.091 434.135 502.054 415.124 494.523 395.948C491.766 388.929 489.665 381.26 486.359 374.463C484.441 370.522 488.873 382.863 490.226 387.032C494.412 399.93 498.079 412.985 501.398 426.133C502.906 432.106 504.96 440.611 506.124 446.758C506.79 450.274 508.988 458.202 507.413 462.066C505.673 466.339 502.32 454.251 500.861 449.873C496.729 437.479 493.82 424.655 490.817 411.954C488.199 400.885 486.085 389.653 483.19 378.653C480.583 368.746 482.182 385.308 482.277 386.28C484.668 410.767 487.699 435.651 487.433 460.293C487.354 467.58 485.269 464.175 483.781 459.541C478.859 444.221 476.095 428.061 472.877 412.33C470.145 398.973 467.565 385.566 463.908 372.422C463.77 371.929 461.071 359.924 460.846 368.018C460.011 398.093 464.545 428.162 466.164 458.145C466.376 462.091 466.504 473.691 465.197 469.961C461.951 460.702 461.673 449.955 460.792 440.313C459.271 423.659 457.881 407 456.173 390.362C456.103 389.679 454.444 373.813 454.24 371.993C453.931 369.233 453.515 361.216 452.575 363.829C448.804 374.303 450.369 390.199 449.352 400.889C448.146 413.571 447.074 423.565 444.84 436.016C444.533 437.729 442.684 449.147 440.275 452.505C438.314 455.239 436.732 434.708 436.73 434.62C436.326 418.777 437.109 403.101 439.738 387.461C441.868 374.789 440.877 382.261 442.96 370.167C443.479 367.154 445.677 363.464 443.82 361.036C443.439 360.537 434.77 381.269 434.474 382.09C430.134 394.146 426.013 406.329 420.617 417.969C418.748 421.999 413.008 435.656 412.13 423.501C410.292 398.02 419.022 374.162 422.926 349.434C424.122 341.861 418.378 364.079 416.105 371.402C409.946 391.249 402.656 410.692 393.009 429.141C389.952 434.988 386.921 439.775 387.746 430.752C389.131 415.601 392.625 400.512 396.125 385.743C399.003 373.594 402.164 361.502 405.363 349.434C407.941 339.709 402.443 358.517 402.355 358.78C394.188 383.094 385.521 407.992 380.226 433.116C380.038 434.009 378.746 442.897 378.83 442.354C380.502 431.482 381.958 420.58 383.556 409.698C385.574 395.96 388.733 382.437 390.807 368.716C390.927 367.922 393.98 346.419 387.585 357.706C381.979 367.598 379.034 379.346 375.768 390.147C372.356 401.432 367.539 413.605 366.154 425.381C365.517 430.797 370.415 415.325 372.062 410.127C376.595 395.82 379.974 381.211 383.449 366.622C386.451 354.02 389.906 341.449 392.257 328.702C393.98 319.365 392.803 323.04 390.861 329.776C383.941 353.78 377.899 377.646 374.909 402.501C374.607 405.008 372.17 415.258 373.942 417.915C374.46 418.692 375.068 416.406 375.446 415.552C377.53 410.841 379.202 405.934 380.978 401.104C391.66 372.059 398.406 342.991 399.992 311.944C400.176 308.331 400.324 302.614 399.884 298.624C399.794 297.802 399.939 296.081 399.132 296.261C398.782 296.339 397.404 314.536 397.306 315.167C395.005 330.071 382.472 373.598 385.275 358.78C388.524 341.606 400.264 325.65 407.082 309.796C412.115 298.092 414.637 285.493 418.039 273.272C419.083 269.52 419.255 270.842 418.146 273.917C414.77 283.277 410.676 292.484 406.652 301.578C403.985 307.604 401.155 313.54 398.273 319.464C396.08 323.972 400.949 316.049 401.066 315.811C409.831 297.994 414.637 277.174 419.005 257.911C419.111 257.448 420.307 251.737 420.617 250.553C420.804 249.839 420.862 248.102 421.476 248.512C422.268 249.04 418.249 257.708 418.146 257.965C415.838 263.736 413.677 269.665 410.627 275.099C409.819 276.538 406.59 279.948 406.867 278.321C409.563 262.481 422.044 216.15 415.783 230.948C412.064 239.738 409.257 249.372 406.706 258.556C406.289 260.057 403.752 274.23 403.752 269.835C403.752 257.616 406.652 245.62 406.652 233.365C406.652 229.718 404.66 233.877 404.181 235.138C401.614 241.907 398.976 248.578 396.984 255.548C394.313 264.896 396.859 252.279 397.467 249.479C398.798 243.359 400.861 234.298 405.685 230.411C408.528 228.121 410.17 223.527 413.957 222.838C417.827 222.134 419.053 217.368 422.336 215.909C425.281 214.6 427.304 211.781 430.07 210.109C432.919 208.386 435.957 208.146 439.04 206.94C445.954 204.234 458.696 203.942 464.66 208.605C469.763 212.594 476.034 214.346 481.095 218.273C485.555 221.733 489.848 225.514 494.147 229.176C503.787 237.388 511.812 244.183 517.833 255.763C523.239 266.159 530.126 276.782 531.368 288.58C531.953 294.134 533.048 299.637 533.248 305.23C533.419 310.005 533.361 314.893 532.657 319.625C532.521 320.545 529.306 331.862 528.683 329.991C526.719 324.1 526.058 316.773 524.816 310.655C522.502 299.256 520.118 288.074 516.383 277.032C513.003 267.039 509.997 257.493 505.265 248.028C501.764 241.026 498.556 234.237 495.651 226.974C494.334 223.681 487.322 213.354 491.945 209.571C493.56 208.25 498.233 217.285 498.712 218.058C503.535 225.841 505.913 232.992 506.178 242.281C506.53 254.59 505.683 266.952 506.823 279.234C508.327 295.453 509.992 311.375 508.917 327.735C508.577 332.913 509.073 346.968 504.513 350.616C503.53 351.402 503.33 337.385 503.385 336.007C503.499 333.159 504.815 319.85 510.529 322.364C517.349 325.365 515.9 345.312 515.9 351.046C515.9 352.591 516.129 367.702 511.281 365.762C507.379 364.202 516.149 346.18 517.35 343.956C521.297 336.646 523.324 337.826 522.452 345.782C521.777 351.948 520.648 359.189 517.726 364.742C515.038 369.849 510.266 367.879 508.38 363.399C503.094 350.844 506.456 334.097 499.41 322.471C494.959 315.126 487.134 337.851 486.359 340.089C484.654 345.009 483.838 350.117 482.492 355.128C481.999 356.962 482.186 351.331 482.277 349.434C482.989 334.573 485.248 290.212 482.33 304.801C479.23 320.304 477.373 337.435 469.547 351.475C468.99 352.474 465.44 358.972 463.693 355.557C458.885 346.16 459.474 331.564 459.074 321.29C458.736 312.645 459.477 303.79 458.429 295.186C457.903 290.87 456.15 289.029 454.025 293.79C446.798 309.984 444.48 328.54 439.63 345.513C437.805 351.901 437.4 346.467 437.213 343.043C436.742 334.36 437.542 325.702 438.126 317.047C438.948 304.877 440.321 292.464 439.845 280.255C439.574 273.304 436.585 285.167 436.408 285.841C433.082 298.463 431.671 317.032 422.98 327.413C419.958 331.022 423.293 317.967 424.162 313.341C427.164 297.343 431.778 281.685 434.528 265.646C434.634 265.027 436.771 247.223 437.482 247.223C438.12 247.223 436.476 262.945 436.461 263.067C434.963 275.426 432.548 287.636 429.479 299.698C428.517 303.481 428.157 307.577 426.149 310.924C423.734 314.949 428.245 301.771 429.425 297.227C432.219 286.471 434.672 275.641 437.052 264.786C437.77 261.513 440.488 248.888 441.349 245.128C441.863 242.884 441.652 240.194 443.175 238.468C444.402 237.077 443.905 242.107 444.142 243.946C444.527 246.931 444.41 250.074 443.82 253.023C442.937 257.439 442.505 251.438 442.477 250.768C442.276 245.936 442.486 241.012 444.787 236.642C449.669 227.366 454.047 233.139 458.268 239.811C462.296 246.178 465.116 255.129 463.156 262.691C461.793 267.948 460.763 252.826 460.792 251.681C460.922 246.728 467.749 228.967 472.179 240.939C476.806 253.44 477.891 273.932 469.87 285.196C462.754 295.189 458.107 282.951 458.107 275.958C458.107 271.272 462.466 249.753 470.997 252.755C477.525 255.052 475.54 273.65 474.65 278.321C474.156 280.912 472.464 287.541 468.527 287.13C462.817 286.533 465.533 276.153 466.217 273.272C467.201 269.129 470.259 257.26 474.328 266.075C475.488 268.589 481.113 289.278 478.195 287.774C473.994 285.61 475.034 275.545 475.724 271.983C476.204 269.507 482.806 253.838 485.392 261.832C487.821 269.34 488.588 279.05 487.326 286.808C485.987 295.03 483.956 276.342 483.995 274.132C484.028 272.304 486.689 254.87 487.863 262.208C488.265 264.72 488.722 267.285 488.722 269.835C488.722 274.591 488.311 274.62 484.962 275.099" stroke="#E5B2AE" stroke-width="35.5301" stroke-linecap="round" stroke-linejoin="round"/>
<path d="M763.353 134.236C773.115 136.247 782.956 138.034 792.68 140.229C793.75 140.471 795.124 140.673 796.105 141.193C796.471 141.387 785.572 140.364 783.903 140.015C779.666 139.13 766.73 138.089 771.059 138.089C772.472 138.089 774.056 137.889 775.448 138.142C782.789 139.477 790.935 142.488 798.031 142.905C811.758 143.712 823.931 150.649 837.525 152.591C843.606 153.46 849.289 156.322 855.078 158.103C860.843 159.877 866.158 160.661 871.722 163.134C885.412 169.219 893.395 172.675 893.395 189.142" stroke="#1E1E1E" stroke-width="35.5301" stroke-linecap="round" stroke-linejoin="round"/>
<path d="M381.897 219.967C390.744 207.935 398.951 195.837 413.899 190.855C421.097 188.455 427.518 185.794 434.877 184.112C443.236 182.201 451.534 184.326 459.922 184.326C475.944 184.326 493.972 192.48 508.086 199.738C520.789 206.271 528.403 220.8 536.984 231.526" stroke="#1E1E1E" stroke-width="35.5301" stroke-linecap="round" stroke-linejoin="round"/>
<path d="M159.099 136.622C162.689 135.921 167.014 134.693 170.67 134.693C173.051 134.693 174.58 136.271 176.992 135.175C182.47 132.685 187.952 132.764 193.814 132.764C199.338 132.764 204.615 131.8 210.314 131.8C216.622 131.8 222.415 129.872 228.528 129.872C240.404 129.872 252.308 130.403 263.993 130.836C271.621 131.118 279.25 133.729 286.868 133.729C293.258 133.729 299.772 134.596 305.886 136.407C312.111 138.252 318.671 138.683 324.958 140.479C329.92 141.897 336.502 142.585 340.386 146.265C344.622 150.277 349.251 152.312 352.494 157.408C355.735 162.5 359.271 167.337 361.387 173.051C365.541 184.268 369.557 195.75 372.958 207.229C376.824 220.278 374.137 234.229 374.137 247.462C374.137 253.839 370.914 262.802 368.351 268.73C366.415 273.207 366.275 278.37 364.494 282.98C362.822 287.308 361.646 292.151 360.637 296.695C358.959 304.244 354.278 310.062 351.744 317.159C350.554 320.491 348.12 323.451 346.172 326.374C344.075 329.52 343.113 333.916 340.869 336.659C335.9 342.732 332.282 350.165 327.851 356.695C322.734 364.236 317.148 370.004 310.44 375.874C304.24 381.299 297.936 386.162 291.422 391.196C284.648 396.429 276.727 398.994 269.082 402.339C255.781 408.158 241.721 407.808 227.617 409.571C213.191 411.374 198.992 416.267 184.171 416.267C169.423 416.267 154.633 412.41 139.813 412.41C132.069 412.41 124.146 411.225 116.67 409.303C109.148 407.369 102.796 403.264 95.6697 400.624C89.422 398.31 85.6069 391.452 79.5982 389.267C73.4026 387.014 67.9098 377.375 63.6337 372.874C53.6861 362.403 50.7935 349.046 45.0978 336.231C39.9311 324.606 37.6978 311.538 33.9549 299.373C30.7428 288.934 26.804 276.512 26.0262 265.623C25.4873 258.079 22.4037 250.621 21.2583 243.176C20.2227 236.445 22.0279 227.771 20.0261 221.265C18.4462 216.131 17.762 209.553 18.3654 204.122C18.7722 200.461 20.2404 196.786 20.2404 193.086C20.2404 190.592 19.7169 187.449 20.4547 185.051C23.0966 176.465 28.4612 167.109 38.562 166.515C45.3198 166.117 53.1246 162.561 59.348 160.783C74.2658 156.52 89.9875 153.64 105.581 150.175C126.446 145.539 148.51 145.237 170.135 142.354C184.527 140.435 198.882 139.515 213.582 139.515C223.043 139.515 232.39 137.586 241.814 137.586C250.243 137.586 258.671 137.586 267.1 137.586C286.417 137.586 304.063 138.625 322.976 142.407C329.786 143.769 336.914 146.666 343.494 148.943C347.083 150.186 356.501 154.108 357.744 157.836" stroke="#1E1E1E" stroke-width="35.5301" stroke-linecap="round" stroke-linejoin="round"/>
<path d="M152.005 134.38C142.243 136.392 132.403 138.179 122.679 140.374C121.608 140.616 120.235 140.818 119.254 141.337C118.887 141.531 129.787 140.509 131.455 140.16C135.693 139.275 148.628 138.234 144.299 138.234C142.886 138.234 141.302 138.034 139.911 138.287C132.57 139.622 124.423 142.633 117.327 143.05C103.601 143.857 91.4271 150.794 77.8331 152.736C71.7529 153.605 66.0693 156.467 60.2801 158.248C54.5153 160.022 49.2005 160.806 43.6369 163.279C29.946 169.364 21.9632 172.82 21.9632 189.287" stroke="#1E1E1E" stroke-width="35.5301" stroke-linecap="round" stroke-linejoin="round"/>
<path d="M357.815 102.447C360.118 71.1984 353.527 41.06 346.256 10.9365" stroke="#1E1E1E" stroke-width="13.3238" stroke-linecap="round" stroke-linejoin="round"/>
<path d="M345.293 97.6311C348.569 83.2154 343.335 68.4139 340.476 54.2838C338.002 42.0541 335.125 29.9266 332.77 17.6794" stroke="#1E1E1E" stroke-width="13.3238" stroke-linecap="round" stroke-linejoin="round"/>
<path d="M326.99 96.6678C328.652 85.5127 324.617 73.7454 322.655 62.8462C320.412 50.3837 318.592 37.8384 316.394 25.3856" stroke="#1E1E1E" stroke-width="13.3238" stroke-linecap="round" stroke-linejoin="round"/>
<path d="M307.725 91.8514C310.283 82.8976 309.202 74.4637 307.297 65.4149C304.324 51.2969 301.051 37.7599 299.055 23.459" stroke="#1E1E1E" stroke-width="13.3238" stroke-linecap="round" stroke-linejoin="round"/>
<path d="M292.313 89.9247C292.125 69.4865 289.419 49.4383 286.533 29.2385" stroke="#1E1E1E" stroke-width="13.3238" stroke-linecap="round" stroke-linejoin="round"/>
<path d="M270.157 90.8882C273.083 80.7454 270.516 69.5518 269.194 59.3142C267.727 47.9531 266.128 36.8014 265.341 25.3856" stroke="#1E1E1E" stroke-width="13.3238" stroke-linecap="round" stroke-linejoin="round"/>
<path d="M249.929 92.8148C250.416 75.9865 248.502 59.381 246.236 42.7246C245.561 37.7658 245.087 32.7116 243.186 28.2755" stroke="#1E1E1E" stroke-width="13.3238" stroke-linecap="round" stroke-linejoin="round"/>
<path d="M231.626 87.0351C235.127 64.0339 225.685 40.6267 223.92 17.6794" stroke="#1E1E1E" stroke-width="13.3238" stroke-linecap="round" stroke-linejoin="round"/>
<path d="M214.287 89.925C211.601 68.661 204.063 48.0638 198.875 27.3123" stroke="#1E1E1E" stroke-width="13.3238" stroke-linecap="round" stroke-linejoin="round"/>
<path d="M198.875 88.9616C199.672 80.8342 196.72 73.1641 194.434 65.4685C190.582 52.5059 187.444 39.5186 184.426 26.3489" stroke="#1E1E1E" stroke-width="13.3238" stroke-linecap="round" stroke-linejoin="round"/>
<path d="M183.463 91.8514C182.4 68.7406 172.881 46.0041 168.05 23.459" stroke="#1E1E1E" stroke-width="13.3238" stroke-linecap="round" stroke-linejoin="round"/>
<path d="M224.883 84.1453C224.412 61.9971 213.153 39.9539 207.544 18.6427" stroke="#1E1E1E" stroke-width="13.3238" stroke-linecap="round" stroke-linejoin="round"/>
<path d="M285.57 84.1453C283.232 66.6112 279.505 49.4592 275.937 32.1285" stroke="#1E1E1E" stroke-width="13.3238" stroke-linecap="round" stroke-linejoin="round"/>
<path d="M261.488 84.1452C262.603 76.1761 261.06 68.5668 259.775 60.7055C258.547 53.1876 258.242 45.4965 257.635 37.9081" stroke="#1E1E1E" stroke-width="13.3238" stroke-linecap="round" stroke-linejoin="round"/>
<path d="M336.623 81.2555C332.735 64.8713 329.147 48.4645 325.063 32.1285" stroke="#1E1E1E" stroke-width="13.3238" stroke-linecap="round" stroke-linejoin="round"/>
<path d="M314.468 74.5127C319.154 65.3631 310.245 52.902 306.762 44.6512" stroke="#1E1E1E" stroke-width="13.3238" stroke-linecap="round" stroke-linejoin="round"/>
<path d="M169.977 83.1818C171.08 62.8888 164.317 41.5934 161.307 21.5323" stroke="#1E1E1E" stroke-width="13.3238" stroke-linecap="round" stroke-linejoin="round"/>
<path d="M152.638 34.0552C156.123 51.2889 157.95 68.8057 161.307 86.0719" stroke="#1E1E1E" stroke-width="13.3238" stroke-linecap="round" stroke-linejoin="round"/>
<path d="M137.226 30.2021C143.048 47.6702 140.745 67.9867 143.005 86.072" stroke="#1E1E1E" stroke-width="13.3238" stroke-linecap="round" stroke-linejoin="round"/>
<path d="M121.813 26.3489C126.316 48.1859 127.882 70.5675 128.556 92.8147" stroke="#1E1E1E" stroke-width="13.3238" stroke-linecap="round" stroke-linejoin="round"/>
<path d="M128.556 43.688C131.699 56.7999 133.312 69.8673 135.299 83.1822" stroke="#1E1E1E" stroke-width="13.3238" stroke-linecap="round" stroke-linejoin="round"/>
<path d="M109.291 30.2021C114.454 50.5686 116.047 72.0613 118.923 92.8149" stroke="#1E1E1E" stroke-width="13.3238" stroke-linecap="round" stroke-linejoin="round"/>
<path d="M96.768 36.9451C99.9105 52.1614 100.576 67.7184 101.584 83.1822" stroke="#1E1E1E" stroke-width="13.3238" stroke-linecap="round" stroke-linejoin="round"/>
<path d="M102.548 39.8347C104.036 53.9764 105.734 68.0929 107.364 82.2187" stroke="#1E1E1E" stroke-width="13.3238" stroke-linecap="round" stroke-linejoin="round"/>
<path d="M85.209 35.0184C88.132 56.7785 89.8205 78.6741 91.9519 100.521" stroke="#1E1E1E" stroke-width="13.3238" stroke-linecap="round" stroke-linejoin="round"/>
<path d="M72.6862 39.8347C75.8852 60.8946 78.8743 82.1567 80.3924 103.411" stroke="#1E1E1E" stroke-width="13.3238" stroke-linecap="round" stroke-linejoin="round"/>
<path d="M76.5395 47.5409C78.9751 56.8148 79.9755 66.0105 81.3559 75.4758" stroke="#1E1E1E" stroke-width="13.3238" stroke-linecap="round" stroke-linejoin="round"/>
<path d="M61.1271 47.5409C69.0639 66.1297 69.4879 87.4264 71.7231 107.264" stroke="#1E1E1E" stroke-width="13.3238" stroke-linecap="round" stroke-linejoin="round"/>
<path d="M54.3843 49.4675C58.2683 69.9467 63.8924 93.2685 61.1273 114.007" stroke="#1E1E1E" stroke-width="13.3238" stroke-linecap="round" stroke-linejoin="round"/>
<path d="M44.7514 49.4675C47.2724 69.6352 47.7825 89.8772 48.6045 110.154" stroke="#1E1E1E" stroke-width="13.3238" stroke-linecap="round" stroke-linejoin="round"/>
<path d="M32.2286 47.5409C33.9394 65.1619 34.4755 82.8398 35.1185 100.521" stroke="#1E1E1E" stroke-width="13.3238" stroke-linecap="round" stroke-linejoin="round"/>
<path d="M35.1187 56.2104C36.5867 70.034 38.3003 83.8268 39.9351 97.6312" stroke="#1E1E1E" stroke-width="13.3238" stroke-linecap="round" stroke-linejoin="round"/>
<path d="M21.6325 46.5776C22.4348 61.0183 24.8014 75.3362 26.7164 89.6573C27.6758 96.8317 28.8012 102.722 26.4489 109.19" stroke="#1E1E1E" stroke-width="13.3238" stroke-linecap="round" stroke-linejoin="round"/>
<path d="M12 51.3942C12.3904 66.6178 15.4336 81.6534 17.7796 96.668" stroke="#1E1E1E" stroke-width="13.3238" stroke-linecap="round" stroke-linejoin="round"/>
<path d="M238.634 48.2291V66.5619" stroke="#1E1E1E" stroke-width="13.3238" stroke-linecap="round" stroke-linejoin="round"/>
<path d="M237.107 49.757C238.015 57.5879 238.635 65.2987 238.635 73.1822C238.635 80.5269 238.635 78.1895 238.635 72.588C238.635 67.1293 238.705 61.6655 238.635 56.2074C238.617 54.8228 236.579 46.489 237.446 45.5133C239.423 43.2892 240.162 64.0038 240.162 65.7133C240.162 70.3641 243.307 82.152 240.162 71.1452" stroke="#1E1E1E" stroke-width="13.3238" stroke-linecap="round" stroke-linejoin="round"/>
<path d="M295.16 48.2293C296.442 56.3068 299.743 80.5121 299.743 72.3334C299.743 64.8186 299.874 57.5175 298.555 50.0965C296.756 39.9753 299.822 59.0638 300.083 61.6393C300.524 65.9911 303.293 78.7374 299.743 68.0898" stroke="#1E1E1E" stroke-width="13.3238" stroke-linecap="round" stroke-linejoin="round"/>
<path d="M146.971 54.3401C147.793 59.7904 148.498 76.3177 148.498 70.8056C148.498 65.5465 147.527 60.1938 146.631 55.019C144.699 43.8543 145.443 67.7778 145.443 71.1451" stroke="#1E1E1E" stroke-width="13.3238" stroke-linecap="round" stroke-linejoin="round"/>
<path d="M175.997 52.8122C177.171 55.9182 182.127 71.8461 182.448 70.8055C184.951 62.6698 182.278 55.229 182.278 47.1257C182.278 40.8557 185.164 59.443 185.164 65.713C185.164 70.7223 185.415 75.3606 187.031 68.0895C187.764 64.7924 186.515 51.9124 188.559 50.0962C189.749 49.0383 192.802 66.7516 192.802 68.7685C192.802 80.4214 197.84 47.5186 201.629 54.3399C204.177 58.9256 203.012 64.445 204.685 69.2777C205.753 72.3636 207.841 59.9236 207.995 58.1593C208.854 48.2785 210.679 58.4711 211.05 62.7424C211.937 72.9438 211.402 68.1323 213.002 61.1298C215.555 49.9616 220.301 73.0159 220.301 63.4214C220.301 57.5188 218.039 53.7017 218.859 61.8937C219.286 66.1697 221.829 69.8622 221.829 74.2004" stroke="#1E1E1E" stroke-width="13.3238" stroke-linecap="round" stroke-linejoin="round"/>
<path d="M345.5 44.4232C349.334 54.7277 350.181 67.4533 350.494 78.3831C350.557 80.607 349.495 83.8095 349.495 79.4929C349.495 69.7386 348.655 59.8535 347.275 50.1941C346.66 45.8874 346.498 41.7745 346.498 37.4314C346.498 34.1948 345.427 35.8424 344.723 34.435C344.44 33.8692 344.214 32.1691 344.723 31.6605C345.611 30.7719 345.713 36.7965 345.722 36.8765C347.038 48.7216 351.493 60.4334 351.493 72.3902" stroke="#1E1E1E" stroke-width="13.3238" stroke-linecap="round" stroke-linejoin="round"/>
<path d="M560.285 98.511C557.982 67.2619 564.573 37.1235 571.844 7" stroke="#1E1E1E" stroke-width="13.3238" stroke-linecap="round" stroke-linejoin="round"/>
<path d="M572.807 93.6946C569.531 79.2788 574.765 64.4774 577.624 50.3473C580.098 38.1176 582.975 25.9901 585.33 13.7429" stroke="#1E1E1E" stroke-width="13.3238" stroke-linecap="round" stroke-linejoin="round"/>
<path d="M591.11 92.7313C589.448 81.5762 593.483 69.8089 595.445 58.9097C597.688 46.4472 599.508 33.9019 601.706 21.4491" stroke="#1E1E1E" stroke-width="13.3238" stroke-linecap="round" stroke-linejoin="round"/>
<path d="M610.375 87.9149C607.817 78.9611 608.898 70.5272 610.803 61.4784C613.775 47.3604 617.049 33.8234 619.044 19.5225" stroke="#1E1E1E" stroke-width="13.3238" stroke-linecap="round" stroke-linejoin="round"/>
<path d="M625.788 85.9886C625.975 65.5503 628.682 45.5022 631.567 25.3024" stroke="#1E1E1E" stroke-width="13.3238" stroke-linecap="round" stroke-linejoin="round"/>
<path d="M647.943 86.9517C645.017 76.8089 647.584 65.6153 648.906 55.3777C650.373 44.0166 651.972 32.8649 652.759 21.4491" stroke="#1E1E1E" stroke-width="13.3238" stroke-linecap="round" stroke-linejoin="round"/>
<path d="M668.172 88.8783C667.684 72.05 669.598 55.4445 671.864 38.7881C672.539 33.8292 673.014 28.7751 674.915 24.339" stroke="#1E1E1E" stroke-width="13.3238" stroke-linecap="round" stroke-linejoin="round"/>
<path d="M686.474 83.0986C682.974 60.0974 692.415 36.6902 694.18 13.7429" stroke="#1E1E1E" stroke-width="13.3238" stroke-linecap="round" stroke-linejoin="round"/>
<path d="M703.812 85.9885C706.498 64.7244 714.037 44.1273 719.225 23.3757" stroke="#1E1E1E" stroke-width="13.3238" stroke-linecap="round" stroke-linejoin="round"/>
<path d="M719.225 85.0251C718.428 76.8976 721.381 69.2276 723.667 61.5319C727.518 48.5694 730.656 35.5821 733.674 22.4124" stroke="#1E1E1E" stroke-width="13.3238" stroke-linecap="round" stroke-linejoin="round"/>
<path d="M734.637 87.9149C735.7 64.8041 745.219 42.0676 750.05 19.5225" stroke="#1E1E1E" stroke-width="13.3238" stroke-linecap="round" stroke-linejoin="round"/>
<path d="M693.217 80.2088C693.688 58.0606 704.947 36.0174 710.556 14.7062" stroke="#1E1E1E" stroke-width="13.3238" stroke-linecap="round" stroke-linejoin="round"/>
<path d="M632.531 80.2088C634.868 62.6747 638.595 45.5227 642.163 28.192" stroke="#1E1E1E" stroke-width="13.3238" stroke-linecap="round" stroke-linejoin="round"/>
<path d="M656.613 80.2087C655.497 72.2396 657.041 64.6303 658.325 56.769C659.554 49.2511 659.859 41.56 660.466 33.9716" stroke="#1E1E1E" stroke-width="13.3238" stroke-linecap="round" stroke-linejoin="round"/>
<path d="M581.477 77.319C585.365 60.9348 588.952 44.528 593.036 28.192" stroke="#1E1E1E" stroke-width="13.3238" stroke-linecap="round" stroke-linejoin="round"/>
<path d="M603.632 70.5759C598.946 61.4263 607.855 48.9652 611.338 40.7145" stroke="#1E1E1E" stroke-width="13.3238" stroke-linecap="round" stroke-linejoin="round"/>
<path d="M748.123 79.2456C747.02 58.9525 753.783 37.6571 756.792 17.5961" stroke="#1E1E1E" stroke-width="13.3238" stroke-linecap="round" stroke-linejoin="round"/>
<path d="M765.462 30.1185C761.977 47.3523 760.15 64.869 756.793 82.1353" stroke="#1E1E1E" stroke-width="13.3238" stroke-linecap="round" stroke-linejoin="round"/>
<path d="M780.875 26.2654C775.052 43.7334 777.356 64.0499 775.095 82.1352" stroke="#1E1E1E" stroke-width="13.3238" stroke-linecap="round" stroke-linejoin="round"/>
<path d="M796.287 22.4124C791.785 44.2494 790.218 66.631 789.544 88.8782" stroke="#1E1E1E" stroke-width="13.3238" stroke-linecap="round" stroke-linejoin="round"/>
<path d="M789.544 39.7511C786.401 52.863 784.789 65.9304 782.801 79.2453" stroke="#1E1E1E" stroke-width="13.3238" stroke-linecap="round" stroke-linejoin="round"/>
<path d="M808.809 26.2654C803.646 46.6318 802.053 68.1246 799.176 88.8781" stroke="#1E1E1E" stroke-width="13.3238" stroke-linecap="round" stroke-linejoin="round"/>
<path d="M821.332 33.0085C818.189 48.2248 817.524 63.7819 816.515 79.2457" stroke="#1E1E1E" stroke-width="13.3238" stroke-linecap="round" stroke-linejoin="round"/>
<path d="M815.553 35.8982C814.064 50.0399 812.366 64.1564 810.736 78.2822" stroke="#1E1E1E" stroke-width="13.3238" stroke-linecap="round" stroke-linejoin="round"/>
<path d="M832.891 31.0817C829.968 52.8418 828.28 74.7373 826.148 96.5842" stroke="#1E1E1E" stroke-width="13.3238" stroke-linecap="round" stroke-linejoin="round"/>
<path d="M845.414 35.8982C842.215 56.9581 839.226 78.2202 837.707 99.4742" stroke="#1E1E1E" stroke-width="13.3238" stroke-linecap="round" stroke-linejoin="round"/>
<path d="M841.561 43.6044C839.125 52.8783 838.125 62.074 836.745 71.5393" stroke="#1E1E1E" stroke-width="13.3238" stroke-linecap="round" stroke-linejoin="round"/>
<path d="M856.973 43.6044C849.036 62.1932 848.612 83.4899 846.377 103.327" stroke="#1E1E1E" stroke-width="13.3238" stroke-linecap="round" stroke-linejoin="round"/>
<path d="M863.716 45.531C859.832 66.0102 854.208 89.332 856.973 110.07" stroke="#1E1E1E" stroke-width="13.3238" stroke-linecap="round" stroke-linejoin="round"/>
<path d="M873.349 45.531C870.828 65.6987 870.318 85.9407 869.496 106.217" stroke="#1E1E1E" stroke-width="13.3238" stroke-linecap="round" stroke-linejoin="round"/>
<path d="M885.871 43.6044C884.161 61.2254 883.624 78.9032 882.982 96.5844" stroke="#1E1E1E" stroke-width="13.3238" stroke-linecap="round" stroke-linejoin="round"/>
<path d="M896.468 42.641C895.665 57.0817 893.299 71.3996 891.384 85.7207C890.424 92.8951 889.299 98.785 891.651 105.254" stroke="#1E1E1E" stroke-width="13.3238" stroke-linecap="round" stroke-linejoin="round"/>
<path d="M906.099 47.4576C905.709 62.6813 902.666 77.7169 900.32 92.7315" stroke="#1E1E1E" stroke-width="13.3238" stroke-linecap="round" stroke-linejoin="round"/>
<path d="M679.465 44.2926V62.6253" stroke="#1E1E1E" stroke-width="13.3238" stroke-linecap="round" stroke-linejoin="round"/>
<path d="M680.993 45.8201C680.085 53.651 679.465 61.3618 679.465 69.2453C679.465 76.5901 679.465 74.2526 679.465 68.6512C679.465 63.1925 679.395 57.7286 679.465 52.2705C679.483 50.8859 681.521 42.5521 680.654 41.5764C678.677 39.3523 677.938 60.0669 677.938 61.7764C677.938 66.4272 674.793 78.2151 677.938 67.2083" stroke="#1E1E1E" stroke-width="13.3238" stroke-linecap="round" stroke-linejoin="round"/>
<path d="M622.939 44.2928C621.657 52.3703 618.356 76.5756 618.356 68.3969C618.356 60.8821 618.225 53.5809 619.544 46.16C621.344 36.0388 618.277 55.1273 618.017 57.7028C617.576 62.0546 614.807 74.8009 618.356 64.1532" stroke="#1E1E1E" stroke-width="13.3238" stroke-linecap="round" stroke-linejoin="round"/>
<path d="M771.129 50.4035C770.306 55.8539 769.601 72.3811 769.601 66.8691C769.601 61.61 770.573 56.2573 771.469 51.0825C773.401 39.9178 772.657 63.8412 772.657 67.2085" stroke="#1E1E1E" stroke-width="13.3238" stroke-linecap="round" stroke-linejoin="round"/>
<path d="M742.102 48.8757C740.929 51.9817 735.972 67.9096 735.652 66.8689C733.149 58.7332 735.822 51.2925 735.822 43.1891C735.822 36.9191 732.936 55.5065 732.936 61.7765C732.936 66.7857 732.685 71.4241 731.069 64.153C730.336 60.8559 731.584 47.9759 729.541 46.1597C728.351 45.1018 725.297 62.8151 725.297 64.832C725.297 76.4848 720.26 43.5821 716.47 50.4034C713.923 54.9891 715.088 60.5085 713.415 65.3412C712.347 68.427 710.258 55.9871 710.105 54.2227C709.246 44.342 707.421 54.5346 707.049 58.8059C706.162 69.0073 706.698 64.1958 705.097 57.1933C702.545 46.0251 697.798 69.0793 697.798 59.4849C697.798 53.5822 700.06 49.7651 699.241 57.9572C698.813 62.2332 696.27 65.9257 696.27 70.2639" stroke="#1E1E1E" stroke-width="13.3238" stroke-linecap="round" stroke-linejoin="round"/>
<path d="M572.6 40.4865C568.766 50.791 567.918 63.5166 567.606 74.4464C567.542 76.6703 568.605 79.8729 568.605 75.5562C568.605 65.802 569.444 55.9169 570.824 46.2575C571.44 41.9507 571.601 37.8378 571.601 33.4948C571.601 30.2581 572.673 31.9057 573.377 30.4983C573.66 29.9326 573.885 28.2325 573.377 27.7238C572.488 26.8353 572.387 32.8599 572.378 32.9399C571.062 44.7849 566.607 56.4967 566.607 68.4535" stroke="#1E1E1E" stroke-width="13.3238" stroke-linecap="round" stroke-linejoin="round"/>
<path d="M296.238 597.002C296.238 618.322 297.149 639.654 296.458 660.965C296.333 664.824 293.838 677.711 299.206 670.196" stroke="#1E1E1E" stroke-width="13.3238" stroke-linecap="round" stroke-linejoin="round"/>
<path d="M310.086 602.936C309.822 620.606 307.922 637.815 309.646 655.525C310.192 661.136 311.315 666.639 311.954 672.23C312.086 673.38 312.064 675.7 312.064 673.164" stroke="#1E1E1E" stroke-width="13.3238" stroke-linecap="round" stroke-linejoin="round"/>
<path d="M304.151 616.784C305.955 634.819 306.129 653.069 306.129 671.186" stroke="#1E1E1E" stroke-width="13.3238" stroke-linecap="round" stroke-linejoin="round"/>
<path d="M325.911 617.773C323.675 631.748 324.017 646.52 323.933 660.635C323.906 665.195 323.211 677.039 325.911 666.24" stroke="#1E1E1E" stroke-width="13.3238" stroke-linecap="round" stroke-linejoin="round"/>
<path d="M320.966 626.675C318.047 637.961 319.44 651.955 321.955 663.273" stroke="#1E1E1E" stroke-width="13.3238" stroke-linecap="round" stroke-linejoin="round"/>
<path d="M343.716 622.719C345.431 636.975 346.89 652.107 345.474 666.46C345.34 667.824 344.779 670.197 345.694 670.197" stroke="#1E1E1E" stroke-width="13.3238" stroke-linecap="round" stroke-linejoin="round"/>
<path d="M340.748 621.73V670.197" stroke="#1E1E1E" stroke-width="13.3238" stroke-linecap="round" stroke-linejoin="round"/>
<path d="M337.78 632.61C337.609 646.46 337.146 660.307 336.791 674.153" stroke="#1E1E1E" stroke-width="13.3238" stroke-linecap="round" stroke-linejoin="round"/>
<path d="M332.835 633.599C339.585 642.037 335.289 652.877 332.835 662.284" stroke="#1E1E1E" stroke-width="13.3238" stroke-linecap="round" stroke-linejoin="round"/>
<path d="M330.857 628.654C331.875 639.521 332.261 650.397 332.835 661.294" stroke="#1E1E1E" stroke-width="13.3238" stroke-linecap="round" stroke-linejoin="round"/>
<path d="M360.531 614.806C362.292 633.957 361.643 653.408 357.563 672.175" stroke="#1E1E1E" stroke-width="13.3238" stroke-linecap="round" stroke-linejoin="round"/>
<path d="M361.519 613.817C357.491 631.351 360.715 650.128 355.585 667.229" stroke="#1E1E1E" stroke-width="13.3238" stroke-linecap="round" stroke-linejoin="round"/>
<path d="M353.607 622.719C355.137 638.529 355.256 654.383 356.574 670.197" stroke="#1E1E1E" stroke-width="13.3238" stroke-linecap="round" stroke-linejoin="round"/>
<path d="M371.411 610.849C373.344 629.348 371.411 647.713 371.411 666.24" stroke="#1E1E1E" stroke-width="13.3238" stroke-linecap="round" stroke-linejoin="round"/>
<path d="M376.356 613.817C375.266 628.361 374.437 642.858 374.378 657.448C374.361 661.669 373.487 672.273 375.367 674.153" stroke="#1E1E1E" stroke-width="13.3238" stroke-linecap="round" stroke-linejoin="round"/>
<path d="M390.204 604.915C392.197 622.104 392.615 639.508 391.578 656.789C391.332 660.881 390.959 666.709 389.215 670.197" stroke="#1E1E1E" stroke-width="13.3238" stroke-linecap="round" stroke-linejoin="round"/>
<path d="M391.193 606.893C388.996 621.389 386.903 635.713 385.807 650.359C385.751 651.112 384.55 672.591 383.28 666.24" stroke="#1E1E1E" stroke-width="13.3238" stroke-linecap="round" stroke-linejoin="round"/>
<path d="M402.074 605.904C410.201 616.182 409.681 633.082 410.316 645.523C410.64 651.862 411.86 661.504 408.998 667.229" stroke="#1E1E1E" stroke-width="13.3238" stroke-linecap="round" stroke-linejoin="round"/>
<path d="M408.997 601.947C411.789 622.664 417.737 646.503 412.954 667.229" stroke="#1E1E1E" stroke-width="13.3238" stroke-linecap="round" stroke-linejoin="round"/>
<path d="M401.085 622.719C401.849 638.994 401.343 654.973 400.096 671.186" stroke="#1E1E1E" stroke-width="13.3238" stroke-linecap="round" stroke-linejoin="round"/>
<path d="M428.78 607.882C432.057 618.124 431.747 627.448 431.747 638.215C431.747 652.502 431.747 666.79 431.747 681.077" stroke="#1E1E1E" stroke-width="13.3238" stroke-linecap="round" stroke-linejoin="round"/>
<path d="M423.834 615.795C427.956 634.59 428.506 652.329 425.812 671.186" stroke="#1E1E1E" stroke-width="13.3238" stroke-linecap="round" stroke-linejoin="round"/>
<path d="M420.867 615.795C422.965 630.477 422.845 645.498 422.845 660.305" stroke="#1E1E1E" stroke-width="13.3238" stroke-linecap="round" stroke-linejoin="round"/>
<path d="M461.421 605.904C463.875 625.826 464.177 644.415 461.421 664.262" stroke="#1E1E1E" stroke-width="13.3238" stroke-linecap="round" stroke-linejoin="round"/>
<path d="M451.529 602.936C455.677 626.53 455.41 651.355 453.507 675.142" stroke="#1E1E1E" stroke-width="13.3238" stroke-linecap="round" stroke-linejoin="round"/>
<path d="M447.573 609.86C444.204 630.575 441.819 651.313 439.66 672.175" stroke="#1E1E1E" stroke-width="13.3238" stroke-linecap="round" stroke-linejoin="round"/>
<path d="M441.638 618.763C441.857 635.582 443.091 652.393 443.617 669.208" stroke="#1E1E1E" stroke-width="13.3238" stroke-linecap="round" stroke-linejoin="round"/>
<path d="M452.519 616.784C458.643 622.759 458.498 629.964 458.893 638.215C459.55 651.913 459.048 665.423 458.454 679.099" stroke="#1E1E1E" stroke-width="13.3238" stroke-linecap="round" stroke-linejoin="round"/>
<path d="M475.269 612.828V676.131" stroke="#1E1E1E" stroke-width="13.3238" stroke-linecap="round" stroke-linejoin="round"/>
<path d="M484.17 605.904C484.411 629.948 487.319 654.524 482.192 678.109" stroke="#1E1E1E" stroke-width="13.3238" stroke-linecap="round" stroke-linejoin="round"/>
<path d="M499.995 605.904C502.769 622.22 503.228 638.832 502.743 655.359C502.585 660.767 502.262 671.742 499.995 675.142" stroke="#1E1E1E" stroke-width="13.3238" stroke-linecap="round" stroke-linejoin="round"/>
<path d="M514.833 609.86C514.833 631.449 513.755 652.659 506.92 673.164" stroke="#1E1E1E" stroke-width="13.3238" stroke-linecap="round" stroke-linejoin="round"/>
<path d="M496.04 612.828C500.271 632.627 500.419 651.414 497.029 671.186" stroke="#1E1E1E" stroke-width="13.3238" stroke-linecap="round" stroke-linejoin="round"/>
<path d="M488.127 620.74C491.333 635.567 491.24 649.474 488.127 664.262" stroke="#1E1E1E" stroke-width="13.3238" stroke-linecap="round" stroke-linejoin="round"/>
<path d="M459.442 628.654C462.933 639.415 461.811 649.27 460.431 660.305" stroke="#1E1E1E" stroke-width="13.3238" stroke-linecap="round" stroke-linejoin="round"/>
<path d="M454.497 630.632V665.251" stroke="#1E1E1E" stroke-width="13.3238" stroke-linecap="round" stroke-linejoin="round"/>
<path d="M471.312 628.654C474.141 639.742 475.674 650.96 477.247 662.284" stroke="#1E1E1E" stroke-width="13.3238" stroke-linecap="round" stroke-linejoin="round"/>
<path d="M526.702 600.958C531.884 623.954 525.141 648.233 527.691 671.186" stroke="#1E1E1E" stroke-width="13.3238" stroke-linecap="round" stroke-linejoin="round"/>
<path d="M522.745 608.871C522.411 618.229 520.373 627.4 519.998 636.786C519.632 645.936 519.778 655.107 519.778 664.262" stroke="#1E1E1E" stroke-width="13.3238" stroke-linecap="round" stroke-linejoin="round"/>
<path d="M541.539 604.915C546.842 625.918 545.528 647.756 544.506 669.207" stroke="#1E1E1E" stroke-width="13.3238" stroke-linecap="round" stroke-linejoin="round"/>
<path d="M542.528 614.806C541.101 629.388 540.653 644.2 537.582 658.327" stroke="#1E1E1E" stroke-width="13.3238" stroke-linecap="round" stroke-linejoin="round"/>
<path d="M538.572 616.784C540.432 630.967 540.55 645.034 540.55 659.316C540.55 661.232 541.603 666.208 539.561 667.229" stroke="#1E1E1E" stroke-width="13.3238" stroke-linecap="round" stroke-linejoin="round"/>
<path d="M546.485 616.784C549.556 630.155 550.071 644.358 554.398 657.338" stroke="#1E1E1E" stroke-width="13.3238" stroke-linecap="round" stroke-linejoin="round"/>
<path d="M555.387 622.719C557.2 634.201 558.354 645.711 558.354 657.338" stroke="#1E1E1E" stroke-width="13.3238" stroke-linecap="round" stroke-linejoin="round"/>
<path d="M569.234 618.763C569.234 632.63 570.223 646.476 570.223 660.306" stroke="#1E1E1E" stroke-width="13.3238" stroke-linecap="round" stroke-linejoin="round"/>
<path d="M582.093 621.73C582.915 634.34 580.487 645.985 578.136 658.327" stroke="#1E1E1E" stroke-width="13.3238" stroke-linecap="round" stroke-linejoin="round"/>
<path d="M586.05 610.849C585.838 626.925 585.544 644.115 580.115 659.316" stroke="#1E1E1E" stroke-width="13.3238" stroke-linecap="round" stroke-linejoin="round"/>
<path d="M572.202 623.708C572.887 637.282 568.899 647.703 564.289 660.305" stroke="#1E1E1E" stroke-width="13.3238" stroke-linecap="round" stroke-linejoin="round"/>
<path d="M547.474 621.73C547.157 636.919 545.495 651.993 545.495 667.229" stroke="#1E1E1E" stroke-width="13.3238" stroke-linecap="round" stroke-linejoin="round"/>
<path d="M582.093 637.556C587.798 650.125 591.34 661.656 593.963 675.142" stroke="#1E1E1E" stroke-width="13.3238" stroke-linecap="round" stroke-linejoin="round"/>
<path d="M565.278 653.382C567.088 665.085 565.603 674.505 563.3 686.022" stroke="#1E1E1E" stroke-width="13.3238" stroke-linecap="round" stroke-linejoin="round"/>
<path d="M558.354 651.403C553.9 658.911 553.377 666.771 551.43 675.142" stroke="#1E1E1E" stroke-width="13.3238" stroke-linecap="round" stroke-linejoin="round"/>
<path d="M599.897 614.806C599.041 628.075 599.054 641.302 598.853 654.59C598.778 659.576 599.096 664.875 596.93 669.207" stroke="#1E1E1E" stroke-width="13.3238" stroke-linecap="round" stroke-linejoin="round"/>
<path d="M603.853 597.002C599.143 617.685 595.696 638.631 590.995 659.316" stroke="#1E1E1E" stroke-width="13.3238" stroke-linecap="round" stroke-linejoin="round"/>
<path d="M611.767 594.035C611.003 617.711 607.531 641.733 604.843 665.251" stroke="#1E1E1E" stroke-width="13.3238" stroke-linecap="round" stroke-linejoin="round"/>
<path d="M616.712 595.023C618.121 617.919 617.856 640.663 613.745 663.272" stroke="#1E1E1E" stroke-width="13.3238" stroke-linecap="round" stroke-linejoin="round"/>
<path d="M631.549 579.198C628.798 604.721 625.615 632.419 625.615 657.338" stroke="#1E1E1E" stroke-width="13.3238" stroke-linecap="round" stroke-linejoin="round"/>
<path d="M629.571 608.871C629.571 623.717 630.162 638.599 629.571 653.382" stroke="#1E1E1E" stroke-width="13.3238" stroke-linecap="round" stroke-linejoin="round"/>
<path d="M639.463 613.817C639.248 626.687 637.928 639.526 637.484 652.392" stroke="#1E1E1E" stroke-width="13.3238" stroke-linecap="round" stroke-linejoin="round"/>
<path d="M644.407 618.763V648.436" stroke="#1E1E1E" stroke-width="13.3238" stroke-linecap="round" stroke-linejoin="round"/>
<path d="M289.314 627.665C289.314 636.965 289.011 646.094 288.325 655.36" stroke="#1E1E1E" stroke-width="13.3238" stroke-linecap="round" stroke-linejoin="round"/>
<path d="M282.39 628.654C283.649 639.807 282.023 650.338 280.412 661.294" stroke="#1E1E1E" stroke-width="13.3238" stroke-linecap="round" stroke-linejoin="round"/>
<path d="M280.412 608.871C280.412 629.003 279.96 649.085 279.423 669.208" stroke="#1E1E1E" stroke-width="13.3238" stroke-linecap="round" stroke-linejoin="round"/>
<path d="M504.298 243.194C510.222 251.014 514.933 260.348 514.933 270.265" stroke="#E5B2AE" stroke-width="13.3238" stroke-linecap="round" stroke-linejoin="round"/>
<path d="M514.933 248.029C515.558 251.388 515.9 258.234 515.9 258.234C515.9 258.234 516.152 253.609 516.652 251.359C517.546 247.333 516.692 244.199 518.048 249.962C519.346 255.478 518.615 254.218 518.8 249.21C518.868 247.391 521.521 241.469 521.701 246.31C522.13 257.911 525.817 269.088 529.22 280.148C530.938 285.729 532.128 292.034 534.484 297.335C535.547 299.728 537.846 302.456 538.136 305.069C538.262 306.205 538.694 311.81 539.318 312.589C541.785 315.673 537.169 321.808 537.169 325.372C537.169 332.462 537.169 339.552 537.169 346.642" stroke="#E5B2AE" stroke-width="13.3238" stroke-linecap="round" stroke-linejoin="round"/>
<path d="M536.203 351.476C536.577 370.945 545.755 389.631 552.155 407.55C552.832 409.446 553.605 411.323 553.605 413.35C553.605 416.02 553.394 407.961 552.638 405.401C550.538 398.283 548.009 391.191 545.656 384.132C543.885 378.819 534.933 364.466 537.653 369.361C540.221 373.983 543.797 379.728 545.656 384.561C547.001 388.06 549.827 391.757 550.651 395.465C552.118 402.069 554.486 409.049 557.257 415.284C562.723 427.583 564.161 441.768 570.255 453.956C571.165 455.776 571.31 457.169 570.953 453.956C570.547 450.295 568.898 446.88 568.107 443.321C566.805 437.461 563.674 432.583 562.091 426.885C560.802 422.244 558.29 418.037 556.989 413.35C556.408 411.259 555.538 409.342 555.538 407.174C555.538 404.929 557.106 411.381 557.955 413.458C562.576 424.752 565.595 437.087 570.255 448.155C571.765 451.74 572.47 454.849 574.391 458.306C576.131 461.438 578.185 465.908 578.688 469.424C579.127 472.496 580.59 477.209 581.857 480.059C583.529 483.822 581.107 477.922 580.89 476.944C579.883 472.413 579.662 466.875 577.775 462.657C575.169 456.833 571.476 450.992 570.094 444.771C569.287 441.141 568.331 436.487 566.227 433.331C562.272 427.398 571.374 446.661 574.659 452.989C577.255 457.987 577.494 463.599 579.923 468.458C583.385 475.381 584.138 483.392 587.926 490.21C589.252 492.597 591.017 498.544 591.31 501.329C591.703 505.064 593.944 508.143 595.177 511.534C597.43 517.729 602.208 536.705 601.945 530.118C601.798 526.453 599.64 522.637 598.561 519.161C597.288 515.06 596.64 510.724 595.177 506.7C593.544 502.21 590.715 498.281 589.376 493.594C587.612 487.421 593.138 496.009 594.21 497.676C597.107 502.182 597.733 508.031 599.796 512.93C602.522 519.403 602.911 525.299 602.911 532.266C602.911 540.395 598.321 543.068 591.847 546.768C581.484 552.689 573.808 563.203 560.856 563.203C557.794 563.203 554.733 563.203 551.671 563.203C551.649 563.203 555.35 563.203 556.452 563.203C559.534 563.203 562.246 561.746 565.206 561.324C568.699 560.825 570.786 559.454 573.908 557.617C574.55 557.24 576.677 554.206 576.808 556.436C576.936 558.606 576.783 559.701 574.659 560.518C567.147 563.407 562.127 565.81 554.088 562.237C550.756 560.755 548.593 558.252 545.871 556.651C542.471 554.651 538.699 556.256 535.236 554.717C532.377 553.447 535.979 554.604 537.223 555.039C541.178 556.424 544.893 558.093 548.717 559.766C551.753 561.094 551.201 560.303 547.804 560.303C544.417 560.303 541.496 559.803 538.19 559.39C536.025 559.119 530.152 556.092 528.468 554.502C527.162 553.269 524.964 552.641 523.849 551.387C522.985 550.415 530.649 551.212 531.369 551.387C537.005 552.758 541.946 557.121 547.321 558.316C550.781 559.085 548.267 563.203 545.387 563.203C534.355 563.203 527.722 551.602 515.9 551.602" stroke="#E5B2AE" stroke-width="13.3238" stroke-linecap="round" stroke-linejoin="round"/>
<path d="M397.951 237.394C399.02 243.007 397.222 246.327 396.984 251.681C396.851 254.668 396.544 258.846 395.265 261.564C392.412 267.626 396.017 248.176 396.017 241.476C396.017 239.913 396.017 230.554 396.017 236.427C396.017 242.466 395.675 249.657 394.997 255.763C394.622 259.138 392.239 267.267 393.6 258.556C394.33 253.883 392.748 247.722 394.567 243.356C394.975 242.375 394.511 249.702 394.298 250.929C392.114 263.547 390.24 277.313 384.899 289.063C383.329 292.517 382.287 295.755 381.032 299.268C380.462 300.865 379.695 303.597 380.548 300.182C381.865 294.916 384.294 290.023 385.812 284.82C387.7 278.347 389.32 271.115 390.27 264.464C390.373 263.74 392.311 260.436 392.096 261.725C391.296 266.527 389.557 271.557 388.283 276.28C385.732 285.733 381.684 295.365 379.635 304.586C378.381 310.23 373.781 315.826 373.781 321.505" stroke="#E5B2AE" stroke-width="13.3238" stroke-linecap="round" stroke-linejoin="round"/>
<path d="M372.814 317.638C372.996 325.831 375.174 334.239 376.628 342.237C377.1 344.837 377.521 351.511 376.198 353.892C374.141 357.595 375.07 362.477 372.814 366.192C370.221 370.464 369.383 375.931 367.228 380.479C366.033 383.002 367.456 380.655 367.98 379.298C369.82 374.537 370.222 369.529 371.364 364.581C373.011 357.446 374.748 351.639 374.748 344.278C374.748 340.143 374.913 337.622 374.748 343.741C374.549 351.085 374.408 359.693 372.062 366.729C369.268 375.113 363.306 382.161 360.246 390.577C359.093 393.746 356.206 396.722 354.66 399.815C352.871 403.393 349.836 409.034 353.478 401.749C357.256 394.194 359.861 386.19 363.63 378.653C366.288 373.337 369.42 368.056 371.848 362.593C373.412 359.075 374.816 355.553 376.198 351.959C379.965 342.165 374.598 358.375 373.781 360.767C369.909 372.107 365.91 381.783 359.494 391.866C356.472 396.614 354.477 399.416 352.726 404.864C350.5 411.791 347.783 419.756 346.765 426.885C345.78 433.779 343.721 441.678 341.662 448.37C340.614 451.776 339.063 454.882 338.01 458.306C337.762 459.11 335.428 463.888 336.291 460.723C337.474 456.384 339.997 452.345 341.394 448.047C343.961 440.146 345.898 432.076 348.43 424.2C348.984 422.475 350.23 417.2 349.558 418.882C348.323 421.968 347.107 424.551 346.496 427.852C344.79 437.067 340.812 450.346 334.626 457.769C333.298 459.363 335.428 453.932 335.593 453.365C337.233 447.715 339.049 442.136 340.91 436.553C342.866 430.685 345.775 425.06 347.463 419.151C348.332 416.108 350.624 410.103 348.43 416.465C345.954 423.646 345.278 431.271 342.79 438.487C339.869 446.959 336.621 455.355 333.176 463.623" stroke="#E5B2AE" stroke-width="13.3238" stroke-linecap="round" stroke-linejoin="round"/>
<path d="M357.048 331.809C356.498 354.91 340.776 377.38 334.244 399.042C327.397 421.744 315.69 442.656 308.398 465.26C302.744 482.788 291.584 498.766 287.451 516.951C285.072 527.419 280.253 541.046 288.634 549.892C293.22 554.733 294.863 560.117 300.796 563.744C309.394 568.998 316.419 577.125 325.122 582.663C337.039 590.247 346.683 587.46 359.413 585.704C371.101 584.092 382.062 576.999 393.536 576.582C405.597 576.143 417.252 571.36 429.264 570.585C439.536 569.922 450.168 568.98 460.431 568.98C478.526 568.98 494.8 569.288 512.122 575.062" stroke="#1E1E1E" stroke-width="35.5301" stroke-linecap="round" stroke-linejoin="round"/>
<path d="M550.045 329.283C550.595 352.384 566.317 374.854 572.85 396.515C579.696 419.217 591.404 440.13 598.695 462.734C604.349 480.261 615.509 496.239 619.642 514.425C622.021 524.893 626.84 538.519 618.459 547.365C613.873 552.206 612.23 557.591 606.297 561.217C597.699 566.471 590.674 574.599 581.972 580.137C570.054 587.721 560.41 584.933 547.68 583.177C535.992 581.565 525.031 574.473 513.557 574.056C501.496 573.617 489.841 568.834 477.829 568.059C467.557 567.396 456.925 566.454 446.663 566.454C428.567 566.454 412.294 566.761 394.972 572.535" stroke="#1E1E1E" stroke-width="35.5301" stroke-linecap="round" stroke-linejoin="round"/>
<path d="M382.86 186.252C396.177 175.962 410.007 170.897 425.458 165.06C430.235 163.256 438.408 164.605 443.493 165.114C449.136 165.678 456.442 166.93 461.849 168.432C483.257 174.378 509.352 174.979 526.388 191.069C529.3 193.818 531.953 195.997 534.576 199.203C538.821 204.391 536.735 199.241 535.057 195.885C530.943 187.657 523.834 179.738 515.257 176.619C506.599 173.471 498.151 169.056 488.874 167.896C484.951 167.406 480.814 165.172 476.833 164.311C469.096 162.638 460.999 162.58 453.179 161.421C443.444 159.979 433.007 163.134 423.318 163.134C415.465 163.134 406.503 165.625 399.718 169.395C397.319 170.728 392.337 173.408 389.603 173.73C387.078 174.027 386.427 177.003 390.085 174.158C401.926 164.948 414.701 162.203 429.097 160.03C443.666 157.831 458.625 158.03 472.659 163.134C484.767 167.536 497.975 168.513 510.012 173.194C513.853 174.688 517.922 175.348 521.786 176.833C525.313 178.19 527.498 181.55 530.669 183.362C533.274 184.851 538.91 193.776 538.91 196.848" stroke="#1E1E1E" stroke-width="35.5301" stroke-linecap="round" stroke-linejoin="round"/>
<path d="M756.259 136.477C752.67 135.776 748.345 134.548 744.688 134.548C742.308 134.548 740.778 136.126 738.366 135.03C732.888 132.54 727.406 132.619 721.545 132.619C716.02 132.619 710.743 131.655 705.045 131.655C698.736 131.655 692.943 129.726 686.83 129.726C674.954 129.726 663.051 130.258 651.365 130.691C643.738 130.973 636.109 133.584 628.49 133.584C622.1 133.584 615.586 134.451 609.472 136.262C603.247 138.107 596.687 138.537 590.401 140.334C585.439 141.751 578.856 142.44 574.972 146.119C570.736 150.132 566.107 152.167 562.865 157.262C559.624 162.355 556.088 167.192 553.972 172.905C549.817 184.123 545.802 195.605 542.4 207.084C538.534 220.133 541.222 234.084 541.222 247.317C541.222 253.694 544.444 262.657 547.007 268.585C548.943 273.062 549.083 278.225 550.864 282.835C552.537 287.163 553.712 292.006 554.722 296.55C556.399 304.098 561.08 309.917 563.615 317.014C564.805 320.346 567.238 323.306 569.186 326.228C571.284 329.375 572.245 333.771 574.49 336.514C579.458 342.587 583.077 350.02 587.508 356.55C592.625 364.091 598.21 369.859 604.919 375.729C611.119 381.154 617.422 386.017 623.937 391.05C630.71 396.284 638.631 398.849 646.276 402.193C659.577 408.013 673.637 407.663 687.741 409.426C702.168 411.229 716.366 416.122 731.188 416.122C745.936 416.122 760.726 412.265 775.545 412.265C783.289 412.265 791.212 411.08 798.688 409.158C806.21 407.224 812.562 403.118 819.689 400.479C825.936 398.165 829.751 391.307 835.76 389.122C841.956 386.869 847.449 377.23 851.725 372.729C861.672 362.258 864.565 348.901 870.26 336.086C875.427 324.46 877.66 311.393 881.403 299.228C884.615 288.789 888.554 276.367 889.332 265.478C889.871 257.934 892.955 250.476 894.1 243.031C895.136 236.3 893.33 227.626 895.332 221.12C896.912 215.985 897.596 209.408 896.993 203.977C896.586 200.316 895.118 196.641 895.118 192.941C895.118 190.446 895.641 187.303 894.904 184.906C892.262 176.319 886.897 166.964 876.796 166.37C870.038 165.972 862.234 162.416 856.01 160.637C841.092 156.375 825.371 153.495 809.778 150.03C788.912 145.393 766.848 145.092 745.224 142.209C730.831 140.29 716.476 139.369 701.777 139.369C692.316 139.369 682.968 137.441 673.544 137.441C665.116 137.441 656.687 137.441 648.258 137.441C628.942 137.441 611.295 138.48 592.383 142.262C585.572 143.624 578.444 146.521 571.865 148.798C568.275 150.041 558.857 153.963 557.615 157.691" stroke="#1E1E1E" stroke-width="35.5301" stroke-linecap="round" stroke-linejoin="round"/>
<path d="M401.162 436.703C401.162 439.791 399.765 450.253 403.088 452.33C405.572 453.882 405.04 454.42 408.44 455.22C412.213 456.107 412.236 451.068 412.668 447.835C413.476 441.768 400.693 442.515 400.894 442.537C402.565 442.712 406.942 444.841 406.942 442.001C406.942 440.374 405.453 439.097 404.052 438.63" stroke="#E5B2AE" stroke-width="13.3238" stroke-linecap="round" stroke-linejoin="round"/>
</svg>
