<svg width="900" height="700" viewBox="0 0 900 700" fill="none" xmlns="http://www.w3.org/2000/svg">
<rect width="900" height="700" fill="url(#paint0_linear_11_324)"/>
<path d="M550.477 475.585C550.427 477.603 549.451 480.73 547.85 482.013C545.79 483.662 548.905 484.292 549.893 484.35C554.271 484.608 541.096 487.901 536.92 486.557C534.026 485.626 529.379 485.738 527.126 483.733C525.332 482.137 524.306 482.013 521.937 482.013C520.81 482.013 519.867 482.996 518.824 482.922C515.668 482.696 511.556 477.903 509.029 476.299C504.797 473.613 498.946 470.925 493.884 470.391C487.852 469.756 483.041 472.046 477.96 474.871C473.677 477.253 458.582 477.731 463.463 477.306C469.148 476.811 474.933 476.268 480.587 475.52C487.987 474.542 496.602 471.118 504.1 472.209C504.645 472.289 511.506 474.901 509.289 476.17C504.98 478.634 500.59 480.575 495.473 480.13C491.779 479.808 488.705 477.929 485.225 476.884C483.875 476.478 482.372 476.811 480.976 476.462C478.873 475.935 476.702 476.359 474.587 475.877C471.776 475.238 468.849 474.462 465.961 474.417C464.32 474.391 461.329 473.805 459.993 475.001C458.779 476.089 457.856 476.465 456.199 476.754C451.121 477.638 446.71 480.032 441.897 481.688C435.646 483.839 428.674 484.142 422.341 485.551C418.706 486.359 415.032 486.687 411.249 486.687C407.013 486.687 404.348 482.108 403.076 478.799C400.003 470.802 402.226 461.421 406.287 454.42C412.55 443.624 421.026 433.255 423.086 420.466C424.245 413.277 414.692 425.839 413.584 427.12C408.477 433.028 400.709 446.695 400.709 446.695C400.709 446.695 409.424 429.821 414.33 421.699C415.731 419.38 421.409 414.171 418.805 414.915C417.155 415.387 415.09 420.59 414.33 421.959C411.96 426.229 408.969 430.678 407.228 435.236C404.904 441.319 402.069 447.037 399.412 452.927C396.755 458.814 394.406 464.057 393.444 470.554C393.343 471.236 392.899 477.814 391.693 477.663C390.673 477.535 390.536 472.582 390.525 471.82C390.462 467.221 391.165 463.105 393.412 459.03C394.257 457.497 399.989 450.855 402.071 453.901C404.245 457.082 402.784 464.709 402.784 468.314C402.784 471.427 401.389 476.741 404.665 472.437C410.898 464.248 415.306 454.543 420.297 445.591C422.784 441.131 425.378 436.651 428.6 432.671C429.303 431.803 432.183 428.128 432.427 431.373C432.757 435.77 431.142 440.54 429.962 444.682C427.662 452.751 424.928 460.7 421.043 468.152C420.506 469.182 419.016 473.102 417.8 473.832C417.401 474.072 418.031 472.926 418.222 472.501C419.627 469.369 421.344 466.369 423.022 463.38C430.013 450.923 437.103 438.508 444.426 426.244C445.767 423.999 445.187 427.041 445.01 427.737C443.293 434.498 439.489 440.774 435.799 446.597C430.683 454.673 415.601 478.915 419.454 470.164C426.163 454.926 438.5 441.064 449.615 428.971C451.74 426.659 454.402 423.451 457.334 422.024C460.156 420.651 457.182 428.401 456.166 431.373C454.189 437.162 451.809 443.181 448.318 448.253C445.014 453.053 439.712 460.263 433.918 462.244C432.007 462.897 434.948 458.239 436.124 456.595C439.706 451.589 443.813 446.976 447.929 442.41C453.996 435.679 460.175 428.992 466.739 422.738C472.096 417.634 468.954 423.598 467.388 426.504C463.034 434.578 457.484 441.823 451.302 448.577C445.907 454.47 439.968 461.222 432.946 465.263C432.892 465.293 423.924 469.457 426.135 466.496C431.282 459.604 439.089 453.755 445.496 448.123C451.702 442.669 458.084 437.419 464.339 432.022C466.087 430.513 469.029 428.178 466.285 432.152C457.98 444.179 445.708 453.12 434.762 462.536C434.564 462.706 432.868 464.162 432.491 464.678C432.275 464.975 433.177 464.388 433.464 464.159C438.119 460.443 442.367 456.159 446.761 452.148C454.255 445.308 461.745 438.38 469.658 432.022C471.093 430.869 480.623 423.111 478.868 430.626C477.578 436.152 473.229 441.27 469.496 445.299C462.628 452.71 454.137 459.295 444.945 463.575C444.308 463.871 438.031 466.563 439.432 462.925C441.525 457.49 449.689 452.863 454.156 449.843C460.903 445.281 468.085 441.324 475.204 437.378C476.175 436.84 479.402 434.887 481.009 434.619C482.375 434.391 482.09 435.339 481.722 436.177C479.727 440.715 474.359 444.254 470.501 446.954C463.257 452.024 455.446 455.844 447.15 458.835C446.74 458.983 444.099 459.846 443.388 460.264C443.163 460.396 443.844 460.628 444.102 460.588C449.143 459.812 454.059 457.077 458.631 455.005C466.634 451.377 474.589 447.639 482.63 444.098C483.687 443.633 495.111 437.663 491.062 443.741C486.161 451.1 473.272 460.452 463.95 459.549C461.287 459.291 461.499 457.484 463.366 456.238C469.079 452.426 476.77 450.912 483.214 448.902C490.863 446.516 498.544 443.647 506.37 441.89C510.773 440.902 510.224 443.323 507.862 446.045C499.171 456.062 482.904 460.326 470.112 458.868C467.539 458.574 466.17 457.845 469.56 457.147C475.275 455.972 480.977 454.933 486.652 453.544C495.057 451.486 503.362 449.054 511.754 446.954C515.142 446.106 520.917 445.243 516.748 450.265C511.905 456.101 499.032 463.8 491.127 460.393C489.761 459.804 493.336 458.231 494.76 457.796C503.831 455.029 512.74 451.972 521.515 448.35C530.138 444.792 526.094 446.332 533.969 442.962C534.776 442.616 538.747 440.718 540.39 440.754C543.265 440.817 537.719 445.993 535.591 447.928C531.12 451.992 526.179 455.651 520.607 458.056C518.234 459.08 517.031 459.39 514.64 459.971C513.562 460.233 510.554 460.166 511.429 460.848C512.464 461.654 517.58 459.774 518.434 459.549C525.964 457.574 533.303 454.753 540.909 453.09C544.324 452.343 547.839 452.096 545.093 456.303C541.613 461.634 536.582 466.754 530.888 469.677C528.113 471.102 524.487 472.267 521.353 471.365C519.317 470.779 520.302 469.614 521.613 468.898C525.446 466.806 529.883 465.613 534.066 464.484C540.751 462.679 548.387 460.069 555.374 460.069C559.022 460.069 555.636 463.287 554.563 464.256C551.261 467.236 547.256 469.246 542.985 470.424C540.271 471.172 536.948 471.851 534.131 471.171C531.764 470.599 537.988 469.619 538.023 469.612C542.29 468.81 546.504 467.789 550.736 466.821C552.181 466.49 559.207 463.866 560.66 465.133C561.801 466.128 556.222 470.121 555.925 470.327C551.539 473.37 546.402 475.61 541.039 476.007C540.202 476.069 535.415 476.473 535.039 474.969C534.739 473.765 539.417 472.223 539.904 472.015C542.426 470.937 566.749 463.334 566.044 467.08C565.516 469.883 560.509 472.451 558.39 473.573C554.524 475.619 550.155 476.939 545.742 476.494C535.953 475.508 539.241 462.735 540.39 456.303C542.794 442.85 546.169 429.528 546.909 415.824C546.913 415.754 547.009 412.301 547.071 412.415C548.702 415.407 549.648 418.776 550.347 422.089C551.485 427.482 552.174 433.029 552.682 438.514C552.969 441.618 554.007 446.923 552.098 449.811C549.439 453.834 542.757 435.635 542.336 434.457C541.2 431.278 539.887 428.041 539.223 424.718C538.574 421.47 540.545 423.994 541.266 425.27C543.147 428.596 544.259 432.306 545.223 435.982C545.965 438.814 548.69 445.918 547.104 448.805C546.028 450.762 544.089 445.442 543.082 443.449C540.433 438.202 537.916 432.852 535.688 427.413C533.73 422.635 532.076 417.741 530.466 412.837C530.386 412.592 528.661 407.587 530.434 410.208C534.466 416.17 536.285 423.927 538.412 430.724C541.369 440.173 532.902 411.703 530.045 402.223C527.945 395.255 525.811 388.297 523.753 381.317C523.748 381.301 521.782 373.258 521.807 373.267C523.877 374.02 526.227 381.455 526.899 383.005C530.449 391.196 533.631 399.623 536.531 408.066C537.379 410.532 540.36 417.395 538.412 415.662C536.202 413.695 534.721 409.259 533.547 406.702C527.99 394.589 523.14 382.127 517.689 369.956C515.017 363.99 523.035 381.887 525.731 387.842C528.451 393.848 531.248 399.938 532.672 406.41C533.958 412.258 532.02 411.668 529.202 407.481C520.67 394.81 515.846 380.171 507.797 367.294C506.63 365.427 503.839 361.867 505.008 366.71C507.486 376.978 511.673 386.979 515.224 396.899C518.884 407.126 522.616 417.349 525.375 427.867C526.242 431.175 529.264 440.127 526.542 438.06C522.597 435.065 520.185 427.131 518.272 422.933C513.111 411.603 508.258 400.114 503.711 388.524C502.046 384.282 500.777 379.647 498.781 375.539C497.623 373.157 500.299 380.616 501.116 383.135C503.644 390.931 505.858 398.821 507.862 406.767C508.772 410.377 510.013 415.517 510.716 419.232C511.118 421.357 512.445 426.149 511.494 428.484C510.443 431.066 508.418 423.761 507.538 421.115C505.043 413.624 503.286 405.874 501.473 398.197C499.892 391.508 498.616 384.72 496.868 378.071C495.293 372.084 496.259 382.093 496.316 382.681C497.76 397.48 499.591 412.519 499.43 427.413C499.382 431.817 498.123 429.759 497.224 426.958C494.253 417.699 492.584 407.932 490.641 398.425C488.991 390.353 487.433 382.249 485.225 374.306C485.142 374.008 483.512 366.752 483.376 371.644C482.872 389.82 485.61 407.993 486.587 426.114C486.715 428.499 486.792 435.51 486.003 433.256C484.043 427.66 483.876 421.165 483.344 415.337C482.425 405.272 481.586 395.203 480.555 385.148C480.512 384.735 479.51 375.146 479.387 374.046C479.2 372.378 478.95 367.533 478.382 369.112C476.105 375.442 477.05 385.05 476.436 391.51C475.708 399.175 475.06 405.215 473.712 412.74C473.526 413.775 472.41 420.676 470.955 422.706C469.771 424.358 468.816 411.949 468.815 411.896C468.571 402.321 469.043 392.847 470.631 383.395C471.917 375.736 471.318 380.252 472.577 372.942C472.89 371.122 474.217 368.892 473.095 367.424C472.865 367.123 467.631 379.653 467.452 380.149C464.832 387.435 462.344 394.798 459.085 401.833C457.957 404.269 454.491 412.523 453.961 405.177C452.851 389.776 458.122 375.357 460.48 360.412C461.202 355.835 457.733 369.263 456.361 373.689C452.642 385.684 448.24 397.435 442.415 408.585C440.57 412.119 438.739 415.012 439.237 409.559C440.073 400.402 442.183 391.282 444.296 382.356C446.035 375.014 447.943 367.706 449.875 360.412C451.431 354.535 448.112 365.902 448.059 366.061C443.127 380.755 437.894 395.803 434.697 410.987C434.583 411.527 433.803 416.899 433.854 416.571C434.864 410 435.742 403.411 436.708 396.834C437.926 388.531 439.833 380.358 441.086 372.066C441.158 371.586 443.002 358.59 439.14 365.411C435.755 371.39 433.977 378.49 432.005 385.018C429.945 391.839 427.036 399.196 426.2 406.313C425.815 409.586 428.773 400.235 429.767 397.094C432.504 388.447 434.544 379.617 436.643 370.8C438.455 363.184 440.542 355.586 441.961 347.882C443.001 342.239 442.291 344.46 441.118 348.531C436.94 363.039 433.292 377.463 431.486 392.484C431.304 393.999 429.832 400.194 430.902 401.801C431.215 402.27 431.582 400.888 431.81 400.372C433.069 397.525 434.078 394.559 435.151 391.64C441.601 374.086 445.674 356.518 446.632 337.754C446.743 335.57 446.832 332.116 446.567 329.704C446.512 329.207 446.6 328.167 446.113 328.276C445.901 328.323 445.069 339.321 445.01 339.702C443.62 348.71 436.053 375.016 437.745 366.061C439.707 355.681 446.796 346.038 450.912 336.456C453.952 329.383 455.474 321.768 457.528 314.382C458.159 312.114 458.263 312.913 457.593 314.772C455.555 320.428 453.083 325.993 450.653 331.489C449.043 335.131 447.334 338.719 445.594 342.299C444.269 345.024 447.21 340.235 447.28 340.092C452.572 329.323 455.474 316.74 458.112 305.098C458.176 304.818 458.898 301.367 459.085 300.651C459.198 300.219 459.233 299.17 459.604 299.417C460.082 299.736 457.655 304.976 457.593 305.131C456.2 308.618 454.895 312.202 453.053 315.486C452.565 316.356 450.616 318.417 450.783 317.433C452.411 307.86 459.947 279.859 456.166 288.803C453.921 294.115 452.226 299.938 450.685 305.488C450.434 306.395 448.902 314.961 448.902 312.305C448.902 304.92 450.653 297.67 450.653 290.263C450.653 288.059 449.45 290.573 449.161 291.335C447.611 295.426 446.018 299.457 444.815 303.67C443.203 309.32 444.74 301.694 445.107 300.002C445.911 296.303 447.156 290.827 450.069 288.478C451.786 287.094 452.777 284.317 455.064 283.901C457.401 283.476 458.141 280.595 460.123 279.713C461.901 278.922 463.123 277.218 464.793 276.208C466.513 275.167 468.348 275.021 470.209 274.292C474.384 272.657 482.078 272.481 485.679 275.299C488.76 277.71 492.547 278.768 495.603 281.142C498.296 283.233 500.888 285.518 503.484 287.731C509.305 292.695 514.15 296.801 517.786 303.8C521.05 310.083 525.209 316.503 525.958 323.634C526.311 326.99 526.973 330.316 527.094 333.697C527.197 336.582 527.162 339.537 526.737 342.396C526.654 342.952 524.713 349.792 524.337 348.661C523.151 345.101 522.752 340.672 522.002 336.975C520.605 330.086 519.165 323.328 516.91 316.654C514.869 310.615 513.054 304.846 510.197 299.125C508.083 294.893 506.146 290.79 504.392 286.4C503.596 284.41 499.363 278.169 502.154 275.883C503.129 275.084 505.951 280.545 506.24 281.012C509.153 285.716 510.588 290.038 510.748 295.652C510.961 303.091 510.449 310.562 511.137 317.985C512.046 327.788 513.051 337.41 512.402 347.298C512.197 350.427 512.497 358.922 509.743 361.127C509.15 361.602 509.028 353.13 509.062 352.297C509.131 350.576 509.925 342.532 513.375 344.052C517.493 345.866 516.618 357.921 516.618 361.386C516.618 362.32 516.757 371.453 513.829 370.281C511.473 369.337 516.769 358.446 517.494 357.101C519.877 352.684 521.101 353.397 520.575 358.205C520.167 361.931 519.486 366.308 517.721 369.664C516.098 372.751 513.217 371.56 512.078 368.852C508.886 361.264 510.916 351.143 506.662 344.117C503.974 339.677 499.249 353.412 498.781 354.764C497.752 357.738 497.259 360.825 496.446 363.853C496.148 364.962 496.261 361.559 496.316 360.412C496.746 351.431 498.111 324.62 496.349 333.437C494.476 342.807 493.355 353.161 488.63 361.646C488.294 362.25 486.15 366.177 485.095 364.113C482.192 358.434 482.548 349.612 482.306 343.403C482.102 338.178 482.549 332.826 481.917 327.626C481.599 325.017 480.54 323.905 479.257 326.782C474.894 336.569 473.494 347.785 470.566 358.043C469.464 361.903 469.219 358.619 469.106 356.549C468.822 351.302 469.305 346.069 469.658 340.838C470.154 333.483 470.983 325.981 470.696 318.602C470.532 314.401 468.727 321.571 468.62 321.978C466.612 329.607 465.76 340.829 460.512 347.103C458.688 349.285 460.701 341.394 461.226 338.598C463.039 328.93 465.825 319.467 467.485 309.773C467.549 309.399 468.839 298.638 469.269 298.638C469.654 298.638 468.661 308.14 468.652 308.214C467.748 315.684 466.289 323.063 464.436 330.353C463.855 332.639 463.638 335.115 462.426 337.138C460.967 339.57 463.691 331.606 464.404 328.86C466.091 322.359 467.572 315.813 469.009 309.253C469.443 307.275 471.084 299.645 471.604 297.372C471.914 296.016 471.787 294.39 472.706 293.347C473.447 292.507 473.147 295.547 473.29 296.658C473.523 298.462 473.452 300.361 473.095 302.144C472.562 304.813 472.302 301.186 472.285 300.781C472.163 297.861 472.29 294.885 473.679 292.243C476.627 286.637 479.271 290.126 481.819 294.159C484.252 298.007 485.955 303.417 484.771 307.987C483.948 311.164 483.326 302.025 483.344 301.333C483.422 298.339 487.544 287.605 490.219 294.84C493.013 302.396 493.668 314.781 488.825 321.589C484.528 327.628 481.722 320.232 481.722 316.005C481.722 313.173 484.354 300.168 489.506 301.982C493.447 303.37 492.248 314.61 491.711 317.433C491.413 319 490.391 323.006 488.014 322.757C484.566 322.397 486.206 316.123 486.619 314.382C487.213 311.878 489.06 304.705 491.516 310.032C492.217 311.551 495.614 324.055 493.851 323.147C491.315 321.839 491.943 315.755 492.36 313.603C492.65 312.106 496.636 302.636 498.197 307.468C499.664 312.006 500.127 317.874 499.365 322.562C498.557 327.532 497.33 316.237 497.354 314.902C497.374 313.797 498.98 303.26 499.689 307.695C499.932 309.213 500.208 310.764 500.208 312.305C500.208 315.179 499.96 315.197 497.938 315.486" stroke="#E5B2AE" stroke-width="24.3422" stroke-linecap="round" stroke-linejoin="round"/>
<path d="M666.034 230.352C671.928 231.567 677.87 232.647 683.741 233.974C684.388 234.121 685.217 234.243 685.809 234.557C686.031 234.674 679.449 234.056 678.442 233.845C675.883 233.31 668.073 232.681 670.687 232.681C671.54 232.681 672.496 232.56 673.336 232.713C677.769 233.52 682.688 235.339 686.973 235.592C695.261 236.08 702.612 240.272 710.82 241.446C714.491 241.971 717.923 243.701 721.419 244.777C724.899 245.849 728.109 246.323 731.468 247.817C739.735 251.495 744.555 253.584 744.555 263.536" stroke="#1E1E1E" stroke-width="24.3422" stroke-linecap="round" stroke-linejoin="round"/>
<path d="M435.705 282.166C441.047 274.894 446.002 267.583 455.028 264.571C459.375 263.121 463.252 261.512 467.695 260.496C472.742 259.341 477.753 260.625 482.818 260.625C492.492 260.625 503.377 265.553 511.9 269.94C519.57 273.889 524.167 282.669 529.349 289.152" stroke="#1E1E1E" stroke-width="24.3422" stroke-linecap="round" stroke-linejoin="round"/>
<path d="M301.177 231.794C303.344 231.371 305.956 230.628 308.164 230.628C309.601 230.628 310.524 231.582 311.981 230.92C315.288 229.415 318.598 229.463 322.138 229.463C325.474 229.463 328.66 228.88 332.101 228.88C335.91 228.88 339.408 227.714 343.099 227.714C350.27 227.714 357.457 228.036 364.513 228.297C369.119 228.468 373.725 230.046 378.325 230.046C382.184 230.046 386.117 230.57 389.809 231.664C393.567 232.779 397.528 233.04 401.324 234.125C404.32 234.982 408.295 235.398 410.64 237.622C413.198 240.047 415.993 241.277 417.951 244.356C419.908 247.434 422.043 250.358 423.321 253.811C425.829 260.59 428.254 267.529 430.308 274.467C432.642 282.354 431.019 290.785 431.019 298.783C431.019 302.637 429.074 308.054 427.526 311.637C426.357 314.343 426.272 317.463 425.197 320.249C424.187 322.865 423.477 325.792 422.868 328.538C421.855 333.1 419.029 336.617 417.498 340.906C416.78 342.92 415.31 344.709 414.134 346.475C412.867 348.376 412.287 351.033 410.932 352.691C407.932 356.361 405.747 360.854 403.071 364.801C399.981 369.358 396.609 372.844 392.558 376.392C388.814 379.671 385.008 382.609 381.075 385.652C376.985 388.815 372.202 390.365 367.586 392.386C359.554 395.903 351.065 395.692 342.549 396.757C333.838 397.847 325.265 400.804 316.315 400.804C307.41 400.804 298.48 398.473 289.531 398.473C284.856 398.473 280.071 397.757 275.557 396.595C271.016 395.426 267.18 392.945 262.877 391.35C259.105 389.952 256.801 385.807 253.173 384.486C249.432 383.125 246.115 377.299 243.533 374.579C237.527 368.25 235.78 360.178 232.341 352.432C229.221 345.406 227.873 337.509 225.613 330.157C223.673 323.847 221.295 316.34 220.825 309.759C220.5 305.2 218.638 300.692 217.946 296.193C217.321 292.124 218.411 286.882 217.202 282.95C216.248 279.847 215.835 275.872 216.2 272.59C216.445 270.377 217.332 268.156 217.332 265.92C217.332 264.412 217.016 262.512 217.461 261.063C219.056 255.874 222.296 250.22 228.395 249.861C232.475 249.62 237.188 247.471 240.946 246.396C249.953 243.82 259.446 242.08 268.861 239.985C281.46 237.183 294.783 237.001 307.84 235.258C316.53 234.099 325.198 233.542 334.074 233.542C339.787 233.542 345.431 232.377 351.121 232.377C356.21 232.377 361.3 232.377 366.389 232.377C378.053 232.377 388.708 233.005 400.127 235.291C404.24 236.114 408.544 237.864 412.517 239.241C414.684 239.992 420.371 242.362 421.121 244.615" stroke="#1E1E1E" stroke-width="24.3422" stroke-linecap="round" stroke-linejoin="round"/>
<path d="M296.893 230.44C290.999 231.655 285.057 232.735 279.185 234.062C278.539 234.208 277.71 234.33 277.117 234.644C276.896 234.762 283.477 234.143 284.485 233.933C287.044 233.398 294.854 232.768 292.24 232.768C291.387 232.768 290.431 232.648 289.59 232.801C285.158 233.607 280.239 235.427 275.954 235.679C267.666 236.167 260.315 240.36 252.107 241.533C248.436 242.058 245.004 243.788 241.508 244.865C238.027 245.937 234.818 246.411 231.459 247.905C223.192 251.583 218.372 253.671 218.372 263.624" stroke="#1E1E1E" stroke-width="24.3422" stroke-linecap="round" stroke-linejoin="round"/>
<path d="M421.164 211.14C422.555 192.254 418.575 174.039 414.185 155.833" stroke="#1E1E1E" stroke-width="9.12832" stroke-linecap="round" stroke-linejoin="round"/>
<path d="M413.603 208.229C415.582 199.517 412.421 190.571 410.695 182.031C409.201 174.64 407.464 167.31 406.042 159.908" stroke="#1E1E1E" stroke-width="9.12832" stroke-linecap="round" stroke-linejoin="round"/>
<path d="M402.551 207.647C403.555 200.905 401.119 193.793 399.934 187.206C398.579 179.674 397.48 172.092 396.153 164.566" stroke="#1E1E1E" stroke-width="9.12832" stroke-linecap="round" stroke-linejoin="round"/>
<path d="M390.919 204.736C392.464 199.325 391.811 194.228 390.661 188.759C388.866 180.226 386.889 172.045 385.685 163.402" stroke="#1E1E1E" stroke-width="9.12832" stroke-linecap="round" stroke-linejoin="round"/>
<path d="M381.613 203.572C381.5 191.219 379.865 179.103 378.123 166.895" stroke="#1E1E1E" stroke-width="9.12832" stroke-linecap="round" stroke-linejoin="round"/>
<path d="M368.235 204.154C370.002 198.024 368.452 191.259 367.654 185.071C366.768 178.205 365.803 171.465 365.327 164.566" stroke="#1E1E1E" stroke-width="9.12832" stroke-linecap="round" stroke-linejoin="round"/>
<path d="M356.021 205.318C356.315 195.148 355.159 185.112 353.791 175.045C353.384 172.048 353.097 168.993 351.949 166.312" stroke="#1E1E1E" stroke-width="9.12832" stroke-linecap="round" stroke-linejoin="round"/>
<path d="M344.97 201.825C347.083 187.924 341.383 173.777 340.317 159.908" stroke="#1E1E1E" stroke-width="9.12832" stroke-linecap="round" stroke-linejoin="round"/>
<path d="M334.501 203.572C332.879 190.72 328.327 178.272 325.194 165.73" stroke="#1E1E1E" stroke-width="9.12832" stroke-linecap="round" stroke-linejoin="round"/>
<path d="M325.194 202.99C325.675 198.078 323.892 193.442 322.512 188.791C320.186 180.957 318.292 173.108 316.469 165.148" stroke="#1E1E1E" stroke-width="9.12832" stroke-linecap="round" stroke-linejoin="round"/>
<path d="M315.888 204.736C315.247 190.769 309.499 177.028 306.582 163.402" stroke="#1E1E1E" stroke-width="9.12832" stroke-linecap="round" stroke-linejoin="round"/>
<path d="M340.898 200.079C340.614 186.693 333.815 173.371 330.429 160.491" stroke="#1E1E1E" stroke-width="9.12832" stroke-linecap="round" stroke-linejoin="round"/>
<path d="M377.541 200.079C376.13 189.482 373.88 179.115 371.725 168.641" stroke="#1E1E1E" stroke-width="9.12832" stroke-linecap="round" stroke-linejoin="round"/>
<path d="M363.001 200.079C363.675 195.262 362.742 190.664 361.967 185.912C361.225 181.369 361.041 176.721 360.674 172.134" stroke="#1E1E1E" stroke-width="9.12832" stroke-linecap="round" stroke-linejoin="round"/>
<path d="M408.368 198.332C406.021 188.43 403.855 178.514 401.389 168.641" stroke="#1E1E1E" stroke-width="9.12832" stroke-linecap="round" stroke-linejoin="round"/>
<path d="M394.991 194.257C397.821 188.727 392.441 181.196 390.338 176.209" stroke="#1E1E1E" stroke-width="9.12832" stroke-linecap="round" stroke-linejoin="round"/>
<path d="M307.745 199.496C308.411 187.232 304.327 174.361 302.51 162.237" stroke="#1E1E1E" stroke-width="9.12832" stroke-linecap="round" stroke-linejoin="round"/>
<path d="M297.276 169.805C299.38 180.221 300.483 190.808 302.511 201.243" stroke="#1E1E1E" stroke-width="9.12832" stroke-linecap="round" stroke-linejoin="round"/>
<path d="M287.97 167.477C291.486 178.034 290.095 190.313 291.46 201.243" stroke="#1E1E1E" stroke-width="9.12832" stroke-linecap="round" stroke-linejoin="round"/>
<path d="M278.663 165.148C281.382 178.346 282.327 191.873 282.735 205.318" stroke="#1E1E1E" stroke-width="9.12832" stroke-linecap="round" stroke-linejoin="round"/>
<path d="M282.735 175.627C284.633 183.552 285.606 191.449 286.806 199.496" stroke="#1E1E1E" stroke-width="9.12832" stroke-linecap="round" stroke-linejoin="round"/>
<path d="M271.102 167.477C274.22 179.786 275.181 192.775 276.918 205.318" stroke="#1E1E1E" stroke-width="9.12832" stroke-linecap="round" stroke-linejoin="round"/>
<path d="M263.541 171.552C265.438 180.748 265.84 190.151 266.449 199.496" stroke="#1E1E1E" stroke-width="9.12832" stroke-linecap="round" stroke-linejoin="round"/>
<path d="M267.03 173.299C267.929 181.846 268.954 190.377 269.938 198.915" stroke="#1E1E1E" stroke-width="9.12832" stroke-linecap="round" stroke-linejoin="round"/>
<path d="M256.561 170.388C258.326 183.539 259.346 196.772 260.632 209.976" stroke="#1E1E1E" stroke-width="9.12832" stroke-linecap="round" stroke-linejoin="round"/>
<path d="M249 173.299C250.932 186.027 252.736 198.877 253.653 211.723" stroke="#1E1E1E" stroke-width="9.12832" stroke-linecap="round" stroke-linejoin="round"/>
<path d="M251.326 177.956C252.797 183.561 253.401 189.119 254.234 194.839" stroke="#1E1E1E" stroke-width="9.12832" stroke-linecap="round" stroke-linejoin="round"/>
<path d="M242.02 177.956C246.812 189.191 247.068 202.062 248.418 214.051" stroke="#1E1E1E" stroke-width="9.12832" stroke-linecap="round" stroke-linejoin="round"/>
<path d="M237.949 179.12C240.294 191.497 243.69 205.592 242.02 218.126" stroke="#1E1E1E" stroke-width="9.12832" stroke-linecap="round" stroke-linejoin="round"/>
<path d="M232.132 179.12C233.655 191.309 233.963 203.543 234.459 215.797" stroke="#1E1E1E" stroke-width="9.12832" stroke-linecap="round" stroke-linejoin="round"/>
<path d="M224.571 177.956C225.604 188.606 225.927 199.29 226.316 209.976" stroke="#1E1E1E" stroke-width="9.12832" stroke-linecap="round" stroke-linejoin="round"/>
<path d="M226.316 183.196C227.202 191.55 228.237 199.886 229.224 208.229" stroke="#1E1E1E" stroke-width="9.12832" stroke-linecap="round" stroke-linejoin="round"/>
<path d="M218.173 177.374C218.657 186.101 220.086 194.755 221.243 203.41C221.822 207.746 222.501 211.306 221.081 215.215" stroke="#1E1E1E" stroke-width="9.12832" stroke-linecap="round" stroke-linejoin="round"/>
<path d="M212.356 180.285C212.592 189.486 214.43 198.573 215.846 207.647" stroke="#1E1E1E" stroke-width="9.12832" stroke-linecap="round" stroke-linejoin="round"/>
<path d="M349.201 178.372V189.452" stroke="#1E1E1E" stroke-width="9.12832" stroke-linecap="round" stroke-linejoin="round"/>
<path d="M348.279 179.295C348.828 184.028 349.202 188.688 349.202 193.453C349.202 197.892 349.202 196.479 349.202 193.094C349.202 189.795 349.244 186.492 349.202 183.194C349.191 182.357 347.961 177.32 348.484 176.73C349.678 175.386 350.124 187.906 350.124 188.939C350.124 191.75 352.023 198.874 350.124 192.222" stroke="#1E1E1E" stroke-width="9.12832" stroke-linecap="round" stroke-linejoin="round"/>
<path d="M383.333 178.372C384.107 183.254 386.1 197.883 386.1 192.94C386.1 188.398 386.179 183.985 385.382 179.5C384.296 173.383 386.147 184.92 386.305 186.476C386.571 189.107 388.243 196.81 386.1 190.375" stroke="#1E1E1E" stroke-width="9.12832" stroke-linecap="round" stroke-linejoin="round"/>
<path d="M293.854 182.065C294.35 185.359 294.776 195.348 294.776 192.017C294.776 188.838 294.19 185.603 293.649 182.476C292.482 175.728 292.931 190.187 292.931 192.222" stroke="#1E1E1E" stroke-width="9.12832" stroke-linecap="round" stroke-linejoin="round"/>
<path d="M311.38 181.142C312.088 183.019 315.081 192.645 315.275 192.016C316.786 187.099 315.172 182.602 315.172 177.705C315.172 173.916 316.915 185.149 316.915 188.939C316.915 191.966 317.066 194.769 318.042 190.375C318.485 188.382 317.731 180.598 318.965 179.5C319.683 178.861 321.527 189.566 321.527 190.785C321.527 197.828 324.569 177.942 326.857 182.065C328.395 184.837 327.692 188.172 328.702 191.093C329.347 192.958 330.608 185.44 330.7 184.373C331.219 178.402 332.321 184.562 332.545 187.143C333.081 193.309 332.758 190.401 333.724 186.169C335.265 179.419 338.131 193.352 338.131 187.554C338.131 183.986 336.765 181.679 337.26 186.63C337.518 189.215 339.054 191.446 339.054 194.068" stroke="#1E1E1E" stroke-width="9.12832" stroke-linecap="round" stroke-linejoin="round"/>
<path d="M413.728 176.071C416.043 182.299 416.555 189.99 416.743 196.596C416.782 197.94 416.14 199.876 416.14 197.267C416.14 191.371 415.633 185.397 414.8 179.559C414.429 176.956 414.331 174.471 414.331 171.846C414.331 169.89 413.684 170.885 413.259 170.035C413.088 169.693 412.952 168.665 413.259 168.358C413.795 167.821 413.857 171.462 413.862 171.51C414.657 178.669 417.347 185.748 417.347 192.974" stroke="#1E1E1E" stroke-width="9.12832" stroke-linecap="round" stroke-linejoin="round"/>
<path d="M543.418 208.761C542.028 189.875 546.008 171.66 550.398 153.454" stroke="#1E1E1E" stroke-width="9.12832" stroke-linecap="round" stroke-linejoin="round"/>
<path d="M550.98 205.85C549.001 197.137 552.162 188.192 553.888 179.652C555.382 172.261 557.119 164.931 558.541 157.529" stroke="#1E1E1E" stroke-width="9.12832" stroke-linecap="round" stroke-linejoin="round"/>
<path d="M562.031 205.268C561.028 198.526 563.464 191.414 564.649 184.827C566.003 177.295 567.102 169.713 568.429 162.187" stroke="#1E1E1E" stroke-width="9.12832" stroke-linecap="round" stroke-linejoin="round"/>
<path d="M573.663 202.357C572.119 196.945 572.771 191.848 573.922 186.379C575.716 177.847 577.693 169.665 578.898 161.022" stroke="#1E1E1E" stroke-width="9.12832" stroke-linecap="round" stroke-linejoin="round"/>
<path d="M582.97 201.193C583.083 188.84 584.717 176.724 586.459 164.515" stroke="#1E1E1E" stroke-width="9.12832" stroke-linecap="round" stroke-linejoin="round"/>
<path d="M596.347 201.775C594.581 195.645 596.13 188.88 596.929 182.692C597.815 175.826 598.78 169.086 599.255 162.187" stroke="#1E1E1E" stroke-width="9.12832" stroke-linecap="round" stroke-linejoin="round"/>
<path d="M608.562 202.939C608.267 192.768 609.423 182.732 610.791 172.666C611.199 169.669 611.485 166.614 612.633 163.933" stroke="#1E1E1E" stroke-width="9.12832" stroke-linecap="round" stroke-linejoin="round"/>
<path d="M619.614 199.446C617.5 185.545 623.201 171.398 624.267 157.529" stroke="#1E1E1E" stroke-width="9.12832" stroke-linecap="round" stroke-linejoin="round"/>
<path d="M630.082 201.193C631.704 188.341 636.256 175.893 639.388 163.351" stroke="#1E1E1E" stroke-width="9.12832" stroke-linecap="round" stroke-linejoin="round"/>
<path d="M639.389 200.611C638.908 195.699 640.69 191.063 642.071 186.412C644.396 178.578 646.291 170.728 648.113 162.769" stroke="#1E1E1E" stroke-width="9.12832" stroke-linecap="round" stroke-linejoin="round"/>
<path d="M648.695 202.357C649.336 188.389 655.084 174.648 658.001 161.022" stroke="#1E1E1E" stroke-width="9.12832" stroke-linecap="round" stroke-linejoin="round"/>
<path d="M623.684 197.699C623.969 184.314 630.767 170.991 634.154 158.111" stroke="#1E1E1E" stroke-width="9.12832" stroke-linecap="round" stroke-linejoin="round"/>
<path d="M587.041 197.7C588.453 187.102 590.703 176.736 592.857 166.262" stroke="#1E1E1E" stroke-width="9.12832" stroke-linecap="round" stroke-linejoin="round"/>
<path d="M601.583 197.7C600.909 192.883 601.841 188.284 602.617 183.533C603.358 178.99 603.543 174.341 603.909 169.755" stroke="#1E1E1E" stroke-width="9.12832" stroke-linecap="round" stroke-linejoin="round"/>
<path d="M556.214 195.953C558.562 186.051 560.728 176.135 563.194 166.262" stroke="#1E1E1E" stroke-width="9.12832" stroke-linecap="round" stroke-linejoin="round"/>
<path d="M569.592 191.878C566.762 186.348 572.142 178.817 574.245 173.83" stroke="#1E1E1E" stroke-width="9.12832" stroke-linecap="round" stroke-linejoin="round"/>
<path d="M656.838 197.117C656.172 184.853 660.256 171.982 662.073 159.858" stroke="#1E1E1E" stroke-width="9.12832" stroke-linecap="round" stroke-linejoin="round"/>
<path d="M667.308 167.426C665.203 177.842 664.1 188.429 662.073 198.864" stroke="#1E1E1E" stroke-width="9.12832" stroke-linecap="round" stroke-linejoin="round"/>
<path d="M676.614 165.098C673.098 175.655 674.489 187.934 673.124 198.864" stroke="#1E1E1E" stroke-width="9.12832" stroke-linecap="round" stroke-linejoin="round"/>
<path d="M685.919 162.769C683.201 175.967 682.255 189.494 681.848 202.939" stroke="#1E1E1E" stroke-width="9.12832" stroke-linecap="round" stroke-linejoin="round"/>
<path d="M681.849 173.248C679.951 181.173 678.977 189.07 677.777 197.117" stroke="#1E1E1E" stroke-width="9.12832" stroke-linecap="round" stroke-linejoin="round"/>
<path d="M693.481 165.098C690.363 177.407 689.402 190.396 687.665 202.939" stroke="#1E1E1E" stroke-width="9.12832" stroke-linecap="round" stroke-linejoin="round"/>
<path d="M701.042 169.173C699.145 178.369 698.743 187.771 698.134 197.117" stroke="#1E1E1E" stroke-width="9.12832" stroke-linecap="round" stroke-linejoin="round"/>
<path d="M697.553 170.919C696.654 179.466 695.629 187.998 694.645 196.535" stroke="#1E1E1E" stroke-width="9.12832" stroke-linecap="round" stroke-linejoin="round"/>
<path d="M708.022 168.008C706.257 181.16 705.237 194.393 703.951 207.596" stroke="#1E1E1E" stroke-width="9.12832" stroke-linecap="round" stroke-linejoin="round"/>
<path d="M715.583 170.919C713.651 183.647 711.847 196.497 710.93 209.343" stroke="#1E1E1E" stroke-width="9.12832" stroke-linecap="round" stroke-linejoin="round"/>
<path d="M713.257 175.577C711.786 181.182 711.182 186.739 710.349 192.46" stroke="#1E1E1E" stroke-width="9.12832" stroke-linecap="round" stroke-linejoin="round"/>
<path d="M722.563 175.577C717.771 186.812 717.515 199.683 716.165 211.672" stroke="#1E1E1E" stroke-width="9.12832" stroke-linecap="round" stroke-linejoin="round"/>
<path d="M726.635 176.741C724.29 189.118 720.894 203.213 722.563 215.747" stroke="#1E1E1E" stroke-width="9.12832" stroke-linecap="round" stroke-linejoin="round"/>
<path d="M732.45 176.741C730.928 188.93 730.62 201.164 730.124 213.418" stroke="#1E1E1E" stroke-width="9.12832" stroke-linecap="round" stroke-linejoin="round"/>
<path d="M740.012 175.577C738.979 186.227 738.655 196.911 738.267 207.597" stroke="#1E1E1E" stroke-width="9.12832" stroke-linecap="round" stroke-linejoin="round"/>
<path d="M746.41 174.995C745.925 183.722 744.496 192.376 743.34 201.031C742.761 205.367 742.081 208.927 743.501 212.836" stroke="#1E1E1E" stroke-width="9.12832" stroke-linecap="round" stroke-linejoin="round"/>
<path d="M752.226 177.906C751.99 187.107 750.153 196.194 748.736 205.268" stroke="#1E1E1E" stroke-width="9.12832" stroke-linecap="round" stroke-linejoin="round"/>
<path d="M615.381 175.993V187.073" stroke="#1E1E1E" stroke-width="9.12832" stroke-linecap="round" stroke-linejoin="round"/>
<path d="M616.304 176.916C615.755 181.649 615.381 186.309 615.381 191.074C615.381 195.513 615.381 194.1 615.381 190.715C615.381 187.416 615.339 184.113 615.381 180.815C615.392 179.978 616.622 174.941 616.099 174.351C614.905 173.007 614.459 185.527 614.459 186.56C614.459 189.371 612.56 196.495 614.459 189.843" stroke="#1E1E1E" stroke-width="9.12832" stroke-linecap="round" stroke-linejoin="round"/>
<path d="M581.25 175.993C580.476 180.874 578.483 195.504 578.483 190.561C578.483 186.019 578.403 181.606 579.2 177.121C580.287 171.004 578.435 182.541 578.278 184.097C578.012 186.727 576.34 194.431 578.483 187.996" stroke="#1E1E1E" stroke-width="9.12832" stroke-linecap="round" stroke-linejoin="round"/>
<path d="M670.729 179.686C670.232 182.98 669.806 192.969 669.806 189.638C669.806 186.459 670.393 183.224 670.934 180.097C672.101 173.349 671.651 187.808 671.651 189.843" stroke="#1E1E1E" stroke-width="9.12832" stroke-linecap="round" stroke-linejoin="round"/>
<path d="M653.203 178.763C652.494 180.64 649.501 190.266 649.308 189.637C647.796 184.72 649.41 180.223 649.41 175.326C649.41 171.536 647.668 182.77 647.668 186.56C647.668 189.587 647.516 192.39 646.54 187.996C646.098 186.003 646.852 178.219 645.618 177.121C644.899 176.482 643.056 187.187 643.056 188.406C643.056 195.449 640.014 175.563 637.726 179.686C636.187 182.457 636.891 185.793 635.881 188.714C635.236 190.579 633.975 183.061 633.882 181.994C633.363 176.023 632.262 182.183 632.037 184.764C631.502 190.93 631.825 188.022 630.859 183.79C629.317 177.04 626.451 190.973 626.451 185.175C626.451 181.607 627.817 179.3 627.322 184.251C627.064 186.835 625.529 189.067 625.529 191.689" stroke="#1E1E1E" stroke-width="9.12832" stroke-linecap="round" stroke-linejoin="round"/>
<path d="M550.855 173.692C548.539 179.92 548.028 187.611 547.839 194.217C547.801 195.561 548.442 197.496 548.442 194.888C548.442 188.992 548.949 183.018 549.782 177.18C550.154 174.577 550.251 172.091 550.251 169.467C550.251 167.511 550.899 168.506 551.324 167.656C551.494 167.314 551.631 166.286 551.324 165.979C550.787 165.442 550.726 169.083 550.721 169.131C549.926 176.29 547.236 183.368 547.236 190.595" stroke="#1E1E1E" stroke-width="9.12832" stroke-linecap="round" stroke-linejoin="round"/>
<path d="M383.983 510.036C383.983 522.921 384.533 535.814 384.116 548.693C384.04 551.025 382.534 558.814 385.775 554.273" stroke="#1E1E1E" stroke-width="9.12832" stroke-linecap="round" stroke-linejoin="round"/>
<path d="M392.344 513.623C392.185 524.302 391.038 534.702 392.079 545.405C392.409 548.797 393.087 552.123 393.472 555.502C393.552 556.197 393.539 557.599 393.539 556.066" stroke="#1E1E1E" stroke-width="9.12832" stroke-linecap="round" stroke-linejoin="round"/>
<path d="M388.761 521.992C389.85 532.892 389.956 543.921 389.956 554.871" stroke="#1E1E1E" stroke-width="9.12832" stroke-linecap="round" stroke-linejoin="round"/>
<path d="M401.9 522.59C400.55 531.035 400.757 539.963 400.706 548.494C400.689 551.25 400.27 558.408 401.9 551.882" stroke="#1E1E1E" stroke-width="9.12832" stroke-linecap="round" stroke-linejoin="round"/>
<path d="M398.914 527.969C397.151 534.79 397.992 543.248 399.511 550.088" stroke="#1E1E1E" stroke-width="9.12832" stroke-linecap="round" stroke-linejoin="round"/>
<path d="M412.651 525.578C413.687 534.194 414.568 543.34 413.713 552.014C413.632 552.839 413.293 554.273 413.846 554.273" stroke="#1E1E1E" stroke-width="9.12832" stroke-linecap="round" stroke-linejoin="round"/>
<path d="M410.859 524.981V554.273" stroke="#1E1E1E" stroke-width="9.12832" stroke-linecap="round" stroke-linejoin="round"/>
<path d="M409.067 531.556C408.964 539.927 408.685 548.296 408.47 556.664" stroke="#1E1E1E" stroke-width="9.12832" stroke-linecap="round" stroke-linejoin="round"/>
<path d="M406.081 532.154C410.157 537.254 407.563 543.805 406.081 549.49" stroke="#1E1E1E" stroke-width="9.12832" stroke-linecap="round" stroke-linejoin="round"/>
<path d="M404.887 529.165C405.502 535.733 405.735 542.306 406.081 548.892" stroke="#1E1E1E" stroke-width="9.12832" stroke-linecap="round" stroke-linejoin="round"/>
<path d="M422.804 520.796C423.868 532.37 423.476 544.126 421.013 555.468" stroke="#1E1E1E" stroke-width="9.12832" stroke-linecap="round" stroke-linejoin="round"/>
<path d="M423.401 520.198C420.969 530.796 422.915 542.144 419.817 552.48" stroke="#1E1E1E" stroke-width="9.12832" stroke-linecap="round" stroke-linejoin="round"/>
<path d="M418.623 525.578C419.547 535.133 419.619 544.715 420.415 554.273" stroke="#1E1E1E" stroke-width="9.12832" stroke-linecap="round" stroke-linejoin="round"/>
<path d="M429.374 518.405C430.541 529.585 429.374 540.684 429.374 551.881" stroke="#1E1E1E" stroke-width="9.12832" stroke-linecap="round" stroke-linejoin="round"/>
<path d="M432.36 520.198C431.701 528.989 431.201 537.75 431.165 546.568C431.155 549.119 430.627 555.528 431.762 556.664" stroke="#1E1E1E" stroke-width="9.12832" stroke-linecap="round" stroke-linejoin="round"/>
<path d="M440.721 514.818C441.925 525.207 442.177 535.725 441.551 546.169C441.402 548.643 441.177 552.165 440.124 554.273" stroke="#1E1E1E" stroke-width="9.12832" stroke-linecap="round" stroke-linejoin="round"/>
<path d="M441.318 516.014C439.992 524.775 438.729 533.432 438.067 542.284C438.033 542.739 437.308 555.72 436.541 551.881" stroke="#1E1E1E" stroke-width="9.12832" stroke-linecap="round" stroke-linejoin="round"/>
<path d="M447.889 515.416C452.796 521.628 452.482 531.841 452.866 539.361C453.061 543.192 453.798 549.019 452.069 552.479" stroke="#1E1E1E" stroke-width="9.12832" stroke-linecap="round" stroke-linejoin="round"/>
<path d="M452.069 513.024C453.755 525.545 457.346 539.953 454.458 552.479" stroke="#1E1E1E" stroke-width="9.12832" stroke-linecap="round" stroke-linejoin="round"/>
<path d="M447.292 525.578C447.753 535.414 447.447 545.072 446.694 554.87" stroke="#1E1E1E" stroke-width="9.12832" stroke-linecap="round" stroke-linejoin="round"/>
<path d="M464.014 516.612C465.993 522.802 465.805 528.437 465.805 534.944C465.805 543.579 465.805 552.214 465.805 560.849" stroke="#1E1E1E" stroke-width="9.12832" stroke-linecap="round" stroke-linejoin="round"/>
<path d="M461.028 521.394C463.517 532.753 463.849 543.474 462.222 554.871" stroke="#1E1E1E" stroke-width="9.12832" stroke-linecap="round" stroke-linejoin="round"/>
<path d="M459.236 521.394C460.502 530.268 460.43 539.346 460.43 548.295" stroke="#1E1E1E" stroke-width="9.12832" stroke-linecap="round" stroke-linejoin="round"/>
<path d="M483.723 515.416C485.205 527.456 485.388 538.691 483.723 550.686" stroke="#1E1E1E" stroke-width="9.12832" stroke-linecap="round" stroke-linejoin="round"/>
<path d="M477.75 513.623C480.255 527.882 480.094 542.886 478.944 557.262" stroke="#1E1E1E" stroke-width="9.12832" stroke-linecap="round" stroke-linejoin="round"/>
<path d="M475.361 517.807C473.327 530.327 471.887 542.86 470.583 555.468" stroke="#1E1E1E" stroke-width="9.12832" stroke-linecap="round" stroke-linejoin="round"/>
<path d="M471.778 523.187C471.91 533.352 472.655 543.513 472.972 553.675" stroke="#1E1E1E" stroke-width="9.12832" stroke-linecap="round" stroke-linejoin="round"/>
<path d="M478.347 521.992C482.045 525.603 481.957 529.957 482.196 534.944C482.593 543.223 482.29 551.388 481.931 559.653" stroke="#1E1E1E" stroke-width="9.12832" stroke-linecap="round" stroke-linejoin="round"/>
<path d="M492.084 519.6V557.859" stroke="#1E1E1E" stroke-width="9.12832" stroke-linecap="round" stroke-linejoin="round"/>
<path d="M497.46 515.416C497.605 529.947 499.361 544.8 496.265 559.055" stroke="#1E1E1E" stroke-width="9.12832" stroke-linecap="round" stroke-linejoin="round"/>
<path d="M507.015 515.416C508.69 525.277 508.967 535.317 508.674 545.305C508.578 548.573 508.384 555.207 507.015 557.261" stroke="#1E1E1E" stroke-width="9.12832" stroke-linecap="round" stroke-linejoin="round"/>
<path d="M515.974 517.807C515.974 530.855 515.323 543.673 511.196 556.066" stroke="#1E1E1E" stroke-width="9.12832" stroke-linecap="round" stroke-linejoin="round"/>
<path d="M504.626 519.6C507.18 531.567 507.27 542.921 505.223 554.87" stroke="#1E1E1E" stroke-width="9.12832" stroke-linecap="round" stroke-linejoin="round"/>
<path d="M499.848 524.383C501.784 533.344 501.728 541.749 499.848 550.686" stroke="#1E1E1E" stroke-width="9.12832" stroke-linecap="round" stroke-linejoin="round"/>
<path d="M482.528 529.165C484.635 535.669 483.958 541.625 483.125 548.295" stroke="#1E1E1E" stroke-width="9.12832" stroke-linecap="round" stroke-linejoin="round"/>
<path d="M479.542 530.361V551.284" stroke="#1E1E1E" stroke-width="9.12832" stroke-linecap="round" stroke-linejoin="round"/>
<path d="M489.695 529.165C491.403 535.866 492.329 542.646 493.279 549.49" stroke="#1E1E1E" stroke-width="9.12832" stroke-linecap="round" stroke-linejoin="round"/>
<path d="M523.14 512.427C526.269 526.325 522.197 540.998 523.737 554.87" stroke="#1E1E1E" stroke-width="9.12832" stroke-linecap="round" stroke-linejoin="round"/>
<path d="M520.752 517.209C520.55 522.865 519.319 528.407 519.093 534.08C518.872 539.61 518.96 545.153 518.96 550.686" stroke="#1E1E1E" stroke-width="9.12832" stroke-linecap="round" stroke-linejoin="round"/>
<path d="M532.1 514.818C535.302 527.512 534.508 540.71 533.891 553.675" stroke="#1E1E1E" stroke-width="9.12832" stroke-linecap="round" stroke-linejoin="round"/>
<path d="M532.697 520.796C531.835 529.609 531.565 538.561 529.71 547.099" stroke="#1E1E1E" stroke-width="9.12832" stroke-linecap="round" stroke-linejoin="round"/>
<path d="M530.308 521.992C531.431 530.563 531.502 539.065 531.502 547.697C531.502 548.855 532.138 551.862 530.905 552.479" stroke="#1E1E1E" stroke-width="9.12832" stroke-linecap="round" stroke-linejoin="round"/>
<path d="M535.085 521.992C536.94 530.073 537.251 538.657 539.863 546.501" stroke="#1E1E1E" stroke-width="9.12832" stroke-linecap="round" stroke-linejoin="round"/>
<path d="M540.461 525.578C541.556 532.518 542.253 539.474 542.253 546.501" stroke="#1E1E1E" stroke-width="9.12832" stroke-linecap="round" stroke-linejoin="round"/>
<path d="M548.822 523.187C548.822 531.569 549.419 539.936 549.419 548.295" stroke="#1E1E1E" stroke-width="9.12832" stroke-linecap="round" stroke-linejoin="round"/>
<path d="M556.587 524.981C557.083 532.602 555.617 539.64 554.198 547.099" stroke="#1E1E1E" stroke-width="9.12832" stroke-linecap="round" stroke-linejoin="round"/>
<path d="M558.976 518.405C558.848 528.12 558.67 538.51 555.392 547.697" stroke="#1E1E1E" stroke-width="9.12832" stroke-linecap="round" stroke-linejoin="round"/>
<path d="M550.614 526.176C551.028 534.38 548.62 540.678 545.836 548.295" stroke="#1E1E1E" stroke-width="9.12832" stroke-linecap="round" stroke-linejoin="round"/>
<path d="M535.683 524.981C535.492 534.16 534.488 543.271 534.488 552.479" stroke="#1E1E1E" stroke-width="9.12832" stroke-linecap="round" stroke-linejoin="round"/>
<path d="M556.587 534.545C560.031 542.142 562.17 549.111 563.754 557.262" stroke="#1E1E1E" stroke-width="9.12832" stroke-linecap="round" stroke-linejoin="round"/>
<path d="M546.433 544.11C547.526 551.183 546.63 556.877 545.239 563.838" stroke="#1E1E1E" stroke-width="9.12832" stroke-linecap="round" stroke-linejoin="round"/>
<path d="M542.252 542.915C539.563 547.452 539.247 552.202 538.072 557.262" stroke="#1E1E1E" stroke-width="9.12832" stroke-linecap="round" stroke-linejoin="round"/>
<path d="M567.337 520.796C566.82 528.816 566.828 536.81 566.706 544.841C566.661 547.854 566.853 551.056 565.545 553.675" stroke="#1E1E1E" stroke-width="9.12832" stroke-linecap="round" stroke-linejoin="round"/>
<path d="M569.726 510.036C566.882 522.536 564.801 535.195 561.962 547.697" stroke="#1E1E1E" stroke-width="9.12832" stroke-linecap="round" stroke-linejoin="round"/>
<path d="M574.504 508.242C574.043 522.552 571.947 537.07 570.324 551.284" stroke="#1E1E1E" stroke-width="9.12832" stroke-linecap="round" stroke-linejoin="round"/>
<path d="M577.49 508.84C578.341 522.677 578.18 536.424 575.698 550.088" stroke="#1E1E1E" stroke-width="9.12832" stroke-linecap="round" stroke-linejoin="round"/>
<path d="M586.449 499.275C584.788 514.701 582.866 531.441 582.866 546.501" stroke="#1E1E1E" stroke-width="9.12832" stroke-linecap="round" stroke-linejoin="round"/>
<path d="M585.254 517.209C585.254 526.182 585.611 535.176 585.254 544.11" stroke="#1E1E1E" stroke-width="9.12832" stroke-linecap="round" stroke-linejoin="round"/>
<path d="M591.227 520.198C591.097 527.977 590.3 535.736 590.032 543.513" stroke="#1E1E1E" stroke-width="9.12832" stroke-linecap="round" stroke-linejoin="round"/>
<path d="M594.213 523.187V541.121" stroke="#1E1E1E" stroke-width="9.12832" stroke-linecap="round" stroke-linejoin="round"/>
<path d="M379.802 528.568C379.802 534.188 379.62 539.706 379.205 545.306" stroke="#1E1E1E" stroke-width="9.12832" stroke-linecap="round" stroke-linejoin="round"/>
<path d="M375.622 529.165C376.382 535.906 375.4 542.27 374.427 548.892" stroke="#1E1E1E" stroke-width="9.12832" stroke-linecap="round" stroke-linejoin="round"/>
<path d="M374.428 517.209C374.428 529.376 374.155 541.513 373.831 553.675" stroke="#1E1E1E" stroke-width="9.12832" stroke-linecap="round" stroke-linejoin="round"/>
<path d="M509.613 296.204C513.19 300.929 516.035 306.571 516.035 312.564" stroke="#E5B2AE" stroke-width="9.12832" stroke-linecap="round" stroke-linejoin="round"/>
<path d="M516.034 299.125C516.412 301.155 516.618 305.293 516.618 305.293C516.618 305.293 516.77 302.498 517.072 301.138C517.612 298.705 517.096 296.811 517.915 300.294C518.699 303.628 518.257 302.866 518.369 299.839C518.41 298.74 520.012 295.161 520.121 298.086C520.38 305.098 522.606 311.853 524.661 318.537C525.698 321.911 526.417 325.721 527.839 328.925C528.481 330.371 529.869 332.02 530.045 333.599C530.121 334.286 530.382 337.673 530.758 338.144C532.248 340.008 529.461 343.715 529.461 345.869C529.461 350.154 529.461 354.439 529.461 358.724" stroke="#E5B2AE" stroke-width="9.12832" stroke-linecap="round" stroke-linejoin="round"/>
<path d="M528.877 361.646C529.103 373.413 534.645 384.706 538.509 395.536C538.918 396.682 539.385 397.816 539.385 399.041C539.385 400.655 539.257 395.784 538.801 394.237C537.533 389.935 536.006 385.649 534.585 381.383C533.516 378.172 528.111 369.497 529.753 372.456C531.303 375.249 533.463 378.721 534.585 381.642C535.398 383.757 537.104 385.991 537.601 388.232C538.487 392.223 539.917 396.442 541.59 400.21C544.891 407.643 545.759 416.216 549.439 423.582C549.988 424.682 550.076 425.524 549.86 423.582C549.615 421.37 548.619 419.306 548.141 417.155C547.355 413.613 545.465 410.665 544.509 407.222C543.731 404.416 542.214 401.874 541.428 399.041C541.077 397.777 540.552 396.619 540.552 395.308C540.552 393.952 541.499 397.851 542.012 399.106C544.802 405.932 546.625 413.387 549.439 420.076C550.35 422.243 550.776 424.122 551.936 426.212C552.986 428.104 554.227 430.806 554.53 432.931C554.795 434.787 555.679 437.636 556.444 439.359C557.454 441.633 555.991 438.067 555.86 437.476C555.252 434.738 555.119 431.391 553.979 428.841C552.406 425.321 550.176 421.791 549.341 418.031C548.854 415.838 548.277 413.025 547.006 411.117C544.618 407.532 550.114 419.174 552.098 422.998C553.665 426.019 553.81 429.411 555.276 432.347C557.366 436.531 557.821 441.373 560.109 445.494C560.909 446.936 561.975 450.53 562.152 452.213C562.389 454.471 563.742 456.331 564.487 458.381C565.847 462.125 568.732 473.594 568.573 469.613C568.485 467.397 567.181 465.092 566.53 462.99C565.762 460.512 565.37 457.891 564.487 455.459C563.501 452.746 561.793 450.371 560.984 447.539C559.919 443.808 563.256 448.998 563.903 450.006C565.652 452.729 566.03 456.264 567.276 459.225C568.922 463.137 569.157 466.7 569.157 470.911C569.157 475.824 566.385 477.44 562.476 479.676C556.219 483.254 551.584 489.609 543.763 489.609C541.915 489.609 540.066 489.609 538.217 489.609C538.204 489.609 540.439 489.609 541.104 489.609C542.965 489.609 544.603 488.728 546.39 488.473C548.499 488.171 549.759 487.342 551.644 486.233C552.032 486.004 553.316 484.171 553.395 485.519C553.472 486.83 553.38 487.492 552.098 487.986C547.562 489.732 544.531 491.184 539.677 489.024C537.665 488.129 536.358 486.616 534.715 485.648C532.662 484.44 530.385 485.41 528.293 484.48C526.567 483.712 528.742 484.412 529.493 484.675C531.882 485.511 534.125 486.52 536.434 487.531C538.267 488.334 537.933 487.856 535.882 487.856C533.837 487.856 532.074 487.554 530.077 487.304C528.77 487.14 525.224 485.311 524.207 484.35C523.419 483.605 522.091 483.225 521.418 482.467C520.896 481.88 525.524 482.361 525.958 482.467C529.362 483.296 532.345 485.933 535.59 486.655C537.68 487.12 536.162 489.609 534.423 489.609C527.761 489.609 523.756 482.597 516.618 482.597" stroke="#E5B2AE" stroke-width="9.12832" stroke-linecap="round" stroke-linejoin="round"/>
<path d="M445.399 292.698C446.044 296.091 444.959 298.097 444.815 301.333C444.735 303.138 444.549 305.664 443.777 307.306C442.054 310.97 444.231 299.215 444.231 295.165C444.231 294.221 444.231 288.564 444.231 292.114C444.231 295.764 444.025 300.11 443.615 303.8C443.389 305.84 441.95 310.753 442.772 305.488C443.213 302.664 442.257 298.94 443.356 296.301C443.602 295.709 443.322 300.137 443.193 300.878C441.875 308.504 440.743 316.825 437.518 323.926C436.57 326.013 435.941 327.97 435.183 330.094C434.839 331.058 434.376 332.71 434.891 330.646C435.686 327.463 437.153 324.506 438.069 321.362C439.209 317.449 440.187 313.078 440.761 309.059C440.824 308.621 441.993 306.625 441.864 307.403C441.38 310.306 440.331 313.345 439.561 316.2C438.021 321.913 435.577 327.735 434.34 333.307C433.582 336.718 430.805 340.1 430.805 343.533" stroke="#E5B2AE" stroke-width="9.12832" stroke-linecap="round" stroke-linejoin="round"/>
<path d="M430.221 341.196C430.331 346.147 431.645 351.229 432.524 356.063C432.809 357.634 433.063 361.668 432.264 363.107C431.022 365.345 431.583 368.295 430.221 370.541C428.655 373.122 428.149 376.427 426.848 379.175C426.126 380.7 426.985 379.282 427.302 378.461C428.413 375.584 428.656 372.557 429.345 369.567C430.339 365.255 431.388 361.745 431.388 357.296C431.388 354.797 431.488 353.274 431.388 356.972C431.269 361.41 431.183 366.613 429.767 370.865C428.08 375.932 424.48 380.192 422.632 385.278C421.936 387.194 420.193 388.992 419.259 390.861C418.179 393.024 416.346 396.433 418.546 392.03C420.826 387.464 422.4 382.627 424.675 378.072C426.28 374.859 428.171 371.667 429.637 368.366C430.582 366.239 431.429 364.11 432.264 361.938C434.539 356.019 431.298 365.816 430.805 367.262C428.467 374.115 426.052 379.963 422.178 386.057C420.353 388.927 419.149 390.621 418.092 393.913C416.747 398.099 415.107 402.913 414.492 407.222C413.897 411.388 412.654 416.162 411.411 420.207C410.778 422.265 409.842 424.142 409.205 426.212C409.056 426.698 407.646 429.585 408.168 427.673C408.882 425.05 410.405 422.609 411.249 420.012C412.799 415.237 413.968 410.359 415.497 405.599C415.832 404.556 416.584 401.368 416.178 402.385C415.433 404.25 414.699 405.811 414.33 407.806C413.299 413.375 410.897 421.401 407.162 425.887C406.36 426.851 407.647 423.568 407.746 423.225C408.736 419.811 409.833 416.439 410.957 413.065C412.138 409.518 413.894 406.119 414.913 402.548C415.438 400.708 416.822 397.079 415.497 400.924C414.002 405.264 413.594 409.873 412.092 414.234C410.328 419.354 408.367 424.428 406.287 429.426" stroke="#E5B2AE" stroke-width="9.12832" stroke-linecap="round" stroke-linejoin="round"/>
<path d="M420.702 349.76C420.37 363.722 410.877 377.302 406.932 390.394C402.798 404.114 395.729 416.753 391.326 430.415C387.912 441.008 381.174 450.664 378.678 461.655C377.242 467.982 374.332 476.217 379.392 481.564C382.161 484.489 383.153 487.744 386.736 489.935C391.927 493.111 396.169 498.023 401.424 501.37C408.62 505.953 414.443 504.269 422.13 503.208C429.187 502.233 435.806 497.947 442.734 497.695C450.016 497.429 457.054 494.539 464.307 494.07C470.509 493.67 476.929 493.1 483.125 493.1C494.052 493.1 503.878 493.286 514.337 496.776" stroke="#1E1E1E" stroke-width="24.3422" stroke-linecap="round" stroke-linejoin="round"/>
<path d="M537.236 348.234C537.568 362.195 547.061 375.775 551.006 388.867C555.14 402.588 562.209 415.226 566.611 428.888C570.025 439.481 576.764 449.138 579.259 460.129C580.696 466.455 583.606 474.691 578.545 480.037C575.776 482.963 574.784 486.217 571.201 488.409C566.01 491.584 561.768 496.496 556.514 499.843C549.318 504.427 543.494 502.742 535.808 501.681C528.75 500.706 522.132 496.42 515.204 496.168C507.921 495.903 500.884 493.012 493.631 492.543C487.428 492.143 481.009 491.573 474.812 491.573C463.886 491.573 454.06 491.759 443.6 495.249" stroke="#1E1E1E" stroke-width="24.3422" stroke-linecap="round" stroke-linejoin="round"/>
<path d="M436.287 261.789C444.328 255.57 452.679 252.509 462.008 248.982C464.893 247.891 469.827 248.707 472.898 249.014C476.305 249.355 480.717 250.111 483.981 251.019C496.908 254.613 512.665 254.976 522.951 264.7C524.709 266.362 526.311 267.679 527.895 269.616C530.458 272.752 529.199 269.639 528.186 267.611C525.702 262.638 521.409 257.853 516.23 255.968C511.002 254.065 505.901 251.397 500.3 250.696C497.931 250.399 495.433 249.049 493.029 248.529C488.358 247.518 483.468 247.482 478.747 246.782C472.868 245.91 466.566 247.817 460.716 247.817C455.974 247.817 450.563 249.323 446.466 251.601C445.017 252.407 442.009 254.027 440.359 254.221C438.834 254.401 438.441 256.199 440.649 254.48C447.799 248.914 455.513 247.255 464.206 245.941C473.003 244.612 482.035 244.733 490.509 247.817C497.82 250.478 505.795 251.069 513.063 253.898C515.382 254.8 517.839 255.199 520.172 256.097C522.302 256.917 523.621 258.948 525.536 260.043C527.109 260.943 530.512 266.337 530.512 268.193" stroke="#1E1E1E" stroke-width="24.3422" stroke-linecap="round" stroke-linejoin="round"/>
<path d="M661.75 231.706C659.583 231.283 656.971 230.541 654.763 230.541C653.326 230.541 652.402 231.495 650.946 230.832C647.638 229.327 644.328 229.375 640.789 229.375C637.453 229.375 634.267 228.792 630.826 228.792C627.017 228.792 623.519 227.627 619.828 227.627C612.657 227.627 605.47 227.948 598.414 228.21C593.808 228.38 589.202 229.958 584.601 229.958C580.743 229.958 576.81 230.482 573.118 231.577C569.359 232.692 565.398 232.952 561.602 234.037C558.606 234.894 554.632 235.31 552.286 237.534C549.729 239.959 546.934 241.189 544.976 244.269C543.019 247.347 540.884 250.27 539.606 253.723C537.098 260.502 534.673 267.442 532.619 274.38C530.285 282.266 531.907 290.698 531.907 298.695C531.907 302.549 533.853 307.966 535.401 311.549C536.57 314.255 536.654 317.375 537.73 320.162C538.74 322.777 539.449 325.704 540.059 328.45C541.072 333.013 543.898 336.529 545.429 340.818C546.147 342.832 547.616 344.621 548.793 346.387C550.059 348.289 550.64 350.946 551.995 352.604C554.995 356.274 557.18 360.766 559.856 364.713C562.945 369.27 566.318 372.756 570.369 376.304C574.112 379.583 577.918 382.522 581.852 385.564C585.942 388.727 590.725 390.277 595.341 392.299C603.372 395.816 611.862 395.604 620.378 396.67C629.089 397.759 637.662 400.717 646.612 400.717C655.517 400.717 664.447 398.386 673.395 398.386C678.071 398.386 682.855 397.669 687.369 396.508C691.911 395.339 695.747 392.858 700.05 391.262C703.822 389.864 706.126 385.719 709.754 384.398C713.495 383.037 716.811 377.211 719.393 374.491C725.4 368.162 727.147 360.09 730.586 352.345C733.705 345.319 735.054 337.421 737.314 330.069C739.253 323.76 741.632 316.252 742.101 309.671C742.427 305.112 744.289 300.605 744.98 296.105C745.606 292.037 744.516 286.794 745.724 282.863C746.678 279.759 747.091 275.784 746.727 272.502C746.481 270.289 745.595 268.068 745.595 265.832C745.595 264.324 745.911 262.425 745.466 260.976C743.87 255.786 740.631 250.132 734.532 249.773C730.452 249.533 725.739 247.383 721.981 246.309C712.974 243.733 703.481 241.992 694.065 239.898C681.466 237.095 668.144 236.913 655.087 235.171C646.396 234.011 637.729 233.455 628.853 233.455C623.14 233.455 617.496 232.289 611.806 232.289C606.716 232.289 601.627 232.289 596.538 232.289C584.874 232.289 574.219 232.917 562.799 235.203C558.687 236.026 554.383 237.777 550.41 239.153C548.243 239.904 542.556 242.275 541.806 244.528" stroke="#1E1E1E" stroke-width="24.3422" stroke-linecap="round" stroke-linejoin="round"/>
<path d="M447.338 413.156C447.338 415.021 446.495 421.344 448.501 422.6C450.001 423.538 449.68 423.863 451.733 424.346C454.011 424.883 454.025 421.837 454.285 419.883C454.774 416.217 447.055 416.668 447.176 416.681C448.185 416.787 450.828 418.074 450.828 416.357C450.828 415.374 449.929 414.602 449.083 414.32" stroke="#E5B2AE" stroke-width="9.12832" stroke-linecap="round" stroke-linejoin="round"/>
<path d="M839.07 135C841.048 156.256 840.421 176.987 839.42 198.269C838.029 227.824 841.411 257.289 843.789 286.707C848.006 338.862 857.946 390.905 857.946 443.307" stroke="#1E1E1E" stroke-width="29.6976" stroke-linecap="round" stroke-linejoin="round"/>
<path d="M865.812 566H865.813" stroke="#1E1E1E" stroke-width="29.6976" stroke-linecap="round" stroke-linejoin="round"/>
<path d="M39.9808 202.227C33.4225 191.209 33.6607 185.86 38.8239 173.637C48.4217 150.915 77.1514 134.155 100.301 147.856C124.558 162.212 136.328 187.018 144.425 212.638C151.432 234.807 155.386 255.74 142.442 276.594C123.483 307.139 90.9882 329.457 77.3296 363.603C65.8632 392.27 78.6517 426.733 78.6517 456.562" stroke="#1E1E1E" stroke-width="28.0806" stroke-linecap="round" stroke-linejoin="round"/>
<path d="M83.1143 557.702H83.1154" stroke="#1E1E1E" stroke-width="28.0806" stroke-linecap="round" stroke-linejoin="round"/>
<defs>
<linearGradient id="paint0_linear_11_324" x1="450" y1="0" x2="450" y2="700" gradientUnits="userSpaceOnUse">
<stop stop-color="white"/>
<stop offset="1" stop-color="white"/>
</linearGradient>
</defs>
</svg>
